<svg width="90" height="95" viewBox="0 0 90 95" fill="none" xmlns="http://www.w3.org/2000/svg">
<path d="M65.8066 47.405C68.3155 48.4099 69.654 51.2892 70.4355 53.7386C70.82 54.9281 71.2277 56.1283 71.7082 57.2919C71.9744 57.9333 72.2335 58.5658 72.5468 59.184C72.687 59.4588 73.1257 60.0421 72.9579 60.3156C72.7901 60.5891 72.6749 60.3454 72.4067 60.166C70.1062 58.6285 70.0596 55.3556 69.2284 53.0265C69.0179 52.4805 68.7595 51.9543 68.4561 51.4539C68.2018 51.0003 68.0488 50.4727 67.7669 50.0485C67.1593 49.2754 66.3393 48.6966 65.4074 48.3829C65.5393 48.2401 65.6405 48.0719 65.7049 47.8885C65.762 47.7331 65.7963 47.5702 65.8066 47.405Z" fill="#634C3B"/>
<path d="M63.1782 46.306C63.5725 46.2965 64.4439 46.2258 64.7667 46.6464C65.5934 47.7222 64.057 48.2754 63.3582 48.288C61.9152 48.3162 60.4718 48.2541 59.0364 48.102C57.6904 47.9544 56.3529 47.5808 55.0104 47.4376C53.6678 47.2945 52.4079 47.0266 51.1905 47.1851L51.1683 47.2029C50.6291 46.4889 49.8657 45.9768 49.0005 45.7489C49.051 45.5842 49.0935 45.4185 49.1315 45.2565C49.3313 45.3788 49.5429 45.4808 49.763 45.5609C50.3476 45.7627 50.9477 45.9166 51.5573 46.0211C52.8498 46.2581 54.1572 46.4055 55.47 46.4623C56.8462 46.5199 58.2047 46.5918 59.5709 46.5551C60.7859 46.5302 61.9668 46.3353 63.1782 46.306Z" fill="#634C3B"/>
<path d="M64.7346 34.4028C64.8424 34.4552 65.2521 34.6014 65.2825 34.694C65.3701 34.9671 64.838 35.0507 64.708 35.0526C63.0077 35.3684 61.2628 35.3573 59.5666 35.0201C58.4287 34.7858 57.2026 34.5054 56.1439 34.8434C56.0625 34.4814 55.8967 34.1437 55.66 33.8579C55.6123 33.7891 55.5598 33.7238 55.503 33.6623C56.354 33.3783 57.2463 33.2377 58.1434 33.2463C59.0192 33.1623 59.9016 33.1747 60.7746 33.2834C61.7478 33.3864 62.7065 33.5976 63.6329 33.9131C63.9802 34.0728 64.3686 34.2289 64.7346 34.4028Z" fill="#634C3B"/>
<path d="M53.7865 34.6377C54.2645 34.0495 55.1427 33.8052 55.4461 34.8845C55.5603 35.4415 55.518 36.0193 55.3239 36.5537C54.9861 37.5168 54.5382 38.4377 53.9891 39.2981C53.4201 40.3062 52.6619 41.1949 51.756 41.9156C51.3216 42.2899 50.8468 42.6145 50.3404 42.8835C49.9517 43.0638 49.5415 43.181 49.1322 43.3267C48.9835 42.8292 48.7636 42.3559 48.4795 41.9213C49.8202 42.0074 51.1974 41.5381 51.7868 40.4148C52.2206 39.5451 52.5575 38.6303 52.7913 37.6869C53.0657 36.6264 53.1095 35.4879 53.7865 34.6377Z" fill="#634C3B"/>
<path d="M46.411 71.3276C48.5091 72.6402 51.6897 73.3984 52.6922 75.9774C52.8092 76.2781 53.0089 76.454 52.7188 76.5479C52.4288 76.6418 51.9447 76.1022 51.7031 75.9014C51.1675 75.4616 50.6062 75.0716 50.0377 74.6728C49.0104 73.9479 47.9226 73.2935 46.8446 72.6604C44.6405 71.3525 42.1018 69.4362 41.6644 66.7691C41.8308 66.8003 42.0009 66.8067 42.1691 66.788C42.3619 66.7639 42.5479 66.7016 42.7163 66.6047C42.8206 67.5824 43.208 68.5083 43.8311 69.269C44.1885 69.6325 44.666 69.8998 45.0537 70.2463C45.4736 70.6458 45.9278 71.0076 46.411 71.3276Z" fill="#634C3B"/>
<path d="M43.188 50.0255C43.3589 50.0199 43.5298 50.0143 43.7015 50.0007C43.7345 50.8954 44.0675 51.753 44.6468 52.4356C44.2284 53.5898 44.2144 54.9749 44.0435 56.2373C43.8727 57.4998 43.9674 58.9656 43.8198 60.3117C43.6572 61.7459 43.4051 63.1685 43.0649 64.5711C42.8879 65.2612 42.0327 66.6271 41.1616 65.5869C40.8298 65.1735 41.0743 64.3488 41.1734 63.9624C41.4646 62.7861 41.9063 61.6791 42.2018 60.4992C42.5293 59.1769 42.7677 57.8529 42.9953 56.4792C43.2243 55.1852 43.3637 53.877 43.4124 52.5638C43.4425 51.9461 43.4223 51.3269 43.3519 50.7124C43.3231 50.478 43.2681 50.2476 43.188 50.0255Z" fill="#634C3B"/>
<path d="M40.0732 48.6664C40.4324 49.041 40.8458 49.3596 41.2994 49.6117C41.073 49.9761 40.8652 50.3547 40.6049 50.6951C40.2327 51.1312 39.8129 51.5244 39.3533 51.8674C38.4549 52.5944 37.4245 53.1409 36.3186 53.4767C35.3587 53.8287 34.361 54.0677 33.3458 54.1887C32.782 54.2624 32.2088 54.1785 31.6898 53.9463C30.6841 53.4306 31.1128 52.6262 31.8084 52.2727C32.7779 51.7871 33.906 52 34.9963 51.9654C35.9679 51.9401 36.9338 51.8094 37.8771 51.5758C39.1059 51.2402 39.8669 49.9939 40.0732 48.6664Z" fill="#634C3B"/>
<path d="M30.5261 53.7255C30.5737 53.7943 30.6262 53.8596 30.683 53.9211C30.9107 54.2141 31.2045 54.4491 31.5403 54.607C30.9738 55.5585 30.9818 56.8162 30.9711 57.9867C30.9334 59.7158 30.5661 61.4217 29.8889 63.013C29.8348 63.1368 29.6619 63.6409 29.4143 63.4962C29.3225 63.4456 29.2685 63.0139 29.2443 62.9018C29.1538 62.5067 29.0891 62.0983 29.0182 61.7094C28.9102 60.7354 28.9132 59.7524 29.0273 58.7791C29.1071 57.9043 29.2847 57.0411 29.5568 56.2059C29.8253 55.3839 30.0116 54.3867 30.5261 53.7255Z" fill="#634C3B"/>
<path d="M22.3122 37.3779C22.4134 37.8275 22.5992 38.2538 22.8597 38.634C22.3402 38.4807 21.7976 38.4212 21.2572 38.4583C20.3311 38.3949 19.4103 38.2695 18.5009 38.0831C17.9961 37.9912 17.4914 38.0089 16.9803 37.9366C16.4035 37.8173 15.8402 37.6401 15.299 37.4077C14.5323 37.15 13.7801 36.851 13.0457 36.5119C12.8829 36.4513 12.7296 36.3676 12.5905 36.2634C12.5192 36.1745 12.4791 36.1701 12.4711 36.1692C12.4899 36.1596 12.5066 36.1463 12.52 36.13C12.6265 35.8984 13.5575 35.8383 13.8013 35.8326C14.7481 35.7629 15.6983 35.7547 16.6461 35.808C17.7504 35.9178 18.8386 36.1527 19.8899 36.5082C20.4589 36.6801 20.9622 36.9339 21.5064 37.1476C21.7717 37.2051 22.0442 37.2715 22.3122 37.3779Z" fill="#634C3B"/>
<path d="M32.8032 40.389C32.7607 40.4271 32.7161 40.4628 32.6698 40.4961C32.4545 40.6103 32.2268 40.6907 32.0017 40.7836C31.1952 41.0976 30.3241 41.2095 29.4645 41.1096C27.554 40.8961 24.8911 40.5189 23.7354 38.5232C23.606 38.2982 23.4936 38.0669 23.3766 37.8392C23.2597 37.6115 23.0699 37.4569 23.2246 37.3766C23.4817 37.2507 24.5407 37.7236 24.7874 37.8033C25.6637 38.094 26.5266 38.3589 27.4189 38.6149C28.5053 38.9124 30.2435 39.403 31.286 38.8807C31.734 39.4383 32.2429 39.9442 32.8032 40.389Z" fill="#634C3B"/>
<path d="M42.1789 12.3028C42.1996 12.2927 42.2179 12.278 42.2322 12.26C42.2322 12.26 42.2269 12.308 42.2938 12.4005C42.3654 12.5588 42.4139 12.7266 42.4379 12.8988C42.6122 13.6887 42.7412 14.488 42.8241 15.2926C42.9337 15.8714 42.9847 16.4597 42.9762 17.0486C42.936 17.5632 42.8139 18.0485 42.7897 18.5648C42.7767 19.493 42.6996 20.4193 42.5587 21.3369C42.4055 21.8564 42.346 22.399 42.383 22.9394C42.0684 22.6027 41.6925 22.3289 41.2755 22.1328C41.2296 21.848 41.2283 21.5641 41.187 21.2757C41.1007 20.6946 40.9575 20.1518 40.9085 19.5627C40.7907 18.458 40.7987 17.3436 40.9322 16.2407C41.0841 15.3051 41.2965 14.3804 41.5682 13.4724C41.6658 13.2479 41.9297 12.3565 42.1789 12.3028Z" fill="#634C3B"/>
<path d="M42.1083 23.781C43.8152 25.3344 43.6108 28.0122 43.392 29.9343C43.3046 30.7955 43.0065 31.622 42.524 32.3407C42.389 32.5367 42.2567 32.7452 42.103 32.927C42.0585 32.9626 42.0096 33.0019 41.9651 33.0376C41.6393 32.3935 41.2419 31.7882 40.7805 31.2332C41.5162 30.3287 41.4352 28.5156 41.3588 27.4004C41.3165 26.4917 41.2493 25.5883 41.1367 24.6556C41.1123 24.3975 40.8801 23.2612 41.0587 23.0375C41.1618 22.9109 41.292 23.1279 41.4774 23.2861C41.6628 23.4443 41.9167 23.6059 42.1083 23.781Z" fill="#634C3B"/>
<path d="M33.5824 22.3354C33.718 22.5043 33.8757 22.6554 34.0193 22.8252C34.0106 23.0313 33.9485 23.2317 33.839 23.4066C33.7296 23.5815 33.5766 23.725 33.395 23.823C33.0966 23.9521 32.7744 24.0169 32.4493 24.0134C32.1242 24.0099 31.8035 23.9381 31.5079 23.8026C30.757 23.3022 30.1944 22.5657 29.9089 21.7096C29.8682 21.4329 29.8889 21.1505 29.9694 20.8826C30.0499 20.6147 30.1883 20.3678 30.3748 20.1592C31.586 20.6493 32.6794 21.3911 33.5824 22.3354Z" fill="#634C3B"/>
<path d="M24.3655 26.1576C25.1384 26.6225 25.7364 27.3293 26.0667 28.1686C26.1341 28.4874 26.1339 28.8167 26.0661 29.1354C25.9984 29.4541 25.8646 29.755 25.6733 30.0188C25.5383 30.1748 25.3651 30.2931 25.1706 30.3621C24.9761 30.431 24.7671 30.4482 24.5639 30.4121C24.4248 30.2387 24.2893 30.0698 24.1804 29.8795C23.4566 28.792 22.9696 27.5644 22.751 26.2766C22.9949 26.1397 23.266 26.0581 23.545 26.0375C23.824 26.0169 24.1041 26.058 24.3655 26.1576Z" fill="#634C3B"/>
<path d="M56.6975 51.3526C58.9138 52.6677 60.8184 54.4479 62.2799 56.5704C63.6185 58.5124 64.4927 60.7362 64.8351 63.0699C65.1278 65.3927 63.8791 66.7599 62.7376 68.2971C60.9932 69.0829 59.3843 70.0012 57.1757 69.2157C54.971 68.3777 52.9903 67.0407 51.3886 65.3094C49.6297 63.4259 48.3027 61.1815 47.4999 58.7326C47.1387 57.6918 46.8857 56.6166 46.7449 55.5239C46.6711 54.9766 46.6152 54.4515 46.5422 53.8962L46.4991 53.6239C46.6615 53.6529 46.8282 53.6462 46.9878 53.6045C47.6169 53.8138 48.301 53.7849 48.9103 53.5234C49.5641 53.1843 50.1311 52.6993 50.5673 52.106C51.0036 51.5126 51.2975 50.8268 51.4261 50.1016C51.5748 50.0158 51.6983 49.8925 51.7843 49.744C51.8703 49.5954 51.9158 49.4269 51.9163 49.2553L52.1728 49.3564C52.6858 49.5586 53.1952 49.7199 53.7179 49.9069C54.7593 50.2823 55.7581 50.7669 56.6975 51.3526Z" fill="#896E59"/>
<path d="M48.7399 46.4988C49.3186 46.7335 49.8183 47.1287 50.18 47.6378C50.3744 48.1264 50.5171 48.6339 50.6059 49.1522C50.4569 49.5494 50.3551 49.9599 50.2053 50.3651C49.8987 51.1166 49.4047 51.7771 48.7705 52.2836C48.559 52.4485 48.3147 52.5663 48.0541 52.6293C47.7934 52.6924 47.5222 52.6991 47.2587 52.649C46.7 52.235 45.5352 51.8397 45.2856 51.565C44.8641 51.0961 44.5845 50.5171 44.4793 49.8955L44.5372 49.8856C45.3128 49.9983 46.102 49.8074 46.7404 49.3528C47.6971 48.6419 48.3984 47.6408 48.7399 46.4988Z" fill="#634C3B"/>
<path d="M45.0216 40.8083C45.88 41.243 46.6293 41.8656 47.2139 42.6299C47.4727 42.9967 47.6395 43.4205 47.7001 43.8653C47.7607 44.3102 47.7133 44.7631 47.5621 45.1858C47.3432 45.7006 47.2485 46.2596 47.2859 46.8178C46.8379 47.3766 46.3129 47.8692 45.7267 48.2807C45.5371 48.3966 45.3414 48.5024 45.1406 48.5976C44.5945 48.4215 44.0128 48.3856 43.4492 48.4932C43.0033 48.551 42.5501 48.5002 42.1281 48.3452C41.706 48.1902 41.3276 47.9356 41.025 47.6031C40.4057 46.8667 39.9603 46.0003 39.7217 45.0681C39.5258 44.3707 39.4382 43.6473 39.4623 42.9233C39.8916 42.8045 40.2756 42.5599 40.565 42.2212L40.6539 42.1499C41.1121 41.81 41.5513 41.4453 41.9697 41.0575C42.393 40.8539 42.7396 40.5195 42.9581 40.1037C43.6776 40.2331 44.3732 40.4707 45.0216 40.8083Z" fill="#896E59"/>
<path d="M34.5232 23.4805C35.2385 24.4995 35.6799 25.6507 35.3523 26.827C34.9353 28.3382 33.6933 29.4224 32.6561 30.4519C32.5971 30.5052 32.5533 30.5732 32.5291 30.6489C32.4482 30.6572 32.371 30.6864 32.3049 30.7337C31.0893 31.5411 29.7662 32.515 28.1819 32.5805C26.9625 32.6455 25.9343 31.9652 25.0945 31.046C25.4463 31.0521 25.7891 30.9348 26.0633 30.7143C26.3803 30.4011 26.6195 30.018 26.7616 29.5956C26.9036 29.1732 26.9447 28.7233 26.8814 28.2822C26.7658 27.1546 25.8859 26.2676 24.9824 25.5968C24.642 25.3629 24.2557 25.2041 23.8492 25.1308C23.4428 25.0576 23.0254 25.0717 22.6247 25.1721L22.612 24.9923C22.5592 24.1505 22.5678 23.3059 22.6377 22.4652C22.7206 21.9991 22.8955 21.5542 23.1521 21.1563C23.4087 20.7584 23.742 20.4156 24.1324 20.1479C24.8794 19.6699 25.7425 19.4043 26.629 19.3796C27.1676 19.3861 27.7042 19.445 28.2314 19.5553C28.3312 19.5703 28.4353 19.5817 28.5519 19.5904C28.7692 19.6426 28.9776 19.702 29.1788 19.7524L29.3516 19.8038C29.1667 20.1731 29.0626 20.5776 29.046 20.9903C29.0294 21.403 29.1008 21.8145 29.2554 22.1975C29.7188 23.2213 30.3897 24.276 31.4655 24.6332C31.8825 24.7906 32.3305 24.848 32.7736 24.8008C33.2168 24.7536 33.6426 24.6032 34.0171 24.3615C34.2828 24.1354 34.4617 23.824 34.5232 23.4805Z" fill="#896E59"/>
<path d="M37.8542 30.9651C39.0246 31.5548 40.0056 32.4618 40.6851 33.5824C41.5219 34.6453 42.1134 35.88 42.4172 37.1982C42.5006 38.3775 42.1289 39.5439 41.3787 40.4576C41.1031 40.7152 40.8383 40.9862 40.5431 41.2376L40.3831 41.366C40.3236 41.3581 40.2631 41.3684 40.2095 41.3957C39.1481 41.9414 37.9172 42.0576 36.7724 41.7202C35.5513 41.138 34.474 40.2931 33.6177 39.2458C32.671 38.3397 31.9981 37.1855 31.676 35.9151C31.4639 34.9397 31.3176 33.9512 31.2382 32.9561C31.8629 32.5539 32.4439 32.0877 32.9719 31.565C33.0336 31.5106 33.078 31.4394 33.0998 31.3601C33.1802 31.3573 33.258 31.3305 33.3231 31.2832C33.9478 30.881 34.5288 30.4148 35.0568 29.8921C36.0123 30.1866 36.9469 30.545 37.8542 30.9651Z" fill="#634C3B"/>
<g style="mix-blend-mode:multiply" opacity="0.2">
<path d="M33.8544 26.9547C33.3345 27.2913 32.8661 27.7015 32.464 28.1726C30.7147 28.6336 28.7996 29.5345 27.3838 27.9157C26.6572 27.0369 26.0692 26.0523 25.6402 24.9959C25.4035 24.4551 25.1668 23.8777 24.971 23.2968C24.7432 22.8111 24.5894 22.2941 24.5148 21.7629C24.5419 21.5164 24.4699 21.2692 24.3147 21.0758C24.1595 20.8824 23.9338 20.7586 23.6873 20.7315C23.4408 20.7045 23.1937 20.7765 23.0002 20.9317C22.8068 21.0869 22.683 21.3126 22.656 21.5591C22.4981 22.3679 22.523 23.2017 22.729 23.9997C22.3491 25.1519 22.3843 26.4007 22.8284 27.5297C23.1961 28.8162 23.7362 30.047 24.4342 31.1885C25.8784 33.2888 28.7346 33.1966 30.9536 32.483C30.9138 32.5427 30.8785 32.6052 30.8479 32.6701C30.3049 33.8877 30.7135 35.7448 31.1781 36.9431C31.6646 38.2518 32.4614 39.423 33.5001 40.356C34.5152 41.266 35.5001 42.12 36.9129 42.287C38.0658 42.4215 39.4815 42.6741 40.2952 41.5389C40.4378 41.3289 40.5319 41.0897 40.5706 40.8388C40.6094 40.5879 40.5917 40.3316 40.519 40.0883C40.4463 39.8451 40.3203 39.6211 40.1502 39.4326C39.9802 39.2442 39.7703 39.0959 39.5358 38.9987C37.9147 38.2898 36.627 36.6485 35.7383 35.1767C35.2949 34.451 34.9679 33.661 34.5325 32.9362C34.095 32.2371 33.6993 31.5127 33.3473 30.7669C33.6316 30.5407 33.8689 30.2609 34.0457 29.9435C34.1336 29.7763 34.188 29.5936 34.206 29.4056C34.6322 28.9631 34.9012 28.3929 34.9718 27.7827C34.9842 27.6436 34.9607 27.5037 34.9035 27.3764C34.8463 27.249 34.7574 27.1385 34.6453 27.0554C34.5331 26.9723 34.4015 26.9194 34.263 26.9018C34.1245 26.8841 33.9838 26.9024 33.8544 26.9547Z" fill="#88524C"/>
</g>
<g style="mix-blend-mode:multiply" opacity="0.2">
<path d="M32.6292 26.0379C31.3824 25.0225 30.3497 23.7696 29.5912 22.3519C29.5586 22.2762 29.4973 22.2167 29.4208 22.1862C29.3443 22.1558 29.2589 22.157 29.1833 22.1896C29.1076 22.2221 29.0481 22.2834 29.0176 22.3599C28.9872 22.4364 28.9884 22.5219 29.021 22.5975C29.6465 24.2878 30.0984 26.5267 32.1045 27.0142C32.2283 27.0468 32.3595 27.0367 32.4769 26.9857C32.5943 26.9346 32.691 26.8456 32.7516 26.7328C32.8122 26.6201 32.8331 26.4902 32.8109 26.3641C32.7887 26.238 32.7246 26.1231 32.6292 26.0379Z" fill="#88524C"/>
</g>
<g style="mix-blend-mode:multiply" opacity="0.2">
<path d="M62.7635 66.5444C62.2583 66.1606 61.6819 65.8703 61.1776 65.4785C60.5226 64.981 59.8943 64.4621 59.2775 63.912C58.1305 62.8043 57.0934 61.5881 56.1809 60.2804C55.1546 58.9121 54.2188 57.4782 53.3796 55.9878C52.5452 54.4652 51.8174 52.8569 50.094 52.1936C50.0344 52.1751 49.9711 52.1716 49.9098 52.1833C49.8484 52.1949 49.7909 52.2215 49.7422 52.2606C49.6935 52.2996 49.6551 52.3501 49.6304 52.4074C49.6057 52.4648 49.5955 52.5273 49.6006 52.5895C49.5783 52.5661 49.558 52.5408 49.5399 52.5139C49.482 52.1403 49.3463 51.7831 49.1416 51.4652C48.9369 51.1473 48.6678 50.876 48.3516 50.6687C48.0914 50.4536 47.1755 49.8951 47.1705 49.4972C47.1822 49.3175 47.153 49.1374 47.0851 48.9706C47.0172 48.8038 46.9123 48.6545 46.7784 48.5341C46.6444 48.4136 46.4849 48.3251 46.3119 48.2752C46.1388 48.2253 45.9567 48.2153 45.7792 48.2459C45.8262 47.9976 45.7918 47.7407 45.6811 47.5135C45.15 46.4782 44.0137 46.1185 43.2461 45.3167C42.8522 44.8994 42.5189 44.4289 42.256 43.9189C42.1623 43.7383 42.0908 43.5399 41.9891 43.3585C41.8873 43.177 41.481 42.8527 41.4433 42.6783C41.4107 42.4565 41.2912 42.2567 41.1112 42.1229C40.9312 41.9891 40.7055 41.9323 40.4836 41.9649C40.2618 41.9976 40.062 42.1171 39.9282 42.2971C39.7944 42.477 39.7376 42.7028 39.7703 42.9246C39.7955 43.1747 39.609 43.4705 39.5649 43.7252C39.5032 44.1389 39.494 44.5588 39.5374 44.9749C39.6908 45.8795 40.0603 46.7337 40.6145 47.4648C41.5775 48.6651 43.2182 50.0086 44.8142 49.3929C44.6591 49.9752 44.6429 50.5858 44.767 51.1754C44.8911 51.7651 45.152 52.3173 45.5286 52.7877C45.7712 53.1021 46.0668 53.3719 46.402 53.5849C46.239 54.3778 46.3257 55.2017 46.6503 55.9433C46.5649 56.7374 46.5819 57.5391 46.7009 58.3288C46.9892 60.1582 47.7209 61.8893 48.8321 63.3709C49.9255 64.8131 51.1446 66.1556 52.4749 67.3827C53.1122 67.9675 53.7895 68.5202 54.4543 69.039C55.2261 69.6547 56.1473 70.2382 57.1688 69.9813C57.4607 69.9058 57.7237 69.7456 57.9247 69.5208C58.2462 69.6575 58.5767 69.7869 58.9168 69.9013C59.8765 70.2737 60.912 70.4081 61.9349 70.293C62.3594 70.2523 62.7601 70.0781 63.0795 69.7955C63.3989 69.5129 63.6205 69.1364 63.7125 68.72C63.8045 68.3036 63.7623 67.8688 63.5918 67.4779C63.4213 67.087 63.1313 66.7602 62.7635 66.5444Z" fill="#88524C"/>
</g>
<g style="mix-blend-mode:multiply" opacity="0.2">
<path d="M43.0361 56.3661C42.707 57.7774 42.6192 59.207 42.3827 60.6245C42.1674 61.9226 42.1124 63.2747 41.5899 64.4905C41.4045 64.9243 42.0778 65.1806 42.2668 64.7512C42.7992 63.5933 42.8827 62.2767 43.1061 61.016C43.4201 59.5069 43.5952 57.9721 43.629 56.4311C43.6376 56.3524 43.6147 56.2736 43.5652 56.2119C43.5157 56.1502 43.4437 56.1107 43.3651 56.1021C43.2864 56.0935 43.2076 56.1165 43.1459 56.166C43.0842 56.2155 43.0447 56.2874 43.0361 56.3661Z" fill="#88524C"/>
</g>
<g style="mix-blend-mode:multiply" opacity="0.2">
<path d="M38.0428 51.6913C36.2286 51.5978 34.7164 52.8551 32.9901 53.2537C32.7276 53.3182 32.6776 53.7749 33.0024 53.7699C34.8503 53.8639 36.6846 53.4091 38.2745 52.4627C38.3426 52.4089 38.393 52.3358 38.419 52.253C38.4451 52.1702 38.4457 52.0814 38.4207 51.9983C38.3958 51.9151 38.3464 51.8414 38.279 51.7867C38.2116 51.7319 38.1293 51.6987 38.0428 51.6913Z" fill="#88524C"/>
</g>
<g style="mix-blend-mode:multiply" opacity="0.2">
<path d="M29.8139 56.7814C29.4406 57.5477 29.2615 58.3941 29.2924 59.246C29.3099 60.055 29.496 60.8515 29.8387 61.5845C29.8725 61.6488 29.9252 61.7012 29.9898 61.7345C30.0543 61.7678 30.1276 61.7804 30.1996 61.7706C30.2716 61.7608 30.3388 61.729 30.3921 61.6796C30.4453 61.6302 30.4821 61.5655 30.4973 61.4945C30.6065 60.7199 30.7301 59.9631 30.7797 59.178C30.8139 58.4177 30.8053 57.656 30.7541 56.8966C30.7444 56.3564 30.0074 56.385 29.8139 56.7814Z" fill="#88524C"/>
</g>
<g style="mix-blend-mode:multiply" opacity="0.2">
<path d="M54.7865 34.873C54.4878 35.371 54.2325 35.8937 54.0232 36.4354C53.6448 37.2586 53.2133 38.0564 52.7316 38.8237C52.2973 39.5302 51.8399 40.226 51.3941 40.9272C50.8941 41.7157 50.2216 42.5988 49.2721 42.7907C49.2099 42.8073 49.1559 42.8463 49.1206 42.9002C49.0853 42.9541 49.0711 43.0191 49.0806 43.0828C49.0902 43.1465 49.1229 43.2045 49.1724 43.2457C49.222 43.2868 49.285 43.3083 49.3494 43.3059C51.3041 43.2648 52.3247 41.2036 53.2875 39.7807C53.8616 38.9492 54.3893 38.0867 54.8682 37.197C55.1913 36.5797 55.7295 35.7751 55.6929 35.0738C55.6787 34.9739 55.6343 34.8807 55.5658 34.8067C55.4972 34.7327 55.4077 34.6813 55.3092 34.6595C55.2107 34.6377 55.1079 34.6464 55.0145 34.6846C54.9211 34.7227 54.8415 34.7885 54.7865 34.873Z" fill="#88524C"/>
</g>
<g style="mix-blend-mode:multiply" opacity="0.2">
<path d="M61.8765 34.4016C61.2091 33.9433 60.3067 34.0754 59.542 33.9875C59.1059 33.927 58.664 33.9208 58.2263 33.969C57.7164 34.0347 57.302 34.3015 56.8072 34.377C56.7538 34.3882 56.7061 34.4177 56.6722 34.4605C56.6383 34.5032 56.6205 34.5564 56.6217 34.6109C56.623 34.6654 56.6432 34.7178 56.679 34.759C56.7148 34.8001 56.7638 34.8274 56.8176 34.8362C57.2102 34.8793 57.5795 34.7657 57.9739 34.7927C58.3682 34.8197 58.8596 34.8128 59.3163 34.8994C60.0719 35.0277 60.8378 35.0859 61.6042 35.0732C61.9602 35.0798 62.2195 34.6379 61.8765 34.4016Z" fill="#88524C"/>
</g>
<g style="mix-blend-mode:multiply" opacity="0.2">
<path d="M41.8572 25.5171C41.4811 26.4327 41.6037 27.4962 41.5615 28.4727C41.5391 28.973 41.5736 29.4714 41.5797 29.9708C41.5891 30.2921 41.7474 30.8446 41.5288 31.1004C41.3102 31.3562 41.6356 31.6797 41.9034 31.5672C42.7743 31.2045 42.8411 30.0036 42.9325 29.2069C43.1123 27.9738 43.3649 26.6676 42.8915 25.5129C42.8454 25.4144 42.7721 25.3312 42.6802 25.273C42.5883 25.2148 42.4818 25.1842 42.373 25.1846C42.2643 25.185 42.1579 25.2166 42.0665 25.2755C41.9751 25.3344 41.9025 25.4182 41.8572 25.5171Z" fill="#88524C"/>
</g>
<g style="mix-blend-mode:multiply" opacity="0.2">
<path d="M41.6842 14.8919C41.5702 16.116 41.3165 17.3207 41.207 18.5412C41.1498 19.7548 41.1804 20.9708 41.2987 22.1799C41.3442 22.8742 42.2768 22.725 42.4033 22.1632C42.6185 20.9401 42.6896 19.696 42.6151 18.4564C42.7018 17.2619 42.6484 16.0613 42.4559 14.8793C42.3547 14.4708 41.7271 14.4263 41.6842 14.8919Z" fill="#88524C"/>
</g>
<g style="mix-blend-mode:multiply" opacity="0.2">
<path d="M61.2859 46.9621C60.1323 46.9816 59.0098 46.9031 57.8624 46.8665C56.7149 46.8299 55.7347 46.7102 54.656 46.7501C53.5772 46.7899 52.6801 46.874 51.6521 46.9681C51.2944 47.014 51.289 47.6175 51.6584 47.6134C53.5879 47.6378 55.5146 47.7651 57.4305 47.9949C58.4089 48.094 59.4221 48.2457 60.4004 48.2718C61.2465 48.3749 62.0984 48.4236 62.9508 48.4177C63.0316 48.4016 63.1079 48.3682 63.1746 48.3198C63.2412 48.2713 63.2966 48.209 63.3369 48.1371C63.3771 48.0652 63.4013 47.9855 63.4078 47.9033C63.4142 47.8212 63.4028 47.7386 63.3743 47.6613C63.0661 46.9586 61.9882 46.9539 61.2859 46.9621Z" fill="#88524C"/>
</g>
<path opacity="0.2" d="M30.2827 21.0735C29.0407 20.236 27.835 19.9173 26.4876 20.7426C24.9749 21.6714 26.3581 24.1057 27.9223 23.669C28.1703 23.9034 28.4319 24.123 28.7057 24.3265C29.2866 24.8719 29.8155 25.4701 30.2856 26.1134C31.1954 27.4294 33.1192 26.3389 32.9898 24.93C32.8048 23.1786 31.7101 22.0328 30.2827 21.0735Z" fill="white"/>
<path opacity="0.2" d="M37.1306 31.6115C36.7922 31.3804 36.3781 31.2879 35.9735 31.3529C35.5689 31.4179 35.2047 31.6355 34.9557 31.9609C34.7176 32.297 34.6208 32.7131 34.6861 33.1197C34.7515 33.5264 34.9737 33.8913 35.3051 34.1359C36.3163 34.786 36.8744 35.9824 37.6812 36.8695C37.9442 37.1973 38.3267 37.4071 38.7444 37.4529C39.1621 37.4987 39.5809 37.3767 39.9087 37.1137C40.2364 36.8507 40.4463 36.4683 40.4921 36.0506C40.5379 35.6329 40.4159 35.2141 40.1529 34.8863C39.3313 33.6529 38.4606 32.3492 37.1306 31.6115Z" fill="white"/>
<path opacity="0.2" d="M44.5946 41.0048C44.2782 40.7106 43.944 40.4307 43.632 40.133C43.4237 39.8894 43.1305 39.7343 42.8119 39.6994C42.4933 39.6645 42.1734 39.7523 41.9173 39.945C41.6676 40.1492 41.508 40.4432 41.4729 40.7639C41.4377 41.0845 41.5298 41.4062 41.7294 41.6596C42.3483 42.457 43.0653 43.1731 43.8634 43.791C44.0657 43.9553 44.3181 44.0453 44.5787 44.046C44.8392 44.0468 45.0922 43.9583 45.2954 43.7952C45.4986 43.6321 45.6398 43.4044 45.6956 43.1498C45.7513 42.8953 45.7181 42.6294 45.6016 42.3963C45.3768 41.8615 45.0323 41.3855 44.5946 41.0048Z" fill="white"/>
<path opacity="0.2" d="M57.8487 55.2007C56.2174 53.5866 54.5827 52.0411 52.9781 50.4421C52.7388 50.162 52.4016 49.9838 52.0354 49.9436C51.6692 49.9035 51.3014 50.0044 51.0071 50.226C50.7184 50.4596 50.5336 50.7978 50.4932 51.167C50.4527 51.5362 50.5597 51.9064 50.791 52.197C52.3466 53.8352 53.8801 55.4913 55.3548 57.2018C56.8296 58.9122 58.1383 60.9166 59.9774 62.2616C60.2415 62.4387 60.5553 62.5269 60.873 62.5133C61.1907 62.4998 61.4957 62.3851 61.7437 62.1861C61.9918 61.9871 62.1698 61.7141 62.2519 61.4069C62.334 61.0997 62.3158 60.7743 62.2001 60.4781C61.2714 58.3734 59.4648 56.805 57.8487 55.2007Z" fill="white"/>
<path d="M77.6239 34.6199C77.9426 34.6346 78.0545 35.0928 77.7324 35.1467C75.4003 35.4722 73.0419 35.5681 70.691 35.4329C69.6733 35.481 68.6537 35.472 67.637 35.4062C67.1865 35.3365 66.672 35.3328 66.2384 35.2204C66.1979 35.2126 66.1584 35.2001 66.1208 35.1832C66.0646 35.3043 65.9812 35.4107 65.8771 35.4943C65.773 35.5778 65.651 35.6361 65.5207 35.6647C65.0548 35.7289 64.5843 35.752 64.1144 35.7336C63.5742 35.7797 63.042 35.8633 62.5089 35.9184C61.5151 35.9659 60.5195 35.8772 59.5497 35.6547C58.5106 35.4435 57.2277 35.2745 56.3106 35.6888C56.281 35.7024 56.25 35.7126 56.2181 35.7192C56.116 37.0946 55.2093 38.5602 54.7023 39.4493C54.1061 40.5227 53.358 41.5044 52.4812 42.3641C52.0725 42.7632 51.6259 43.1216 51.1476 43.4342C50.5524 43.7455 49.9338 44.0098 49.2973 44.2246C49.3005 44.2448 49.2996 44.2653 49.2947 44.2851C49.2909 44.4007 49.281 44.516 49.265 44.6306C50.0084 44.7648 50.7615 44.8109 51.4934 44.9397C52.8075 45.153 54.1335 45.2848 55.4639 45.3345C56.7743 45.4011 58.0705 45.523 59.3718 45.5238C60.5272 45.5247 61.6521 45.3967 62.7968 45.3479C63.5672 45.2428 64.3513 45.3797 65.0404 45.7398C65.2441 45.8874 65.4153 46.0751 65.5436 46.2914C65.6719 46.5077 65.7546 46.7479 65.7864 46.9974C68.2894 47.6124 69.7894 50.1648 70.7746 52.4946C71.3821 53.9802 71.8178 55.516 72.4279 57.014C72.7701 57.8502 73.1896 58.6463 73.5611 59.4736C73.7985 59.8757 73.8833 60.3498 73.7998 60.8093C73.767 60.917 73.7133 61.0172 73.6418 61.1041C73.9735 61.5176 74.2225 61.9827 74.556 62.4166C75.0461 63.0166 75.5775 63.5816 76.1465 64.1073C77.4111 65.2744 78.7959 66.3042 80.2776 67.1794C81.6942 68.0888 83.1356 68.9198 84.6108 69.7019C85.9796 70.4823 87.3997 71.169 88.8614 71.7572C89.2275 71.8947 89.101 72.42 88.7529 72.3778C87.2207 72.1895 85.5913 71.2608 84.1643 70.557C82.6914 69.8132 81.262 68.9865 79.8828 68.0807C77.119 66.2938 74.6077 64.2386 73.027 61.2759C72.6291 61.1522 72.2587 60.9533 71.9357 60.6901C70.7747 59.8532 70.2158 58.7379 69.7092 57.4052C69.1525 55.9373 68.9945 54.4199 68.3925 52.9592C68.0994 52.2297 67.6267 51.5494 67.2794 50.8343C66.7628 49.9781 65.9435 49.3471 64.9838 49.0663C64.9207 49.0473 64.8619 49.016 64.8108 48.9742C64.7597 48.9324 64.7174 48.881 64.6862 48.8228C64.3756 48.9253 64.0493 48.9719 63.7224 48.9604C62.599 48.9264 61.4175 48.7199 60.2825 48.6076C58.7815 48.4674 57.2724 48.2533 55.7787 48.1584C54.4098 47.9813 53.0279 47.9262 51.6492 47.9935C52.2493 48.0978 52.8416 48.2427 53.422 48.4271C54.6906 48.7581 55.9107 49.2531 57.0514 49.8994C59.7374 51.3613 62.0384 53.4393 63.7655 55.9629C65.3142 58.2937 66.4708 61.0193 66.6047 63.718C66.7011 65.0452 66.3567 66.367 65.6248 67.4784C64.6005 69.0505 63.1006 70.254 61.3439 70.9134C60.1004 71.387 58.7353 71.4369 57.4605 71.0552C54.8594 70.3362 52.4491 68.6165 50.5093 66.5996C48.4165 64.3699 46.8845 61.6739 46.0401 58.7347C45.6563 57.4811 45.4375 56.1828 45.3892 54.8726C45.3371 54.2658 45.3241 53.6563 45.35 53.0479C44.9874 54.3796 44.7418 55.7405 44.6162 57.115C44.3852 58.5939 44.2672 60.1135 44.0834 61.6056C43.947 62.738 43.8954 63.9486 43.678 65.0438C43.6186 65.3637 43.504 65.6708 43.3393 65.9513C43.4391 66.0402 43.4997 66.1649 43.5081 66.2982C43.5743 67.296 44.0128 68.2325 44.7367 68.9223C45.3596 69.4163 45.9257 70.0217 46.5699 70.4693C47.8655 71.3736 49.3126 71.8566 50.6295 72.7145C51.8128 73.3734 52.763 74.3826 53.3494 75.6035C53.5364 75.9758 53.6503 76.3805 53.685 76.7958C56.2481 78.9701 57.697 81.8778 58.8426 84.9631C59.4305 86.5049 59.928 88.0797 60.3324 89.6795C60.7103 91.2251 61.2684 93.0134 61.1157 94.5535C61.0815 94.9025 60.5412 94.9122 60.4864 94.5251C60.2313 92.9701 59.8686 91.4348 59.4009 89.9301C58.957 88.3205 58.458 86.7332 57.8771 85.1532C57.3428 83.5171 56.6391 81.9412 55.7776 80.4511C55.3837 79.7843 54.9459 79.1445 54.4672 78.5357C54.1105 78.0911 53.7246 77.765 53.384 77.3588C53.2837 77.4098 53.1742 77.4405 53.0619 77.4491C52.5964 77.4262 52.1535 77.2414 51.8097 76.9267C51.0825 76.3847 50.4007 75.7992 49.6541 75.2875C48.3345 74.3806 46.9297 73.6225 45.6003 72.6943C43.5402 71.2562 41.3689 69.2423 41.3144 66.6335C41.0778 66.5483 40.8611 66.4156 40.6778 66.2435C40.4944 66.0714 40.3483 65.8635 40.2484 65.6327C40.0462 64.8819 40.0823 64.0868 40.3519 63.3574C40.6476 62.2506 41.0207 61.1765 41.2657 60.052C41.5513 58.7778 41.7204 57.4949 41.9276 56.1959C42.1674 54.8863 42.326 53.5633 42.4025 52.2342C42.4282 51.4829 42.5499 50.7421 42.5835 49.9917C42.4683 49.9825 42.3535 49.9672 42.2399 49.9459L42.1847 49.9317C41.8349 50.5073 41.4414 51.0551 41.0076 51.5704C40.5989 51.9695 40.1522 52.3279 39.674 52.6405C38.6448 53.3101 37.5243 53.8277 36.3472 54.1772C35.3694 54.4795 33.7422 55.0471 32.3774 54.8488C32.364 54.8785 32.3473 54.9066 32.3276 54.9325C31.7289 55.7345 31.6115 57.0271 31.5925 58.0873C31.5996 59.0822 31.4705 60.0734 31.2087 61.0333C31.0582 61.556 30.8497 62.0521 30.6804 62.5606C30.5966 63.0233 30.4722 63.4777 30.3086 63.9186C30.2524 64.0396 30.169 64.1461 30.0649 64.2296C29.9608 64.3132 29.8388 64.3715 29.7084 64.4001C29.7168 64.4405 29.7204 64.4817 29.7193 64.5229C29.7351 64.9706 29.6272 65.4737 29.5976 65.9286C29.4434 66.9358 29.2311 67.9332 28.962 68.9159C28.5846 71.2402 27.98 73.5218 27.1569 75.7279C27.039 76.0272 26.6114 75.8222 26.6706 75.5043C26.8711 74.4154 26.9843 73.3453 27.2632 72.2812C27.542 71.2171 27.7151 70.2671 27.9361 69.2494C28.1572 68.2317 28.4326 67.2361 28.6652 66.2237C28.7511 65.5168 28.8821 64.8162 29.0574 64.126C28.5822 63.6158 28.5148 62.6029 28.4277 62.0298C28.2776 60.9058 28.2676 59.7676 28.3978 58.6412C28.4964 57.665 28.7052 56.7032 29.0203 55.7741C29.3065 54.9013 29.5775 53.9093 30.311 53.3573L30.3643 53.3145C29.787 51.7389 32.4456 51.0087 33.5475 50.9065C34.7926 50.7917 36.0359 50.6928 37.2658 50.4952C38.7608 50.2456 39.1153 49.1573 39.4508 47.8724C38.8324 46.9246 38.4308 45.852 38.2748 44.7311C38.21 44.1717 38.2026 43.6071 38.2528 43.0461C37.8312 43.0464 37.4107 43.0044 36.9975 42.9207C35.7285 42.5529 34.5625 41.8948 33.5918 40.9985C32.848 41.4349 32.0225 41.7143 31.1665 41.8192C30.0121 41.8471 28.8577 41.7653 27.7187 41.575C26.4441 41.4027 25.2351 40.9058 24.2078 40.1319C23.8934 39.8584 23.6034 39.558 23.3413 39.2341C23.3047 39.2711 23.2581 39.2967 23.2072 39.3077C23.1563 39.3187 23.1033 39.3146 23.0547 39.2959C22.3262 39.0255 21.5948 39.1886 20.8745 39.1015C20.3618 39.0453 19.8471 38.9321 19.3343 38.8759C18.1598 38.8128 16.9966 38.6132 15.8682 38.281C14.8494 37.922 13.8644 37.5504 12.8668 37.1451C12.4029 37.0027 11.9885 36.7324 11.6712 36.3653C11.0992 36.6269 10.2863 36.4608 9.65972 36.5178C8.61481 36.5816 7.58944 36.6151 6.52659 36.5838C5.46374 36.5524 4.35989 36.4881 3.2757 36.4665C2.41535 36.4945 1.55579 36.3907 0.726834 36.1587C0.456995 36.0683 0.485717 35.6214 0.745626 35.6175C2.65463 35.6105 4.56839 35.6096 6.4869 35.6145C8.16122 35.6156 9.89741 35.3113 11.5927 35.6756C11.8207 35.1492 12.7658 34.9974 13.2232 34.93C14.361 34.8073 15.5083 34.8 16.6475 34.9081C17.935 35.0522 19.196 35.376 20.3936 35.8702C21.0789 36.1046 21.7371 36.4119 22.3568 36.7868C22.5766 36.15 23.6604 36.4716 24.2721 36.6238C25.5669 36.9806 26.843 37.4327 28.1262 37.7842C28.8391 38.0227 29.5925 38.1163 30.3421 38.0596C30.4827 38.0345 30.6126 37.996 30.7461 37.962C30.435 37.3599 30.2174 36.7141 30.1006 36.0465C29.9339 35.2553 29.8714 34.4456 29.9147 33.6381C29.3146 33.8911 28.6685 34.0163 28.0175 34.0058C26.0654 33.9499 24.4326 32.5343 23.3477 30.818C22.1977 29.0399 21.6214 26.9515 21.6967 24.8352C21.7175 24.4239 21.7453 23.9851 21.791 23.5319C20.8966 23.665 19.76 23.1228 19.0044 22.5818C17.7489 21.6819 17.8831 20.2736 17.8456 18.9883C17.7946 17.5677 17.7825 15.3852 16.6832 14.2065C16.0798 13.6144 15.3598 13.1544 14.569 12.8557C13.9485 12.6932 13.3618 12.4216 12.8365 12.0535C12.6974 11.8802 12.7745 11.5845 12.9998 11.7106C13.5344 12.0125 14.1487 12.1406 14.6965 12.3953C15.2579 12.6402 15.7887 12.9501 16.2778 13.3187C17.1124 13.9736 17.726 14.8687 18.036 15.8833C18.2756 16.6004 18.4717 17.3313 18.6231 18.0721C18.7389 18.7538 18.7408 19.4392 18.8967 20.1252C19.2453 21.7162 20.6832 22.0239 21.9284 22.5375C21.9764 22.2338 22.0459 21.9338 22.1363 21.6399C22.3465 20.7133 22.9058 19.9034 23.6978 19.3785C23.9921 19.192 24.3041 19.0347 24.6291 18.909C25.3013 18.6239 26.0293 18.4944 26.7586 18.5302C26.678 18.193 26.6392 17.8441 26.5773 17.5211C26.5742 17.1934 26.5225 16.868 26.4237 16.5556C26.2238 16.1971 25.7661 16.1186 25.4429 16.0345C24.1739 15.6881 22.9819 15.1049 21.9298 14.3154C19.6272 12.575 20.2123 9.71601 20.4243 7.41207C20.4383 7.24738 20.6849 7.29064 20.6825 7.46066C20.6465 8.92242 20.7858 10.3832 21.0974 11.8119C21.4958 13.3921 23.3313 14.0677 24.6485 14.5527C25.5685 14.8887 26.927 14.9971 27.379 16.0886C27.6232 16.8955 27.7094 17.742 27.6328 18.5815C28.1705 18.6323 28.6922 18.7179 29.173 18.8071C31.2563 19.1906 33.1718 20.2044 34.6604 21.7116C36.0964 23.1462 37.1246 25.0469 36.7562 26.9647C36.6266 27.603 36.3643 28.2069 35.9862 28.7372C36.7823 28.8661 37.5583 29.0984 38.2944 29.4281C38.922 29.6844 39.5057 30.037 40.0245 30.4733C40.0866 30.3503 40.1568 30.2283 40.2073 30.1C40.4271 29.3809 40.499 28.6247 40.4186 27.8771C40.3713 26.534 40.2064 25.1901 40.1208 23.8631C40.0896 23.2231 40.0123 22.116 40.6905 22.0322C40.4587 21.346 40.3013 20.6369 40.221 19.917C39.9981 18.6408 39.9552 17.3396 40.0934 16.0514C40.2347 14.9158 40.4905 13.7974 40.8567 12.7133C41.0217 12.2813 41.3746 11.3916 41.9424 11.2795C41.9585 9.54193 42.6273 7.91651 42.989 6.28172C43.3969 4.41009 43.8111 2.54319 44.2315 0.681039C44.2925 0.420145 44.7341 0.496946 44.7639 0.779962C44.8128 1.63953 44.7278 2.50147 44.5122 3.33497C44.3028 4.39452 44.1361 5.47093 43.9222 6.53404C43.7084 7.59716 43.4677 8.57219 43.179 9.57845C43.008 10.176 42.9808 11.0163 42.5943 11.5091C42.8839 11.8984 43.058 12.3615 43.0965 12.8453C43.276 13.907 43.412 14.9598 43.5551 16.0215C43.637 17.195 43.5799 18.3741 43.3848 19.5341C43.3322 20.0514 43.3312 20.5783 43.2758 21.0831C43.2003 21.8087 42.8826 22.4874 42.9932 23.2536C43.0005 23.3061 42.9923 23.3595 42.9698 23.4074C42.9473 23.4553 42.9113 23.4956 42.8663 23.5235C43.128 23.848 43.3586 24.1963 43.555 24.564C44.0869 25.7337 44.3115 27.0198 44.2076 28.3006C44.1427 29.4534 43.9725 30.5978 43.699 31.7194C43.4103 32.5341 42.9572 33.2807 42.3679 33.9128C43.0374 35.0526 43.4276 36.3347 43.5064 37.6542C43.4986 38.0756 43.4485 38.4953 43.3569 38.9068C43.9163 38.9804 44.4672 39.1087 45.0015 39.2898C46.0596 39.6889 47.0177 40.3143 47.809 41.122C49.1316 41.0765 50.2797 40.9591 50.8429 39.5572C51.3023 38.3994 51.6682 37.207 52.0501 36.0164C52.3975 34.9557 53.6828 32.514 55.0905 33.4306L55.1439 33.3878C55.8418 32.7913 56.8653 32.7373 57.7874 32.6478C58.7627 32.5413 59.7469 32.5458 60.7212 32.6613C61.8504 32.7771 62.9609 33.0323 64.0274 33.4211C64.568 33.6304 65.5422 33.9156 65.9373 34.4901C66.6477 34.4697 67.3586 34.4949 68.0657 34.5653C69.1045 34.5576 70.1352 34.5124 71.1775 34.5091C72.2198 34.5058 73.2489 34.5497 74.2831 34.5091C75.3174 34.4684 76.5174 34.5797 77.6239 34.6199ZM65.2727 34.7091C65.2388 34.6121 64.8291 34.4659 64.7249 34.418C64.3588 34.244 63.974 34.0924 63.6097 33.9389C62.6834 33.6234 61.7247 33.4122 60.7515 33.3093C59.8785 33.2006 58.9961 33.1881 58.1203 33.2722C57.2232 33.2635 56.3309 33.4041 55.4799 33.6882C55.5367 33.7496 55.5892 33.815 55.6368 33.8838C55.8736 34.1695 56.0394 34.5072 56.1207 34.8693C57.1724 34.5224 58.3985 34.8028 59.5435 35.0459C61.2397 35.3832 62.9846 35.3942 64.6849 35.0785C64.8397 35.0346 65.3737 34.9716 65.2861 34.6984L65.2727 34.7091ZM42.226 12.2796C42.2117 12.2977 42.1934 12.3123 42.1727 12.3224C41.9235 12.3761 41.6631 13.272 41.6047 13.5088C41.3331 14.4169 41.1206 15.3416 40.9687 16.2771C40.8352 17.38 40.8273 18.4945 40.9451 19.5991C40.994 20.1883 41.1283 20.7382 41.2235 21.3122C41.2649 21.6005 41.2662 21.8845 41.312 22.1692C41.7291 22.3654 42.1049 22.6391 42.4196 22.9759C42.3825 22.4355 42.442 21.8929 42.5953 21.3734C42.7361 20.4558 42.8133 19.5295 42.8262 18.6012C42.8504 18.0849 42.9726 17.5996 43.0127 17.0851C43.0213 16.4961 42.9703 15.9078 42.8607 15.3291C42.7777 14.5244 42.6487 13.7251 42.4744 12.9352C42.4505 12.7631 42.4019 12.5953 42.3304 12.437C42.2376 12.3214 42.2376 12.2849 42.2429 12.2733L42.226 12.2796ZM70.44 53.735C69.6407 51.2999 68.32 48.4063 65.811 47.4014C65.8055 47.5706 65.7748 47.7381 65.7201 47.8983C65.6557 48.0816 65.5544 48.2499 65.4226 48.3927C66.3545 48.7063 67.1745 49.2852 67.7821 50.0583C68.064 50.4824 68.2169 51.0101 68.4713 51.4637C68.7746 51.964 69.033 52.4903 69.2435 53.0363C70.0747 55.3654 70.1213 58.6383 72.4218 60.1757C72.69 60.3551 72.8185 60.5882 72.973 60.3254C73.1275 60.0626 72.7057 59.473 72.5619 59.1937C72.2486 58.5756 71.9896 57.9431 71.7234 57.3017C71.2321 56.1248 70.8245 54.9246 70.44 53.735ZM55.4283 34.8988C55.1427 33.8052 54.2645 34.0495 53.7687 34.652C53.0845 35.4932 53.0479 36.6407 52.778 37.6976C52.5441 38.641 52.2072 39.5558 51.7735 40.4255C51.2018 41.5346 49.7997 42.0093 48.4662 41.932C48.7503 42.3666 48.9701 42.8399 49.1189 43.3374C49.5281 43.1917 49.9383 43.0745 50.327 42.8942C50.8335 42.6252 51.3083 42.3006 51.7427 41.9263C52.6486 41.2056 53.4068 40.3169 53.9758 39.3088C54.5249 38.4484 54.9728 37.5275 55.3105 36.5644C55.5025 36.0306 55.5432 35.4542 55.4283 34.8988ZM64.7667 46.6464C64.435 46.2329 63.5725 46.2965 63.1782 46.306C61.9668 46.3353 60.7859 46.5302 59.5745 46.5596C58.2082 46.5963 56.8641 46.5421 55.4736 46.4667C54.1607 46.4099 52.8534 46.2625 51.5609 46.0256C50.9513 45.9211 50.3512 45.7672 49.7666 45.5653C49.5464 45.4852 49.3349 45.3833 49.1351 45.2609C49.097 45.423 49.0545 45.5886 49.004 45.7534C49.8692 45.9813 50.6327 46.4933 51.1718 47.2073L51.194 47.1895C52.4115 47.0311 53.7667 47.3175 55.0139 47.4421C56.2612 47.5667 57.6939 47.9589 59.04 48.1065C60.4753 48.2585 61.9187 48.3207 63.3618 48.2925C64.057 48.2754 65.5934 47.7222 64.7667 46.6464ZM43.4008 29.9272C43.6108 28.0122 43.8152 25.3344 42.1172 23.7738C41.9256 23.5988 41.7242 23.4389 41.5272 23.2754C41.3303 23.1119 41.2205 22.893 41.1085 23.0267C40.9299 23.2504 41.1621 24.3868 41.1865 24.6449C41.2849 25.5598 41.3521 26.4631 41.4086 27.3897C41.4681 28.5111 41.566 30.3179 40.8303 31.2225C41.2918 31.7775 41.6892 32.3827 42.015 33.0268C42.0594 32.9911 42.1083 32.9519 42.1528 32.9162C42.3065 32.7344 42.4388 32.5259 42.5738 32.3299C43.0413 31.6084 43.3252 30.7835 43.4008 29.9272ZM62.2799 56.5704C60.8184 54.4479 58.9138 52.6677 56.6975 51.3526C55.7609 50.7722 54.7658 50.2921 53.7286 49.9203C53.2147 49.7261 52.7098 49.5613 52.1835 49.3698L51.927 49.2687C51.9265 49.4403 51.881 49.6088 51.795 49.7573C51.709 49.9058 51.5855 50.0292 51.4368 50.115C51.3082 50.8401 51.0143 51.5259 50.578 52.1193C50.1418 52.7127 49.5748 53.1977 48.921 53.5367C48.3117 53.7983 47.6276 53.8271 46.9985 53.6178C46.8389 53.6596 46.6722 53.6662 46.5098 53.6372L46.5529 53.9096C46.6436 54.4506 46.6862 54.9864 46.7556 55.5373C46.8964 56.6299 47.1494 57.7052 47.5106 58.746C48.3134 61.1948 49.6404 63.4393 51.3993 65.3228C53.001 67.054 54.9817 68.391 57.1864 69.2291C59.395 70.0145 61.0003 69.0918 62.7483 68.3104C63.8934 66.7777 65.1385 65.406 64.8458 63.0832C64.5022 60.744 63.6242 58.5154 62.2799 56.5704ZM34.0193 22.8252C33.8802 22.6518 33.7446 22.4829 33.5824 22.3354C32.6794 21.3911 31.586 20.6493 30.3748 20.1593C30.1883 20.3678 30.0499 20.6147 29.9694 20.8826C29.8889 21.1505 29.8682 21.4329 29.9089 21.7096C30.1944 22.5657 30.757 23.3022 31.5079 23.8026C31.8035 23.9381 32.1242 24.0099 32.4493 24.0134C32.7744 24.0169 33.0966 23.9521 33.395 23.823C33.5766 23.725 33.7296 23.5815 33.839 23.4066C33.9485 23.2317 34.0106 23.0313 34.0193 22.8252ZM35.3523 26.827C35.6799 25.6507 35.2385 24.4995 34.5232 23.4805C34.4529 23.8253 34.2641 24.1345 33.9895 24.3545C33.615 24.5961 33.1891 24.7465 32.746 24.7937C32.3029 24.8409 31.8548 24.7835 31.4379 24.6261C30.3621 24.269 29.6912 23.2142 29.2278 22.1904C29.0731 21.8074 29.0018 21.3959 29.0184 20.9832C29.0349 20.5705 29.1391 20.1661 29.324 19.7967L29.1512 19.7453C28.95 19.6949 28.7416 19.6356 28.5243 19.5834C28.4077 19.5746 28.3035 19.5632 28.2038 19.5482C27.6766 19.4379 27.1399 19.3791 26.6014 19.3725C25.7149 19.3972 24.8518 19.6628 24.1048 20.1408C23.7144 20.4086 23.3811 20.7514 23.1245 21.1492C22.8679 21.5471 22.693 21.992 22.6101 22.4582C22.5402 23.2988 22.5316 24.1434 22.5844 24.9852L22.5971 25.165C22.9978 25.0646 23.4152 25.0505 23.8216 25.1238C24.2281 25.197 24.6144 25.3558 24.9548 25.5898C25.8583 26.2605 26.7382 27.1475 26.8538 28.2751C26.9171 28.7163 26.876 29.1661 26.734 29.5885C26.5919 30.0109 26.3527 30.3941 26.0357 30.7073C25.7615 30.9277 25.4186 31.045 25.0669 31.0389C25.9067 31.9581 26.9349 32.6384 28.1542 32.5734C29.7243 32.4901 31.0474 31.5162 32.2773 30.7267C32.3433 30.6794 32.4206 30.6501 32.5014 30.6418C32.5257 30.5661 32.5695 30.4981 32.6285 30.4449C33.6933 29.4223 34.9353 28.3382 35.3523 26.827ZM40.6895 33.5788C40.01 32.4582 39.029 31.5512 37.8587 30.9615C36.9524 30.5431 36.019 30.1862 35.0648 29.893C34.5368 30.4157 33.9558 30.8819 33.3311 31.2841C33.266 31.3314 33.1882 31.3582 33.1078 31.361C33.0861 31.4403 33.0416 31.5115 32.9799 31.5659C32.4519 32.0886 31.8709 32.5548 31.2462 32.957C31.3256 33.9521 31.4719 34.9406 31.684 35.916C32.0061 37.1864 32.679 38.3405 33.6257 39.2467C34.482 40.294 35.5593 41.1389 36.7804 41.7211C37.9252 42.0585 39.1561 41.9423 40.2175 41.3966C40.271 41.3693 40.3316 41.359 40.3911 41.3669L40.5511 41.2385C40.8489 40.9995 41.1067 40.7197 41.3867 40.4584C42.1369 39.5448 42.5085 38.3784 42.4252 37.1991C42.1209 35.879 41.5282 34.6427 40.6895 33.5788ZM47.2183 42.6263C46.6338 41.8621 45.8844 41.2394 45.026 40.8047C44.3865 40.4649 43.6996 40.2229 42.9884 40.0867C42.7698 40.5025 42.4232 40.8369 41.9999 41.0406C41.5816 41.4284 41.1423 41.793 40.6842 42.1329L40.5952 42.2042C40.3059 42.543 39.9219 42.7875 39.4925 42.9064C39.4685 43.6304 39.556 44.3538 39.752 45.0512C39.9905 45.9833 40.436 46.8497 41.0553 47.5861C41.3578 47.9187 41.7362 48.1733 42.1583 48.3282C42.5803 48.4832 43.0336 48.534 43.4795 48.4763C44.0431 48.3686 44.6247 48.4045 45.1708 48.5806C45.3717 48.4854 45.5673 48.3797 45.757 48.2638C46.3432 47.8523 46.8681 47.3597 47.3161 46.8008C47.2788 46.2427 47.3734 45.6836 47.5923 45.1688C47.7389 44.7458 47.7818 44.2938 47.7175 43.8508C47.6532 43.4078 47.4836 42.9866 47.2228 42.6227L47.2183 42.6263ZM50.1755 47.6414C49.8138 47.1323 49.3142 46.7371 48.7354 46.5023C48.394 47.6443 47.6926 48.6454 46.7359 49.3563C46.0975 49.811 45.3083 50.0018 44.5328 49.8892L44.4749 49.899C44.5801 50.5207 44.8597 51.0997 45.2811 51.5686C45.5237 51.8709 46.6956 52.2386 47.2543 52.6526C47.5178 52.7026 47.7889 52.6959 48.0496 52.6329C48.3103 52.5699 48.5546 52.4521 48.7661 52.2872C49.4003 51.7807 49.8942 51.1202 50.2009 50.3687C50.3507 49.9635 50.4525 49.553 50.6014 49.1558C50.5144 48.6365 50.3731 48.1277 50.18 47.6378L50.1755 47.6414ZM26.0623 28.1722C25.732 27.3329 25.134 26.626 24.361 26.1612C24.0996 26.0615 23.8195 26.0205 23.5405 26.0411C23.2615 26.0616 22.9905 26.1433 22.7465 26.2801C22.9652 27.568 23.4522 28.7955 24.1759 29.8831C24.3115 30.052 24.447 30.2209 24.5595 30.4157C24.7626 30.4518 24.9717 30.4346 25.1661 30.3656C25.3606 30.2967 25.5339 30.1784 25.6689 30.0224C25.8614 29.7585 25.9963 29.4571 26.0648 29.1378C26.1333 28.8184 26.134 28.4882 26.0667 28.1686L26.0623 28.1722ZM43.7007 50.0087C43.5289 50.0223 43.358 50.0279 43.1871 50.0335C43.2657 50.2544 43.3195 50.4833 43.3474 50.716C43.4178 51.3305 43.438 51.9496 43.408 52.5674C43.3592 53.8806 43.2199 55.1888 42.9909 56.4827C42.7489 57.8387 42.5248 59.1805 42.1974 60.5028C41.9018 61.6826 41.4601 62.7897 41.169 63.966C41.0699 64.3524 40.8165 65.1842 41.1571 65.5905C42.0283 66.6306 42.8968 65.2541 43.0605 64.5747C43.4007 63.172 43.6528 61.7494 43.8154 60.3153C43.9629 58.9692 43.8879 57.5825 44.0391 56.2409C44.1902 54.8992 44.2017 53.6112 44.6424 52.4392C44.0661 51.7558 43.736 50.8986 43.7051 50.0052L43.7007 50.0087ZM41.2816 49.626C40.828 49.3739 40.4146 49.0553 40.0555 48.6807C39.8491 50.0081 39.0881 51.2545 37.8638 51.5865C36.9204 51.8201 35.9545 51.9508 34.983 51.9761C33.8927 52.0107 32.7646 51.7978 31.795 52.2834C31.1173 52.6226 30.6885 53.427 31.6764 53.957C32.1954 54.1892 32.7686 54.2731 33.3324 54.1994C34.3477 54.0784 35.3453 53.8394 36.3053 53.4874C37.4111 53.1516 38.4416 52.6051 39.34 51.8781C39.7995 51.5351 40.2193 51.1419 40.5916 50.7058C40.8652 50.3547 41.073 49.9761 41.2816 49.626ZM32.7961 40.4167C32.2367 39.9603 31.7304 39.4424 31.2869 38.8727C30.2222 39.4128 28.4964 38.9195 27.4198 38.6068C26.5418 38.3687 25.6789 38.1038 24.7883 37.7953C24.5416 37.7156 23.4826 37.2427 23.2255 37.3686C23.0796 37.4418 23.2633 37.616 23.3775 37.8312C23.4918 38.0464 23.6069 38.2902 23.7363 38.5152C24.883 40.5181 27.5459 40.8952 29.4653 41.1016C30.325 41.2015 31.1961 41.0896 32.0026 40.7756C32.2277 40.6827 32.4554 40.6023 32.6707 40.488C32.7199 40.462 32.7677 40.4334 32.8139 40.4024L32.7961 40.4167ZM22.8419 38.6482C22.5814 38.2681 22.3956 37.8418 22.2945 37.3922C22.0264 37.2857 21.7539 37.2194 21.4814 37.1165C20.9328 36.9064 20.4339 36.649 19.8649 36.4771C18.8137 36.1216 17.7254 35.8867 16.6212 35.7768C15.6734 35.7236 14.7231 35.7318 13.7764 35.8015C13.5432 35.8205 12.6122 35.8806 12.495 36.0988C12.4816 36.1151 12.465 36.1285 12.4461 36.1381C12.4461 36.1381 12.4898 36.1469 12.5655 36.2323C12.7046 36.3364 12.8579 36.4202 13.0208 36.4808C13.7551 36.8199 14.5073 37.1189 15.2741 37.3766C15.8153 37.609 16.3786 37.7862 16.9554 37.9055C17.4664 37.9778 17.9711 37.9601 18.4759 38.052C19.3853 38.2384 20.3061 38.3637 21.2323 38.4272C21.7828 38.3971 22.3342 38.4672 22.8597 38.634L22.8419 38.6482ZM52.71 75.9996C51.7075 73.4206 48.5269 72.6624 46.4288 71.3499C45.9414 71.0261 45.4836 70.6598 45.0608 70.2552C44.6731 69.9087 44.1957 69.6414 43.8382 69.2779C43.2152 68.5172 42.8277 67.5913 42.7234 66.6136C42.5551 66.7105 42.369 66.7728 42.1763 66.7969C42.008 66.8156 41.8379 66.8093 41.6716 66.778C42.1089 69.4451 44.6299 71.3756 46.8517 72.6693C47.9297 73.3024 49.0175 73.9568 50.0449 74.6817C50.6133 75.0805 51.1747 75.4705 51.7103 75.9103C51.9482 76.1067 52.4226 76.6614 52.7259 76.5568C53.0293 76.4522 52.8092 76.2781 52.71 75.9996ZM30.6875 53.954C30.6307 53.8925 30.5782 53.8272 30.5305 53.7584C30.0161 54.4196 29.812 55.4311 29.5524 56.246C29.2803 57.0812 29.1027 57.9443 29.0229 58.8192C28.9088 59.7924 28.9058 60.7755 29.0138 61.7495C29.0714 62.149 29.1361 62.5575 29.2399 62.9419C29.2676 63.0584 29.3217 63.4901 29.4099 63.5362C29.6531 63.6845 29.8544 63.1795 29.8845 63.0531C30.5617 61.4618 30.929 59.7558 30.9667 58.0268C30.9846 56.8652 30.9765 55.6074 31.5359 54.6471C31.1937 54.482 30.8964 54.2366 30.6697 53.9318L30.6875 53.954Z" fill="black"/>
</svg>
