<svg width="120" height="119" viewBox="0 0 120 119" fill="none" xmlns="http://www.w3.org/2000/svg">
<path d="M89.0041 88.8544C105.827 72.3143 106.524 45.7316 90.5627 29.4803C74.6011 13.2291 48.0243 13.4632 31.2018 30.0033C14.3793 46.5435 13.6814 73.1262 29.6431 89.3774C45.6048 105.629 72.1816 105.395 89.0041 88.8544Z" fill="#1C75BC"/>
<path d="M89.0041 88.8544C105.827 72.3143 106.524 45.7316 90.5627 29.4803C74.6011 13.2291 48.0243 13.4632 31.2018 30.0033C14.3793 46.5435 13.6814 73.1262 29.6431 89.3774C45.6048 105.629 72.1816 105.395 89.0041 88.8544Z" fill="#1C75BC"/>
<g style="mix-blend-mode:multiply" opacity="0.5">
<path d="M58.981 90.4943C69.2776 90.4098 79.2159 86.7016 87.0535 80.0198C94.891 73.338 100.128 64.1091 101.845 53.951C102.399 59.9682 101.693 66.035 99.7716 71.7636C97.8501 77.4923 94.7554 82.757 90.6854 87.2215C86.6153 91.686 81.6595 95.252 76.1342 97.6919C70.6089 100.132 64.6356 101.392 58.5961 101.392C53.1431 101.43 47.7392 100.36 42.7125 98.2447C37.6858 96.1298 33.1411 93.0146 29.3546 89.0884C25.5682 85.1622 22.6188 80.5069 20.6857 75.4052C18.7527 70.3036 17.8762 64.862 18.1095 59.411C18.1638 57.5806 18.3454 55.7562 18.653 53.951C19.5724 63.9915 24.228 73.32 31.6972 80.0882C39.1664 86.8564 48.9041 90.5704 58.981 90.4943Z" fill="#1C75BC"/>
</g>
<path d="M17.0679 59.411C16.6159 67.863 18.7603 76.2509 23.213 83.4477C27.6656 90.6445 34.2131 96.3054 41.9757 99.6697C69.9631 111.541 102.321 90.1997 102.977 59.411C103.197 51.0835 100.898 42.8836 96.3809 35.8859C91.8636 28.8881 85.339 23.4187 77.6618 20.1945C50.2859 8.86674 18.3812 29.2566 17.0679 59.411ZM19.1285 59.411C19.4997 48.3567 24.1097 37.8696 32.002 30.1249C39.8944 22.3803 50.4636 17.9724 61.5172 17.8156C68.2503 17.8381 74.8676 19.5689 80.7503 22.8462C86.633 26.1236 91.5886 30.8403 95.1538 36.5552C98.7189 42.2701 100.777 48.7963 101.135 55.5235C101.494 62.2507 100.141 68.9589 97.2032 75.0206C92.5758 84.9315 84.3739 92.7251 74.2428 96.8378C47.5008 107.644 18.3359 88.0248 19.1285 59.411Z" fill="#1C75BC"/>
<g style="mix-blend-mode:multiply">
<path d="M17.0679 59.411C16.6159 67.863 18.7603 76.2509 23.213 83.4477C27.6656 90.6445 34.2131 96.3054 41.9757 99.6697C69.9631 111.541 102.321 90.1997 102.977 59.411C103.197 51.0835 100.898 42.8836 96.3809 35.8859C91.8636 28.8881 85.339 23.4187 77.6618 20.1945C50.2859 8.86674 18.3812 29.2566 17.0679 59.411ZM19.1285 59.411C19.4997 48.3567 24.1097 37.8696 32.002 30.1249C39.8944 22.3803 50.4636 17.9724 61.5172 17.8156C68.2503 17.8381 74.8676 19.5689 80.7503 22.8462C86.633 26.1236 91.5886 30.8403 95.1538 36.5552C98.7189 42.2701 100.777 48.7963 101.135 55.5235C101.494 62.2507 100.141 68.9589 97.2032 75.0206C92.5758 84.9315 84.3739 92.7251 74.2428 96.8378C47.5008 107.644 18.3359 88.0248 19.1285 59.411Z" fill="#1C75BC"/>
</g>
<path d="M82.9822 82.7463C96.3082 69.644 96.8575 48.5829 84.2091 35.705C71.5607 22.8272 50.5044 23.0091 37.1784 36.1114C23.8524 49.2137 23.3031 70.2748 35.9515 83.1527C48.5998 96.0306 69.6562 95.8486 82.9822 82.7463Z" fill="#262262"/>
<path d="M82.9822 82.7463C96.3082 69.644 96.8575 48.5829 84.2091 35.705C71.5607 22.8272 50.5044 23.0091 37.1784 36.1114C23.8524 49.2137 23.3031 70.2748 35.9515 83.1527C48.5998 96.0306 69.6562 95.8486 82.9822 82.7463Z" fill="#262262"/>
<g style="mix-blend-mode:multiply" opacity="0.6">
<path d="M59.0943 86.892C67.4942 86.828 75.5859 83.7185 81.8691 78.1403C88.1522 72.562 92.2004 64.8934 93.2632 56.5564C93.2632 57.5079 93.2632 58.4594 93.2632 59.411C92.8913 68.3157 89.11 76.7361 82.7026 82.9275C76.2952 89.119 67.7527 92.6071 58.8451 92.6691C54.5244 92.7007 50.2423 91.8532 46.259 90.1781C42.2757 88.503 38.6742 86.0353 35.6734 82.9249C32.6726 79.8144 30.335 76.1261 28.8026 72.0839C27.2702 68.0418 26.5751 63.7302 26.7593 59.411C26.7593 58.4594 26.8725 57.5079 26.9857 56.5564C27.3888 64.782 30.9559 72.5328 36.9405 78.187C42.9251 83.8411 50.8635 86.9604 59.0943 86.892Z" fill="#262262"/>
</g>
<path d="M26.1027 59.411C25.8625 64.9722 27.0416 70.503 29.5288 75.4822C32.016 80.4614 35.7294 84.7249 40.319 87.8709C44.9087 91.0169 50.2236 92.9419 55.7625 93.4642C61.3014 93.9866 66.8821 93.0892 71.9785 90.8567C106.329 75.6776 98.2449 26.6966 61.2228 25.7224C52.1823 25.8084 43.5151 29.3418 36.9889 35.6019C30.4628 41.8621 26.5694 50.3774 26.1027 59.411ZM27.5066 59.411C28.4576 30.2761 64.1438 15.5728 84.1154 36.2118C104.087 56.8509 88.01 91.8309 59.0037 91.8309C54.7949 91.8267 50.6297 90.9779 46.7546 89.3349C42.8794 87.6919 39.3729 85.2879 36.4426 82.2652C33.5123 79.2425 31.2177 75.6625 29.6945 71.737C28.1713 67.8115 27.4504 63.6202 27.5746 59.411H27.5066Z" fill="#262262"/>
<g style="mix-blend-mode:multiply">
<path d="M26.1027 59.411C25.8625 64.9722 27.0416 70.503 29.5288 75.4822C32.016 80.4614 35.7294 84.7249 40.319 87.8709C44.9087 91.0169 50.2236 92.9419 55.7625 93.4642C61.3014 93.9866 66.8821 93.0892 71.9785 90.8567C106.329 75.6776 98.2449 26.6966 61.2228 25.7224C52.1823 25.8084 43.5151 29.3418 36.9889 35.6019C30.4628 41.8621 26.5694 50.3774 26.1027 59.411ZM27.5066 59.411C28.4576 30.2761 64.1438 15.5728 84.1154 36.2118C104.087 56.8509 88.01 91.8309 59.0037 91.8309C54.7949 91.8267 50.6297 90.9779 46.7546 89.3349C42.8794 87.6919 39.3729 85.2879 36.4426 82.2652C33.5123 79.2425 31.2177 75.6625 29.6945 71.737C28.1713 67.8115 27.4504 63.6202 27.5746 59.411H27.5066Z" fill="#262262"/>
</g>
<path d="M76.4706 76.0951C86.0504 66.6762 86.4476 51.5383 77.358 42.2838C68.2683 33.0292 53.1338 33.1624 43.5541 42.5814C33.9744 52.0003 33.5771 67.1382 42.6667 76.3927C51.7564 85.6473 66.8909 85.514 76.4706 76.0951Z" fill="#2C2B2D"/>
<path d="M59.7509 70.784C65.064 70.7544 70.2284 69.0257 74.4896 65.8505C78.7509 62.6753 81.8857 58.22 83.4361 53.1354C83.9159 55.1911 84.1214 57.3013 84.0473 59.411C83.7856 65.8109 81.071 71.8643 76.4668 76.3148C71.8626 80.7653 65.7225 83.2712 59.3207 83.3125C56.2144 83.3368 53.1356 82.7289 50.2714 81.5259C47.4071 80.3228 44.8173 78.5496 42.6592 76.3141C40.5011 74.0786 38.8198 71.4274 37.7175 68.5216C36.6152 65.6159 36.1149 62.5162 36.247 59.411C36.3229 57.2813 36.6808 55.171 37.3112 53.1354C38.4972 58.187 41.3642 62.6853 45.4416 65.8921C49.519 69.0989 54.5647 70.8239 59.7509 70.784Z" fill="#231F20"/>
<path d="M33.0996 44.8889C33.0505 46.0355 33.2347 47.1802 33.6411 48.2535C34.0475 49.3267 34.6676 50.3062 35.4638 51.1325C36.2599 51.9587 37.2156 52.6145 38.2727 53.0601C39.3299 53.5056 40.4664 53.7317 41.6135 53.7245C43.9649 53.6861 46.2128 52.7497 47.8966 51.107C49.5805 49.4644 50.573 47.2398 50.6709 44.8889C50.72 43.7422 50.5357 42.5975 50.1293 41.5243C49.7229 40.451 49.1028 39.4716 48.3067 38.6453C47.5105 37.8191 46.5549 37.1633 45.4977 36.7177C44.4406 36.2721 43.3041 36.0461 42.157 36.0533C39.8055 36.0917 37.5577 37.0281 35.8738 38.6707C34.19 40.3134 33.1975 42.5379 33.0996 44.8889Z" fill="white"/>
<path d="M69.4198 80.0954C69.3922 80.7896 69.5055 81.4823 69.7528 82.1315C70.0002 82.7807 70.3766 83.373 70.859 83.8727C71.3415 84.3723 71.9203 84.769 72.5602 85.0387C73.2001 85.3085 73.888 85.4457 74.5824 85.4421C76.0174 85.4374 77.3953 84.8789 78.4288 83.8828C79.4623 82.8867 80.0718 81.53 80.1301 80.0954C80.1608 79.4023 80.0504 78.7102 79.8056 78.0611C79.5608 77.4119 79.1866 76.8194 78.7059 76.3194C78.2252 75.8193 77.6479 75.4223 77.0092 75.1523C76.3704 74.8823 75.6834 74.745 74.99 74.7487C73.5527 74.7531 72.1723 75.311 71.1352 76.3065C70.098 77.302 69.4838 78.6588 69.4198 80.0954Z" fill="white"/>
</svg>
