<svg width="104" height="85" viewBox="0 0 104 85" fill="none" xmlns="http://www.w3.org/2000/svg">
<path d="M8.30049 35.4364H51.3208C59.3548 35.4364 57.9417 29.39 52.9623 24.0414C43.9862 14.3969 42.3708 3.72579 49.3367 0C54.1637 4.25804 77.5593 35.6516 92.0191 35.6516H97.9096V71.5115C97.9096 71.5115 80.7805 84.9953 70.5982 84.9953H44.9045C44.3596 85.0076 43.8165 84.9276 43.2986 84.7587C41.9808 84.4222 40.8077 83.6707 39.9548 82.6166C39.1019 81.5625 38.6148 80.2623 38.5663 78.9102C38.5179 77.5581 38.9107 76.2267 39.686 75.1149C40.4613 74.0031 41.5776 73.1705 42.868 72.7416H41.1551C39.6535 72.7465 38.1991 72.2199 37.0522 71.256C35.9054 70.2921 35.1409 68.9539 34.8957 67.4808C34.6505 66.0077 34.9404 64.4959 35.7137 63.2159C36.487 61.936 37.6931 60.9715 39.1163 60.495H35.7999C34.2993 60.4988 32.8462 59.9718 31.7005 59.0083C30.5547 58.0448 29.7908 56.7075 29.5454 55.2355C29.3 53.7635 29.5891 52.2527 30.3609 50.9731C31.1328 49.6935 32.3371 48.7286 33.7587 48.2507H8.30287C4.80092 48.2507 0.00238037 45.4262 0.00238037 41.9441C0.00238037 38.462 4.79854 35.4364 8.30049 35.4364Z" fill="black"/>
<path d="M101.621 31.6987H100.272C99.6411 31.6987 99.036 31.948 98.5898 32.3916C98.1436 32.8352 97.893 33.4369 97.893 34.0643V73.7564C97.893 74.3838 98.1436 74.9855 98.5898 75.4291C99.036 75.8727 99.6411 76.1219 100.272 76.1219H101.621C102.252 76.1219 102.857 75.8727 103.303 75.4291C103.749 74.9855 104 74.3838 104 73.7564V34.0643C104 33.4369 103.749 32.8352 103.303 32.3916C102.857 31.948 102.252 31.6987 101.621 31.6987Z" fill="black"/>
</svg>
