<svg width="72" height="76" viewBox="0 0 72 76" fill="none" xmlns="http://www.w3.org/2000/svg">
<path d="M19.0768 74.2436C19.0921 74.4753 19.0813 74.8185 19.5279 74.5619C19.6372 74.453 19.7253 74.3247 19.7878 74.1836C20.0253 73.7103 20.2195 73.2164 20.368 72.708C20.7431 71.6221 20.9857 70.5318 21.2528 69.4177C21.5873 68.1681 21.8355 66.8971 21.9958 65.6135C22.23 63.2672 21.6428 60.9732 21.8947 58.6406C21.8999 58.5966 21.9121 58.5536 21.9309 58.5135C21.7502 57.6566 21.5995 56.7934 21.4788 55.9239L21.3082 56.8083C21.1472 57.4322 21.0261 58.0658 20.9457 58.7051C20.8843 59.9582 20.8944 61.2137 20.9762 62.4657C21.0385 64.8743 20.5232 67.1927 19.9978 69.5266C19.7299 70.7134 19.3872 71.8959 19.174 73.094C19.0968 73.4721 19.0641 73.8579 19.0768 74.2436Z" fill="#4B3B3B"/>
<path d="M2.95591 43.4802C2.39074 43.6146 1.85058 43.8382 1.35574 44.1425C1.83742 44.5296 2.87634 44.4461 3.38696 44.3975C4.10841 44.3029 4.81948 44.1412 5.51095 43.9147C7.00758 43.5341 8.47181 43.0359 9.88999 42.4247C11.1757 41.7995 12.4114 41.0762 13.586 40.2612C14.226 39.8116 14.831 39.3142 15.396 38.7733C15.6872 38.4664 16.0104 38.1917 16.3602 37.9538C16.1087 37.7555 15.9131 37.495 15.7928 37.1982C15.549 37.3409 15.23 37.5276 15.1798 37.557C14.9109 37.7144 14.6385 37.8739 14.387 38.0692C13.7747 38.495 13.1959 38.9782 12.5983 39.4291C11.4871 40.3392 10.274 41.1172 8.98329 41.7473C7.672 42.2548 6.31492 42.635 4.93082 42.8825C4.26456 43.027 3.61307 43.2543 2.95591 43.4802Z" fill="#4B3B3B"/>
<path d="M24.7311 63.6754C25.7078 65.9195 27.0234 68.3068 29.1447 69.6449C29.6347 69.9878 30.1847 70.2357 30.7662 70.3756C31.6464 70.5391 31.6597 69.6408 31.6019 68.9912C31.4151 67.7007 31.1068 66.4307 30.6812 65.1982C29.9082 62.5703 29.0643 59.9693 28.4142 57.3128C27.8332 54.7832 27.4157 52.2189 27.1644 49.6357C26.8926 47.0416 26.8803 44.4304 26.5992 41.837C26.4642 40.5539 26.2 39.2886 26.0686 38.0034C25.9942 37.3893 25.8806 36.7805 25.7286 36.1809C25.6256 35.8041 25.5608 35.418 25.5352 35.0282C24.2114 34.1672 22.9528 33.2099 21.7697 32.1641L21.8166 32.7046C21.8786 33.4191 21.93 34.14 21.9756 34.8593C22.072 36.3479 22.1457 37.8305 22.1381 39.3223C22.1276 42.2645 21.982 45.1895 22.0597 48.1427C22.195 53.4061 22.6017 58.8043 24.7311 63.6754ZM28.9608 67.2257C28.5239 66.5615 28.2098 65.8243 28.0333 65.0491C27.8522 64.1782 27.6164 63.3195 27.3273 62.4782C26.9917 61.5235 26.4617 60.6488 25.7707 59.9094C25.482 59.5971 25.1861 59.289 24.9225 58.962C25.357 60.1668 25.8967 61.331 26.5355 62.4411C26.5408 62.4581 26.5401 62.4764 26.5337 62.493C26.5272 62.5096 26.5154 62.5235 26.5 62.5325C26.4846 62.5415 26.4667 62.545 26.449 62.5425C26.4314 62.54 26.4151 62.5317 26.4029 62.5188C25.1841 60.6056 24.3238 58.4866 23.8639 56.2654C23.4735 54.1595 23.8449 52.0312 23.7795 49.9132C23.7449 48.7686 23.3756 47.743 23.2082 46.6184C23.0767 45.6105 23.0612 44.5908 23.1621 43.5794C23.2499 42.5124 23.3562 41.4442 23.3336 40.3697C23.3144 39.7514 23.2513 39.1353 23.1449 38.526C22.9844 37.9551 22.8615 37.3742 22.7769 36.7872C22.6272 36.0419 22.6731 35.2705 22.9101 34.5481C22.9751 34.4042 23.2216 34.4717 23.2113 34.6269C23.1847 35.004 23.1779 35.3823 23.1912 35.7601C23.6212 36.1251 24.0178 36.5275 24.3765 36.9627C24.6681 37.4614 24.882 38.0016 25.011 38.5647C25.051 38.6906 24.8567 38.7369 24.8152 38.6168C24.6509 38.0168 24.3709 37.4547 23.9911 36.9621C23.8467 36.806 23.7131 36.6435 23.5502 36.4886C23.5397 36.4707 23.3658 36.3462 23.2296 36.2286C23.2534 36.5324 23.2921 36.837 23.3374 37.1282C23.3827 37.4193 23.4915 37.7696 23.5514 38.0858C23.7378 38.7612 24.0212 39.406 24.3927 40C24.8901 40.7219 25.3088 41.495 25.6416 42.3061C25.7869 42.7024 25.9684 43.1111 26.0886 43.5221C26.2088 43.933 26.193 44.3418 26.3198 44.7393C26.3222 44.7483 26.3229 44.7577 26.3217 44.7669C26.3205 44.7762 26.3174 44.7851 26.3128 44.7932C26.3081 44.8013 26.3019 44.8084 26.2945 44.814C26.2871 44.8197 26.2787 44.8239 26.2697 44.8263C26.2607 44.8288 26.2513 44.8294 26.242 44.8282C26.2328 44.827 26.2239 44.824 26.2158 44.8193C26.2077 44.8147 26.2006 44.8085 26.1949 44.8011C26.1892 44.7937 26.185 44.7853 26.1826 44.7762C26.0313 44.345 25.9995 43.9208 25.8233 43.48C25.6472 43.0392 25.4335 42.5097 25.227 42.0337C24.879 41.2171 24.2489 40.5848 23.7775 39.8451C23.8252 40.759 23.8148 41.675 23.7463 42.5876C23.7923 42.9051 23.8715 43.2169 23.9827 43.5178C24.1278 43.8342 24.2955 44.1398 24.4844 44.4323C24.9085 45.0909 25.2612 45.7928 25.5367 46.5261C26.0933 48.1541 26.387 49.8605 26.4067 51.5809C26.4107 51.67 26.2705 51.6607 26.2671 51.5808C26.1259 49.8103 25.8328 47.9363 25.0159 46.3352C24.832 45.9405 24.6202 45.5594 24.382 45.1949C24.1338 44.8828 23.9119 44.5506 23.7189 44.2017C23.6874 44.1479 23.658 44.0977 23.6444 44.0335C23.5834 44.8495 23.6102 45.6698 23.7241 46.4801C23.8823 47.4657 24.3172 48.3566 24.3925 49.357C24.4181 49.7203 24.4242 50.0847 24.4106 50.4486C25.0474 51.7752 25.5824 53.1483 26.0111 54.556C26.5046 56.2213 27.0814 57.8234 27.6786 59.452C27.7215 59.5665 27.5401 59.6101 27.4957 59.5014C26.8857 57.9331 26.265 56.3712 25.759 54.7421C25.4087 53.6091 24.7654 52.5513 24.3529 51.4354C24.2404 52.9453 23.9879 54.4215 24.203 55.932C24.3185 56.7089 24.4924 57.476 24.7232 58.2267C25.8959 59.2105 26.9974 60.3851 27.5632 61.8203C27.8996 62.6921 28.1423 63.5972 28.2869 64.5204C28.3606 64.9587 28.4165 65.3832 28.5365 65.8183C28.6724 66.286 28.8723 66.7326 29.1305 67.1456C29.1411 67.1681 29.1424 67.1939 29.134 67.2173C29.1256 67.2407 29.1082 67.2599 29.0857 67.2705C29.0632 67.2811 29.0374 67.2824 29.014 67.274C28.9905 67.2656 28.9714 67.2482 28.9608 67.2257Z" fill="#E2F3F7"/>
<path d="M28.0333 65.0491C28.2098 65.8243 28.5239 66.5615 28.9608 67.2257C28.9724 67.2378 28.9878 67.2456 29.0044 67.2479C29.0211 67.2502 29.038 67.2469 29.0525 67.2384C29.067 67.2299 29.0782 67.2168 29.0843 67.2012C29.0904 67.1855 29.0911 67.1683 29.0863 67.1522C28.8281 66.7393 28.6282 66.2926 28.4922 65.825C28.3828 65.4077 28.3163 64.9653 28.2427 64.5271C28.098 63.6039 27.8554 62.6987 27.5189 61.827C26.9531 60.3917 25.8516 59.2171 24.6789 58.2333C24.4482 57.4826 24.2743 56.7156 24.1588 55.9387C23.9436 54.4282 24.1878 52.9376 24.3087 51.4421C24.7212 52.5579 25.3645 53.6157 25.7148 54.7487C26.2208 56.3778 26.8415 57.9397 27.4514 59.508C27.5102 59.6084 27.6773 59.5731 27.6343 59.4587C27.0372 57.83 26.4532 56.2321 25.9669 54.5626C25.5397 53.1588 25.0068 51.7893 24.3727 50.466C24.3862 50.1021 24.3802 49.7377 24.3546 49.3744C24.2792 48.374 23.8443 47.4831 23.6862 46.4975C23.5722 45.6871 23.5455 44.8669 23.6065 44.0509C23.638 44.1046 23.6674 44.1548 23.6809 44.2191C23.874 44.568 24.0958 44.9002 24.3441 45.2123C24.5823 45.5768 24.7941 45.9579 24.9779 46.3526C25.7948 47.9537 26.088 49.8277 26.2291 51.5982C26.2367 51.6852 26.3728 51.6874 26.3687 51.5983C26.349 49.8779 26.0554 48.1715 25.4988 46.5435C25.2233 45.8102 24.8705 45.1083 24.4464 44.4497C24.2575 44.1572 24.0899 43.8516 23.9448 43.5352C23.8336 43.2343 23.7543 42.9225 23.7084 42.605C23.7768 41.6925 23.7872 40.7764 23.7395 39.8625C24.211 40.6021 24.841 41.2345 25.1891 42.0511C25.3955 42.5271 25.5897 43.0151 25.7854 43.4974C25.9811 43.9797 25.9933 44.3624 26.1447 44.7936C26.1496 44.8118 26.1615 44.8273 26.1778 44.8367C26.1942 44.8461 26.2136 44.8486 26.2318 44.8437C26.25 44.8388 26.2655 44.8269 26.2748 44.8106C26.2842 44.7942 26.2868 44.7749 26.2819 44.7567C26.1652 44.3436 26.1867 43.9363 26.0507 43.5395C25.9146 43.1426 25.7636 42.7448 25.6036 42.3235C25.2708 41.5124 24.8522 40.7393 24.3548 40.0174C23.9832 39.4234 23.6998 38.7786 23.5135 38.1032C23.4535 37.787 23.3858 37.4657 23.2995 37.1456C23.2132 36.8255 23.2112 36.5426 23.1917 36.246C23.3279 36.3636 23.491 36.4943 23.5123 36.506C23.6689 36.6501 23.8046 36.8162 23.9531 36.9795C24.333 37.4721 24.6129 38.0342 24.7773 38.6341C24.8187 38.7543 25.013 38.7079 24.9731 38.5821C24.8441 38.019 24.6301 37.4788 24.3385 36.9801C23.9799 36.5449 23.5832 36.1425 23.1533 35.7775C23.14 35.3997 23.1467 35.0214 23.1734 34.6443C23.1836 34.4891 22.9371 34.4216 22.8722 34.5655C22.6352 35.2879 22.5893 36.0593 22.7389 36.8046C22.8235 37.3916 22.9465 37.9724 23.1069 38.5434C23.2134 39.1527 23.2765 39.7688 23.2957 40.387C23.3147 41.4637 23.2119 42.5298 23.1241 43.5968C23.0233 44.6082 23.0388 45.6279 23.1703 46.6358C23.3427 47.7526 23.707 48.786 23.7416 49.9306C23.807 52.0486 23.4355 54.1769 23.8259 56.2827C24.2858 58.504 25.1462 60.623 26.365 62.5361C26.3772 62.5491 26.3935 62.5574 26.4111 62.5599C26.4287 62.5624 26.4467 62.5589 26.4621 62.5499C26.4774 62.5409 26.4893 62.527 26.4957 62.5104C26.5022 62.4938 26.5028 62.4755 26.4976 62.4585C25.8588 61.3484 25.319 60.1842 24.8846 58.9793C25.1482 59.3064 25.4441 59.6145 25.7328 59.9268C26.4238 60.6662 26.9538 61.5409 27.2894 62.4956C27.5906 63.3303 27.8391 64.1832 28.0333 65.0491Z" fill="white"/>
<path d="M3.09643 18.1478C2.72597 18.7401 4.02508 19.4958 4.42457 19.7096C4.82406 19.9234 5.33897 20.137 5.80692 20.3444C6.61407 20.6533 7.37917 21.0625 8.08418 21.5624C8.8998 22.1955 9.67006 22.8849 10.3893 23.6256C10.8198 24.0514 11.2251 24.5021 11.6029 24.9753C11.6393 24.7662 11.7076 24.5639 11.8053 24.3755C11.378 23.9085 11.058 23.3208 10.6716 22.8251C10.0516 22.0172 9.35959 21.2671 8.60416 20.5842C7.81302 19.8986 6.95088 19.2996 6.03242 18.7973C5.58873 18.5133 5.11294 18.2829 4.61501 18.1109C4.23423 18.0113 3.32044 17.7905 3.09643 18.1478Z" fill="#4B3B3B"/>
<path d="M16.7874 36.2742C16.3208 36.5955 16.4089 37.083 16.7709 37.4631C17.4945 38.214 18.6531 37.8582 19.5132 37.5762C20.0579 37.3699 20.6169 37.2035 21.1857 37.0785C21.1882 36.4578 21.1861 35.8348 21.1796 35.2097C21.1807 35.1129 21.1781 35.0181 21.1756 34.9233C21.168 34.9375 21.1566 34.9494 21.1427 34.9575C21.1288 34.9657 21.1128 34.9698 21.0967 34.9695C20.1145 35.0114 19.146 35.2157 18.2305 35.5739C17.7213 35.7442 17.2362 35.9796 16.7874 36.2742Z" fill="#4B3B3B"/>
<path d="M12.6052 26.5642C12.7925 26.8549 13.0494 27.0942 13.3527 27.2605C13.6559 27.4268 13.9959 27.5147 14.3417 27.5162C15.6479 27.6317 16.962 27.411 18.1588 26.8751C18.0266 26.4185 17.9438 25.9489 17.9117 25.4746C17.1019 25.7985 16.2031 25.8229 15.3769 25.5434C14.8897 25.376 14.4167 25.17 13.9623 24.9275C13.6221 24.7656 12.9667 24.3695 12.623 24.6622C12.1323 25.0986 12.3255 26.0781 12.6052 26.5642Z" fill="#4B3B3B"/>
<path d="M6.68252 10.5424C7.40528 10.8216 8.07342 11.2255 8.65654 11.7357C9.10402 12.1394 9.52056 12.5762 9.90267 13.0422C10.2789 13.4959 10.5697 14.0091 10.9704 14.4388C11.0938 14.5776 11.2274 14.7069 11.3702 14.8257C11.3009 14.7074 11.2732 14.5696 11.2339 14.453C11.1264 13.9978 10.9774 13.5533 10.7887 13.1252C10.5659 12.6969 10.2735 12.3085 9.92349 11.976C9.24517 11.3792 8.43548 10.951 7.56037 10.7264C7.27223 10.6454 6.97894 10.5839 6.68252 10.5424Z" fill="#4B3B3B"/>
<path d="M27.5025 43.479L27.5938 45.115C27.8302 44.7054 28.0907 44.3102 28.3739 43.9315C28.8139 43.2882 29.3423 42.7099 29.9435 42.2138C29.9215 41.6828 29.9159 41.147 29.9294 40.6192L29.8685 40.6549C29.4461 40.8538 29.0544 41.1123 28.7053 41.4224C28.3367 41.7498 27.9979 42.1092 27.6927 42.4965C27.6184 42.5833 27.5483 42.6773 27.4668 42.7683L27.5025 43.479Z" fill="#4B3B3B"/>
<path d="M14.0233 20.0159C14.2143 20.3262 14.518 20.5504 14.8708 20.6414C15.4663 20.8052 16.0987 20.7726 16.6742 20.5483C17.2088 20.3269 17.29 19.8654 17.3442 19.3331C17.4248 18.6073 17.296 18.0666 16.6343 17.6597C16.3856 17.5012 16.1023 17.4053 15.8085 17.3803C15.5147 17.3553 15.2192 17.4019 14.9474 17.5161C14.6882 17.6432 14.4655 17.8339 14.3001 18.0705C14.1347 18.307 14.032 18.5817 14.0016 18.8687C13.9546 19.2572 14.108 19.6343 14.0233 20.0159Z" fill="#FBCA4C"/>
<path d="M33.3165 51.6515C33.9796 53.0615 34.8064 54.3885 35.78 55.6051C37.9868 55.7572 40.3528 55.359 42.2231 54.1631C43.1908 53.5336 44.0787 52.7892 44.8674 51.9462C45.2997 51.5148 45.6762 51.0309 45.988 50.5057C46.1452 50.2128 46.2672 49.9023 46.3514 49.5806C45.7668 48.1044 45.0081 46.7032 44.0912 45.407C44.0188 45.6817 43.9271 45.9509 43.8167 46.2126C43.5717 46.7292 43.257 47.2098 42.8815 47.6409C42.0512 48.6026 41.056 49.4084 39.9426 50.0206C38.8516 50.6644 37.6698 51.1403 36.4371 51.4324C35.8396 51.6025 35.2256 51.7086 34.6056 51.7488C34.1743 51.7429 33.7438 51.7104 33.3165 51.6515Z" fill="#4B3B3B"/>
<path d="M19.8623 28.1161C20.3868 29.3355 21.1461 30.4398 22.0968 31.3662C23.8067 33.0413 25.7762 34.4289 27.9291 35.4752C27.9449 35.4291 27.975 35.3893 28.0151 35.3615C28.0551 35.3338 28.1029 35.3195 28.1516 35.3209C28.2685 35.315 28.7269 34.5028 28.7556 34.4861C28.9207 34.0735 29.0317 33.6412 29.0858 33.2001C29.127 32.9498 29.2589 32.4105 29.0741 32.177C28.9441 32.0124 28.6384 31.9507 28.4386 31.9136C28.0605 31.8269 27.6686 31.8397 27.2867 31.7793C26.5626 31.6689 25.7626 31.5355 25.2531 30.9529C24.69 30.3199 24.7995 29.3558 24.7651 28.5817C24.7604 28.2283 24.8533 27.3509 24.4532 27.1855C24.1376 27.0574 23.7666 27.1061 23.4384 26.9565C22.6123 26.5978 22.7358 26.0441 22.7579 25.2514C22.8054 23.6305 21.2785 24.4425 20.6835 25.2432C20.1759 26.0423 19.9355 26.982 19.9968 27.9266C19.9948 27.9677 19.981 28.0074 19.9572 28.041C19.9333 28.0746 19.9004 28.1006 19.8623 28.1161Z" fill="#4B3B3B"/>
<path d="M36.365 56.3167C36.5747 56.5598 36.7858 56.7972 37.0041 57.0304C37.6634 57.7417 38.3649 58.4128 39.1047 59.0401L39.183 59.0424C41.0733 59.3884 43.025 59.0572 44.6952 58.1068C45.6177 57.5917 46.4266 56.8956 47.0734 56.0601C47.3656 55.668 47.6112 55.2431 47.8052 54.7943C47.6066 53.5802 47.3203 52.382 46.9485 51.2093C46.814 50.8067 46.6758 50.4063 46.5233 50.0142C46.4835 50.2283 46.4265 50.4388 46.3527 50.6436C46.1328 51.1619 45.8291 51.6404 45.4539 52.0601C44.6304 53.0374 43.6736 53.894 42.6116 54.6048C41.5176 55.3118 40.2952 55.7967 39.014 56.0319C38.1441 56.2235 37.2558 56.319 36.365 56.3167Z" fill="#FBCA4C"/>
<path d="M19.3325 26.7753C19.3968 26.959 19.4646 27.1407 19.5339 27.3167C19.6282 25.9813 20.0974 24.6285 21.3465 23.9502C21.5902 23.793 21.8759 23.7132 22.1658 23.7213C22.4558 23.7294 22.7365 23.825 22.971 23.9956C23.6456 24.5971 23.0025 25.8255 23.7008 26.2783C24.2688 26.6485 25.1004 26.3013 25.3236 27.1429C25.5768 28.1018 25.1843 29.1498 25.4569 30.0924C25.774 31.2015 27.3116 31.0572 28.2153 31.1539C28.8209 31.2182 29.6473 31.4131 29.8603 32.0729C29.9429 32.4704 29.935 32.8813 29.8373 33.2753C29.7874 33.7583 29.6628 34.2306 29.4681 34.6754C29.2628 35.1182 28.932 35.4909 28.5168 35.7473C29.0754 36.0027 29.6376 36.256 30.1897 36.5249C30.7417 36.7937 31.2047 37.264 31.7502 36.9543C31.9937 36.8093 32.1764 36.5809 32.2644 36.3115C31.3862 35.3046 30.7372 33.9903 30.9221 32.6451C30.9347 32.3836 31.0184 32.1304 31.1641 31.9128C31.3098 31.6953 31.512 31.5215 31.749 31.4102C31.9904 31.3134 32.2502 31.2715 32.5098 31.2873C32.4486 30.3605 31.5273 29.7158 30.7058 29.4554C29.8844 29.195 29.0542 29.2815 28.3023 28.9755C28.032 28.8742 27.8067 28.6799 27.6668 28.4274C27.527 28.1749 27.4818 27.8808 27.5393 27.598C27.6239 27.2625 27.7341 26.9341 27.8691 26.6155C27.9649 26.3188 28.0075 26.2024 27.8145 25.9303C27.6372 25.7018 27.3976 25.5295 27.1246 25.4341C26.0648 24.9474 24.4264 24.4673 24.5713 22.9963C24.7162 21.5253 26.5416 21.7082 27.5313 22.1492C28.4439 22.5488 29.3748 22.8318 30.3098 23.2038C30.5799 23.3153 30.8375 23.4549 31.0782 23.6204C30.5628 22.6668 29.9334 21.7794 29.204 20.9776C28.6232 20.3087 27.9436 19.7327 27.1885 19.2695C26.8417 19.0634 26.4279 18.9157 26.038 18.7348C25.5547 18.9071 25.0458 18.9967 24.5327 18.9999C24.0609 19.0162 23.549 19.0462 23.0527 19.0865C23.3795 19.1497 23.6887 19.2828 23.9592 19.4767C24.2297 19.6706 24.4551 19.9207 24.62 20.2098C24.9448 20.8716 24.5189 21.583 24.0358 22.0487C23.7597 22.3328 23.4264 22.5552 23.058 22.7011C22.6896 22.8471 22.2945 22.9133 21.8987 22.8954C21.0421 22.7807 20.5351 22.0378 20.1173 21.3487L19.8867 21.7195C19.6333 22.1657 19.3059 22.5657 18.9185 22.9023C18.8652 23.3213 18.834 23.7428 18.825 24.1651C18.8593 25.0561 19.0304 25.9364 19.3325 26.7753Z" fill="#FBCA4C"/>
<path d="M31.95 47.7055C32.2219 48.8079 32.5733 49.8891 33.0014 50.9407C33.38 50.979 33.7523 51.0065 34.1286 51.0654C34.7737 51.1232 35.424 51.0683 36.0503 50.9032C37.2488 50.6576 38.4028 50.2304 39.4723 49.6365C40.4971 49.1058 41.429 48.4124 42.2317 47.5832C42.9875 46.8611 43.5136 45.932 43.7439 44.9124C43.0821 44.0645 42.3624 43.2635 41.5898 42.5152C41.2978 43.0671 40.9252 43.5723 40.4843 44.0143C39.668 44.8895 38.7055 45.6159 37.6398 46.1607C35.9948 47.0177 33.8738 47.8838 31.95 47.7055Z" fill="#FBCA4C"/>
<path d="M16.5262 21.3233C16.6898 21.7069 16.9618 22.0345 17.3089 22.2658C18.5268 22.8909 20.2539 19.7814 21.1314 19.1426C21.1473 19.129 21.1655 19.1183 21.1852 19.1111L21.6225 18.8551C21.6378 18.8406 21.6562 18.8298 21.6763 18.8236L21.7372 18.7879C22.4784 18.5031 23.2531 18.3149 24.0423 18.228C24.2086 18.2093 24.3723 18.1716 24.5301 18.1158C24.6269 18.0591 24.7273 18.0003 24.845 17.9795C25.1574 17.8882 25.6311 17.9574 25.8942 17.7408C26.0031 17.6517 26.0925 17.5409 26.1566 17.4156C26.2207 17.2903 26.2583 17.153 26.2668 17.0125C26.2363 16.5963 26.0851 16.1981 25.8319 15.8665C25.7474 15.9689 25.6551 16.0662 25.5644 16.1578C25.3072 16.397 24.9844 16.5539 24.6375 16.6087C24.2906 16.6634 23.9352 16.6135 23.6168 16.4651C22.7753 16.154 22.0876 15.7768 21.8368 14.855C21.7477 14.5338 21.7149 14.1996 21.74 13.8673C21.3389 13.8861 20.9411 13.948 20.5532 14.0517C20.4133 14.1192 20.279 14.1978 20.1517 14.2868C20.0406 14.3379 19.944 14.4159 19.8707 14.5138C19.8358 14.5776 19.8293 14.6487 19.7944 14.7125C19.7138 14.8219 19.6196 14.9207 19.5141 15.0065C19.3177 15.2191 19.079 15.3884 18.8134 15.5033C18.5846 15.5807 18.3415 15.6063 18.1016 15.5783C17.8812 15.5887 17.6727 15.6815 17.5174 15.8384C17.2371 16.1258 16.9883 16.4424 16.7755 16.7829C17.0774 16.9242 17.3527 17.1163 17.5894 17.3509C18.2667 18.023 18.259 18.8073 18.1183 19.6934C18.0919 20.0444 17.9611 20.3795 17.7428 20.6557C17.5245 20.9319 17.2287 21.1365 16.8932 21.2432C16.7722 21.2758 16.6497 21.3025 16.5262 21.3233Z" fill="#4B3B3B"/>
<path d="M13.0797 15.1149C12.9204 15.1552 12.7516 15.2204 12.5857 15.2741C13.1075 15.2831 13.6291 15.2437 14.1436 15.1564C14.9278 15.0487 16.1041 14.904 16.8866 15.2787L16.9296 15.2535C16.2543 14.7824 15.2141 14.7897 14.4527 14.9032C13.9891 14.9581 13.5305 15.0051 13.0797 15.1149Z" fill="#4B3B3B"/>
<path d="M31.4041 44.9639C31.5053 45.6218 31.6214 46.2807 31.7743 46.9613C32.0868 46.9853 32.3963 47.0207 32.7013 47.0155C33.2219 46.9788 33.7384 46.8986 34.2456 46.7757C35.215 46.5634 36.1574 46.2426 37.0551 45.8195C37.976 45.4187 38.8317 44.8821 39.5936 44.2276C40.0199 43.8724 40.4043 43.4698 40.7394 43.0275C40.9401 42.7705 41.125 42.5015 41.2931 42.222C40.6083 41.5784 39.8904 40.9687 39.1641 40.4022C38.8181 40.1235 38.4822 39.8869 38.1329 39.6437C38.0825 39.7775 38.0138 39.9036 37.9287 40.0184C37.713 40.334 37.4752 40.6341 37.2172 40.9162C36.6114 41.5809 35.9006 42.1416 35.1132 42.5761C34.357 42.9873 33.5533 43.3043 32.7199 43.5198C32.2418 43.6434 31.754 43.7261 31.2618 43.7669C31.2857 44.1861 31.3428 44.5714 31.4041 44.9639Z" fill="#4B3B3B"/>
<path d="M40.2255 59.9435C40.8218 60.403 41.4369 60.8371 42.058 61.2485C43.6955 62.3356 45.3822 63.1532 47.3364 63.2848C48.1805 61.52 48.2913 59.6454 48.1487 57.6833C48.095 56.9831 48.0202 56.2825 47.9242 55.5813C47.7869 55.8455 47.6294 56.0987 47.4529 56.3385C46.7876 57.2475 45.9452 58.0124 44.9764 58.5872C43.6605 59.3815 41.8681 60.0361 40.2255 59.9435Z" fill="#4B3B3B"/>
<path d="M31.2043 43.1508C31.7271 43.1068 32.2446 43.0134 32.7497 42.8718C33.5403 42.6687 34.3038 42.372 35.0241 41.9881C35.6963 41.6087 36.3101 41.1342 36.8468 40.5795C37.1043 40.3268 37.3458 40.0584 37.5701 39.7758C37.6504 39.6653 37.7199 39.5472 37.7776 39.4233C37.1799 39.0271 36.5742 38.6501 35.9628 38.2716C35.4546 37.9626 34.9557 37.653 34.4207 37.3886C34.1301 37.2458 33.8431 37.1009 33.5564 36.9318C33.3795 36.8079 33.1929 36.6982 32.9986 36.6038L32.9814 36.6812C32.9237 36.9125 32.7887 37.1171 32.5989 37.2613C32.1804 37.6471 31.6535 37.895 31.0894 37.9716C31.0929 38.1091 31.1135 38.2511 31.1116 38.363C31.1124 38.685 31.0982 39.0061 31.0867 39.3401C31.0553 39.9361 31.081 40.5227 31.1053 41.115C31.1242 41.797 31.1561 42.4763 31.2043 43.1508Z" fill="#FBCA4C"/>
<path d="M20.4931 20.9794C20.8016 21.5064 21.1294 22.1568 21.7418 22.3808C22.3542 22.6047 23.0602 22.2732 23.5566 21.896C24.053 21.5188 24.5484 20.9015 24.1979 20.3028C23.8153 19.7335 23.2342 19.3271 22.5681 19.1631C22.2458 19.2003 21.9256 19.2544 21.6089 19.3251C21.1763 19.8209 20.7848 20.3511 20.4383 20.9104C20.4608 20.9297 20.4794 20.9531 20.4931 20.9794Z" fill="#796463"/>
<path d="M25.3885 22.4602C24.8075 22.8243 24.9873 23.6577 25.3933 24.0553C26.0171 24.6769 26.9649 24.8489 27.7273 25.2305C27.8798 25.2869 28.0185 25.375 28.1344 25.4889C28.2504 25.6028 28.3408 25.74 28.3999 25.8914C28.459 26.0428 28.4853 26.205 28.4771 26.3673C28.469 26.5296 28.4265 26.6884 28.3526 26.8331C28.2115 27.2334 27.8929 27.7664 28.1199 28.187C28.3469 28.6077 29.1025 28.6322 29.5442 28.6962C30.4391 28.827 31.3785 28.9846 32.1146 29.5597C32.3788 29.7721 32.6001 30.033 32.7667 30.3283C32.7359 28.7628 32.2428 27.131 31.862 25.65C31.7689 25.29 31.6548 24.9357 31.5201 24.5891C31.2981 24.3858 31.0566 24.2047 30.7993 24.0484C30.3434 23.8189 29.8647 23.6378 29.3711 23.5078C28.9238 23.3605 28.4713 23.2452 28.035 23.0673C27.6194 22.8397 27.1914 22.6355 26.7529 22.4557C26.3565 22.346 25.7694 22.2228 25.3885 22.4602Z" fill="#4B3B3B"/>
<path d="M31.2853 33.4384C31.3046 34.2935 31.8707 34.9729 32.3988 35.612C32.4261 35.2639 32.4193 34.9069 32.4451 34.6222C32.5188 33.679 32.6202 32.734 32.7103 31.7861C32.6603 31.7793 32.6141 31.7557 32.5795 31.719C32.5449 31.6823 32.5239 31.6348 32.5201 31.5845C32.141 31.6413 31.7952 31.8334 31.5468 32.1254C31.3446 32.5321 31.2544 32.9853 31.2853 33.4384Z" fill="#4B3B3B"/>
<path d="M20.3361 13.245L20.3827 13.2178C20.4355 12.3542 21.1376 11.3993 21.6154 10.7683C21.9435 10.3624 22.2332 9.92691 22.4808 9.46749C22.3527 9.58579 22.2169 9.69902 22.1001 9.82029C21.7837 10.1595 21.5182 10.5364 21.2371 10.9031C20.7859 11.5137 20.2595 12.4235 20.3361 13.245Z" fill="#4B3B3B"/>
<path d="M22.5923 14.1721C22.6231 14.9483 23.0315 15.3253 23.7038 15.6105C24.1861 15.8095 24.6366 15.9789 25.0915 15.6212C25.5684 15.2274 25.9074 14.6918 26.0591 14.0921C26.1529 13.74 26.1061 13.3653 25.9287 13.047C25.5544 12.934 25.3043 12.6135 24.9497 12.4601C24.6837 12.3469 24.3933 12.3026 24.1056 12.3314C23.8179 12.3602 23.5421 12.461 23.3037 12.6246C23.0681 12.8052 22.8802 13.0405 22.7562 13.3102C22.6322 13.5799 22.576 13.8758 22.5923 14.1721Z" fill="#FBCA4C"/>
<path d="M36.1506 36.9727L36.0861 37.0105C36.5529 37.2571 37.0174 37.5243 37.4696 37.8035C38.2019 37.5202 38.9703 37.341 39.7523 37.2711C40.2129 37.2141 40.6763 37.1823 41.1404 37.1757C40.6781 36.8848 40.2175 36.5913 39.7586 36.2951C39.5527 36.1654 39.3447 36.032 39.1402 35.8966L38.7926 35.9605C38.3054 36.0364 37.8261 36.1559 37.3603 36.3176C36.9281 36.4776 36.5208 36.6982 36.1506 36.9727Z" fill="#4B3B3B"/>
<path d="M33.3852 30.4476C33.7125 30.6607 34.0175 30.9063 34.2956 31.1806C34.744 31.6067 35.2192 32.0038 35.7182 32.3694C36.7745 33.1132 37.7521 33.9609 38.8012 34.7089C40.9285 36.2216 43.1957 37.5129 45.3281 39.0178C47.4563 40.5024 49.4867 42.1226 51.4067 43.8683C53.4119 45.7317 55.2523 47.7492 57.1432 49.7132C58.0094 50.6886 58.9671 51.5786 60.0033 52.3709C60.5379 52.7415 61.3312 53.1676 61.616 52.3221C61.7782 51.7458 61.8325 51.1445 61.7763 50.5485C61.6482 48.0437 60.2071 45.7298 58.7321 43.7774C55.5237 39.5379 51.0159 36.5403 46.5025 33.854C43.9719 32.3512 41.3473 31.0333 38.7732 29.604C37.4723 28.8782 36.212 28.0902 34.9612 27.2773C34.3564 26.8853 33.753 26.4876 33.1603 26.0837C33.0218 25.9867 32.8661 25.8853 32.712 25.7782C33.0486 27.3164 33.2736 28.8769 33.3852 30.4476ZM34.176 28.2134C34.0356 28.1464 34.0939 27.9005 34.2512 27.9143C34.9976 28.0597 35.6931 28.3976 36.2688 28.8944C36.7404 29.2548 37.1878 29.6457 37.6083 30.0645C38.0875 30.4556 38.5939 30.8123 39.1235 31.1317C40.0593 31.655 41.0215 32.1296 42.0063 32.5536C42.9353 32.9627 43.8144 33.4768 44.6263 34.0859C45.5157 34.783 46.2385 35.6066 47.2231 36.195C49.0379 37.289 51.0719 38.0093 52.717 39.3807C54.4301 40.8679 55.8567 42.6558 56.9266 44.6562C56.9366 44.6733 56.9394 44.6937 56.9344 44.7129C56.9293 44.7321 56.9169 44.7485 56.8998 44.7585C56.8827 44.7685 56.8623 44.7713 56.8431 44.7663C56.8239 44.7613 56.8075 44.7489 56.7975 44.7318C56.1423 43.6313 55.3914 42.5906 54.5536 41.6219C54.7096 42.0119 54.8299 42.4228 54.9608 42.8275C55.2672 43.792 55.7704 44.6824 56.4386 45.4424C57.0306 46.1064 57.6639 46.7324 58.3347 47.3167C58.926 47.8484 59.4153 48.4836 59.7784 49.1911C59.7879 49.2072 59.7905 49.2265 59.7858 49.2446C59.7811 49.2627 59.7693 49.2782 59.7532 49.2877C59.737 49.2972 59.7177 49.2998 59.6996 49.2951C59.6815 49.2903 59.666 49.2786 59.6565 49.2624C59.4198 48.8368 59.1272 48.4447 58.7865 48.0967C58.4763 47.797 58.123 47.5225 57.7985 47.2311C57.0645 46.6523 56.393 45.9984 55.7949 45.2802C54.8204 44.0841 54.3355 42.5486 54.0519 41.0444C53.513 40.4728 52.9291 39.9454 52.3057 39.4674C51.0939 38.5403 49.6783 38.0212 48.3151 37.3945C49.0825 38.3026 49.6935 39.3793 50.5063 40.2416C51.679 41.4804 52.7371 42.7863 53.8059 44.086C53.8647 44.1863 53.7521 44.3148 53.6733 44.2213C52.5456 42.9032 51.4382 41.6117 50.2206 40.3703C49.2046 39.3059 48.2694 38.1673 47.4228 36.9638C47.098 36.8013 46.7822 36.6214 46.4768 36.4249C45.6379 35.8715 45.0739 35.0561 44.292 34.4357C43.6434 33.9376 42.9423 33.5119 42.2012 33.1663C42.2327 33.22 42.2621 33.2702 42.2936 33.324C42.5051 33.6622 42.6862 34.0184 42.8349 34.3885C43.0386 34.7734 43.2696 35.1433 43.526 35.4953C44.5258 36.9894 46.0163 38.1625 47.4874 39.1545C47.5595 39.2037 47.4984 39.3213 47.4227 39.2742C45.9299 38.4174 44.5843 37.3264 43.4375 36.0429C42.9364 35.4411 42.4973 34.7902 42.127 34.1002C41.9645 33.7923 41.7801 33.4965 41.5752 33.2151C41.3673 32.9707 41.1343 32.749 40.8799 32.5535C40.0515 32.1648 39.2478 31.7254 38.4733 31.2379C38.8874 32.0111 39.1303 32.8701 39.672 33.5734C39.9896 33.9844 40.3164 34.3947 40.6447 34.7994C40.973 35.204 41.2971 35.4042 41.5955 35.7494C41.6021 35.7559 41.6075 35.7637 41.6111 35.7723C41.6148 35.7808 41.6167 35.79 41.6168 35.7994C41.6169 35.8087 41.6152 35.818 41.6117 35.8266C41.6082 35.8353 41.603 35.8432 41.5965 35.8498C41.59 35.8565 41.5822 35.8618 41.5736 35.8655C41.5651 35.8691 41.5558 35.8711 41.5465 35.8712C41.5372 35.8713 41.5279 35.8695 41.5193 35.866C41.5106 35.8626 41.5027 35.8574 41.4961 35.8509C41.193 35.547 40.8309 35.3642 40.5479 35.0534C40.2649 34.7425 39.9956 34.414 39.7101 34.0661C39.1632 33.3808 38.6927 32.6377 38.3071 31.8503C37.9724 31.2349 37.5502 30.6714 37.0536 30.1774C36.8041 29.9705 36.5607 29.752 36.3233 29.5219C36.0874 29.3327 35.8372 29.1519 35.5882 28.9896C35.624 29.166 35.6581 29.3722 35.6578 29.3965C35.7069 29.6036 35.7852 29.8032 35.8549 30.0127C36.1003 30.5841 36.4531 31.103 36.8942 31.5414C36.9786 31.6364 36.8431 31.7831 36.753 31.6867C36.3251 31.2985 35.9588 30.8475 35.6667 30.3491C35.4629 29.8232 35.3062 29.2803 35.1984 28.7268C34.8427 28.5548 34.5105 28.3738 34.176 28.2134Z" fill="#E2F3F7"/>
<path d="M20.9004 5.55056C21.0209 6.01791 21.2163 6.46268 21.4788 6.86768C21.7597 7.24174 22.0743 7.58927 22.4187 7.9059C22.501 7.99727 22.5933 8.0973 22.6769 8.2072C22.6425 8.02439 22.5964 7.84398 22.5388 7.66711C22.3568 7.10945 22.0516 6.60459 21.8439 6.05234C21.6227 5.49163 21.4458 4.91446 21.3147 4.32611C21.1517 3.5683 21.1266 2.78731 21.2407 2.02061C21.1254 2.30244 21.0294 2.59179 20.9534 2.88666C20.7288 3.75841 20.7106 4.67055 20.9004 5.55056Z" fill="#4B3B3B"/>
<path d="M34.2512 27.9143C34.0939 27.9005 34.0356 28.1464 34.176 28.2134C34.5105 28.3738 34.8534 28.5485 35.1704 28.7528C35.2781 29.3064 35.4348 29.8493 35.6387 30.3751C35.9307 30.8735 36.297 31.3246 36.7249 31.7127C36.815 31.8092 36.9505 31.6624 36.8661 31.5675C36.4251 31.1291 36.0723 30.6101 35.8268 30.0388C35.7613 29.8364 35.6851 29.6404 35.6297 29.4225C35.6193 29.4046 35.5959 29.192 35.5601 29.0157C35.8133 29.1851 36.0635 29.3659 36.2952 29.548C36.5269 29.73 36.7755 29.9985 37.0255 30.2035C37.5221 30.6975 37.9444 31.261 38.279 31.8763C38.6647 32.6638 39.1351 33.4068 39.682 34.0922C39.9528 34.415 40.2239 34.7713 40.5198 35.0794C40.8157 35.3876 41.1835 35.5718 41.468 35.8769C41.4814 35.8901 41.4996 35.8974 41.5184 35.8972C41.5373 35.897 41.5553 35.8894 41.5684 35.8759C41.5816 35.8624 41.5889 35.8443 41.5887 35.8254C41.5885 35.8066 41.5808 35.7886 41.5674 35.7754C41.2691 35.4302 40.9111 35.197 40.6166 34.8254C40.3221 34.4539 39.9615 34.0104 39.6439 33.5995C39.1022 32.8962 38.8593 32.0372 38.4453 31.264C39.2197 31.7515 40.0234 32.1908 40.8518 32.5796C41.1062 32.7751 41.3392 32.9968 41.5471 33.2411C41.752 33.5226 41.9364 33.8184 42.0989 34.1262C42.4692 34.8163 42.9083 35.4672 43.4094 36.069C44.5562 37.3525 45.9018 38.4434 47.3946 39.3002C47.4703 39.3474 47.5272 39.2226 47.4593 39.1805C45.9882 38.1886 44.4977 37.0155 43.498 35.5214C43.2438 35.1678 43.0152 34.7965 42.814 34.4104C42.6653 34.0403 42.4841 33.684 42.2727 33.3459C42.2412 33.2921 42.2118 33.2419 42.1803 33.1881C42.9214 33.5338 43.6225 33.9594 44.2711 34.4575C45.053 35.078 45.599 35.9039 46.4559 36.4468C46.7589 36.6476 47.0725 36.832 47.3953 36.9991C48.2419 38.2026 49.1771 39.3412 50.1931 40.4056C51.4036 41.6512 52.5181 42.9385 53.6459 44.2566C53.7067 44.3606 53.8551 44.2112 53.7784 44.1213C52.7096 42.8216 51.6516 41.5157 50.4788 40.2769C49.666 39.4146 49.055 38.3379 48.2876 37.4298C49.6592 38.0709 51.0665 38.5756 52.2782 39.5028C52.9016 39.9808 53.4855 40.5081 54.0244 41.0797C54.308 42.5839 54.7929 44.1194 55.7674 45.3155C56.3656 46.0337 57.0371 46.6876 57.771 47.2664C58.1135 47.5473 58.4562 47.8039 58.759 48.1321C59.0997 48.4801 59.3924 48.8721 59.6291 49.2977C59.6385 49.3139 59.654 49.3257 59.6721 49.3304C59.6903 49.3351 59.7095 49.3325 59.7257 49.323C59.7418 49.3136 59.7536 49.2981 59.7583 49.2799C59.7631 49.2618 59.7604 49.2426 59.751 49.2264C59.3878 48.519 58.8985 47.8838 58.3072 47.352C57.6365 46.7677 57.0032 46.1417 56.4111 45.4778C55.7429 44.7177 55.2398 43.8273 54.9334 42.8628C54.8024 42.4582 54.6822 42.0472 54.5261 41.6573C55.364 42.6259 56.1148 43.6666 56.77 44.7671C56.78 44.7842 56.7965 44.7966 56.8156 44.8017C56.8348 44.8067 56.8552 44.8039 56.8723 44.7938C56.8894 44.7838 56.9019 44.7674 56.9069 44.7482C56.9119 44.7291 56.9091 44.7087 56.8991 44.6915C55.8293 42.6911 54.4026 40.9032 52.6895 39.416C51.0444 38.0446 49.0104 37.3244 47.1956 36.2304C46.211 35.6419 45.5011 34.8157 44.5989 34.1212C43.7857 33.5126 42.9054 32.9992 41.9752 32.591C40.9905 32.167 40.0283 31.6924 39.0925 31.1691C38.5628 30.8497 38.0565 30.493 37.5773 30.1019C37.1568 29.6831 36.7093 29.2922 36.2378 28.9318C35.6749 28.4263 34.9903 28.0756 34.2512 27.9143Z" fill="white"/>
<path d="M28.7739 19.1164C29.1718 19.3765 29.5406 19.6786 29.8741 20.0174C30.9279 19.235 31.7647 18.1968 32.3055 17.001C32.4725 16.6986 32.5615 16.3594 32.5644 16.0139C32.5673 15.6685 32.4839 15.3278 32.322 15.0227C32.0387 14.5388 31.2755 13.8929 30.6632 14.1214C30.2398 14.2778 30.2463 15.0537 30.2388 15.4191C30.2273 15.9332 30.1765 16.4457 30.0868 16.952C29.9182 17.8057 29.4532 18.5724 28.7739 19.1164Z" fill="#4B3B3B"/>
<path d="M35.4239 26.5877C35.5089 26.6342 35.5903 26.6828 35.6717 26.7314C36.2192 27.0527 36.7613 27.3595 37.2982 27.6517C37.6861 27.2173 38.1048 26.8113 38.551 26.437C39.218 25.8252 40.1063 24.9827 39.795 23.9905C39.6445 23.4866 39.2589 23.1732 38.7503 23.4228C38.2745 23.6716 37.8325 23.9805 37.4352 24.3418C36.6751 24.9652 36.0229 25.7096 35.5049 26.5451C35.4967 26.559 35.4847 26.5703 35.4704 26.5778C35.4562 26.5854 35.4401 26.5888 35.4239 26.5877Z" fill="#4B3B3B"/>
<path d="M30.0161 11.5112C30.2556 12.093 30.6114 12.6596 30.8093 13.2609C31.0216 13.2663 31.2317 13.3059 31.4314 13.3781C31.205 12.8162 31.0116 12.2415 30.8523 11.657C30.5574 10.668 30.3322 9.6595 30.1783 8.63899C30.0876 7.77951 30.1054 6.91205 30.2312 6.05702C30.2831 5.54535 30.3349 5.03367 30.3545 4.54089C30.3741 4.0481 30.3408 2.58512 29.643 2.61817C29.2181 2.64064 28.9668 3.54341 28.8714 3.93137C28.7776 4.44976 28.7456 4.97744 28.776 5.50337C28.7663 6.55005 28.8665 7.59486 29.075 8.62062C29.3009 9.61053 29.6159 10.578 30.0161 11.5112Z" fill="#4B3B3B"/>
<path d="M40.4012 23.8667C40.7798 23.6778 41.1776 23.5305 41.5879 23.4272C42.336 23.1991 43.0659 22.915 43.7714 22.5774C45.0572 21.9522 46.2928 21.2289 47.4674 20.4139C48.6946 19.4765 49.8459 18.4437 50.9105 17.3251C51.4466 16.8331 51.9357 16.2922 52.3714 15.7094C52.668 15.2952 53.2495 14.4302 53.1436 13.8135C52.6359 14.096 52.1765 14.4575 51.7826 14.8845C51.2628 15.3324 50.7659 15.8064 50.294 16.3046C49.3993 17.391 48.4022 18.3889 47.3165 19.2845C46.135 20.1013 44.8628 20.7782 43.5252 21.3016C42.8394 21.602 42.1348 21.87 41.4637 22.1955C41.1787 22.3334 40.9056 22.4836 40.629 22.636C40.5824 22.6632 40.2705 22.8458 40.016 22.9948C40.2186 23.2466 40.3514 23.5473 40.4012 23.8667Z" fill="#4B3B3B"/>
<path d="M54.4401 37.4238L53.5855 37.1395C54.2814 37.6707 54.9658 38.2231 55.6221 38.8016C55.6663 38.8049 55.7098 38.8152 55.7507 38.8322C57.9079 39.7547 59.6165 41.3826 61.7812 42.3343C62.9794 42.8215 64.2091 43.2274 65.462 43.549C66.5664 43.8651 67.6457 44.196 68.7642 44.3884C69.2802 44.5078 69.8059 44.5803 70.3349 44.6049C70.4886 44.6203 70.6437 44.6062 70.7921 44.5635C71.233 44.3054 70.9299 44.1411 70.7353 44.0143C70.4069 43.8159 70.0558 43.6578 69.6896 43.5435C68.5441 43.1407 67.3596 42.8521 66.1936 42.5046C63.9013 41.8201 61.6275 41.1343 59.5613 39.8987C58.5076 39.2167 57.4167 38.5938 56.2937 38.0331C55.6901 37.7889 55.0709 37.5854 54.4401 37.4238Z" fill="#4B3B3B"/>
<g style="mix-blend-mode:multiply" opacity="0.2">
<path d="M29.1613 18.8655C29.3622 18.4687 29.756 18.2864 30.0064 17.9329C30.2706 17.5265 30.5671 17.1421 30.893 16.7833C31.0184 16.6522 31.1345 16.5216 31.2392 16.3881C31.2975 16.2 31.3388 16.0074 31.3879 15.8198C31.4369 15.6323 31.6128 15.2502 31.567 15.0651C31.5213 14.8801 31.8374 14.7047 31.9313 14.9145C31.9984 15.0292 32.0593 15.1332 32.118 15.2335L32.1682 15.2042C32.3849 15.1303 32.4774 15.4034 32.3781 15.5627C32.3612 15.5866 32.3473 15.6125 32.3366 15.6399C32.4165 15.8192 32.4681 16.0099 32.4894 16.205C32.5352 16.6767 32.467 17.1524 32.2905 17.5921C32.1486 18.0523 31.9742 18.5017 31.7687 18.9372C31.661 19.1562 31.5137 19.3534 31.3343 19.5188C31.1739 19.656 30.9569 19.6964 30.818 19.821C30.754 19.8811 30.6769 19.9255 30.5927 19.9506C30.5085 19.9757 30.4197 19.9808 30.3332 19.9655C30.2467 19.9503 30.165 19.9151 30.0945 19.8627C30.024 19.8104 29.9667 19.7423 29.9271 19.6639L29.8006 19.6946C29.6933 19.7187 29.5814 19.7117 29.4779 19.6744C29.3745 19.6371 29.2838 19.571 29.2167 19.4839C29.1495 19.3968 29.1086 19.2923 29.0988 19.1828C29.089 19.0732 29.1107 18.9632 29.1613 18.8655Z" fill="#88524C"/>
</g>
<g style="mix-blend-mode:multiply" opacity="0.2">
<path d="M29.3506 9.80694C29.192 9.16883 29.0971 8.51653 29.0675 7.85966C29.0642 7.26109 29.1841 6.66825 29.4198 6.11803C29.4346 6.06151 29.4712 6.01317 29.5216 5.98366C29.5721 5.95414 29.6321 5.94587 29.6887 5.96065C29.7452 5.97543 29.7935 6.01206 29.823 6.06249C29.8526 6.11291 29.8608 6.17299 29.8461 6.22951C29.757 6.50777 29.6992 6.79507 29.6736 7.08612C29.682 7.38626 29.7241 7.68449 29.7994 7.97517C29.937 8.6214 30.126 9.2568 30.2965 9.89341C30.4312 10.4114 30.586 10.9224 30.7249 11.4476C30.7564 11.5014 30.7858 11.5515 30.8173 11.6053C31.075 12.0915 31.2875 12.6003 31.452 13.1254C31.4689 13.1804 31.4665 13.2395 31.4454 13.293C31.4242 13.3465 31.3854 13.3912 31.3355 13.4198C31.3607 13.4628 31.3859 13.5058 31.3824 13.5656C31.5152 13.9981 30.9246 14.1897 30.6903 13.8552C29.8965 12.6882 29.655 11.1738 29.3506 9.80694Z" fill="#88524C"/>
</g>
<g style="mix-blend-mode:multiply" opacity="0.2">
<path d="M13.2008 25.97C13.588 25.9407 13.9184 26.1516 14.2955 26.1956C14.6726 26.2396 15.1076 26.2016 15.5233 26.2374C16.404 26.3031 17.2796 26.4257 18.1446 26.6042C18.3856 26.646 18.3114 26.9879 18.0953 27.0133C17.6235 27.0296 17.1567 27.2354 16.6823 27.2965C16.2079 27.3576 15.6305 27.3827 15.1002 27.414C14.1913 27.4647 13.4836 27.4891 12.882 26.7246C12.8189 26.6627 12.7759 26.5833 12.7586 26.4967C12.7412 26.4101 12.7503 26.3202 12.7847 26.2389C12.8191 26.1575 12.8771 26.0883 12.9514 26.0404C13.0256 25.9924 13.1125 25.9679 13.2008 25.97Z" fill="#88524C"/>
</g>
<g style="mix-blend-mode:multiply" opacity="0.2">
<path d="M8.93605 21.7761C8.9115 21.7184 8.90881 21.6538 8.92848 21.5944C8.94815 21.5349 8.98883 21.4846 9.0429 21.4529C9.09697 21.4213 9.16072 21.4104 9.22221 21.4224C9.28371 21.4344 9.33874 21.4684 9.37698 21.518C9.88271 22.1846 10.2881 22.91 10.8117 23.5661C11.2784 24.1496 11.8228 24.6685 12.3003 25.2457C12.462 25.4398 12.2119 25.7114 12.025 25.532C10.8072 24.3725 9.63273 23.3609 8.93605 21.7761Z" fill="#88524C"/>
</g>
<g style="mix-blend-mode:multiply" opacity="0.2">
<path d="M16.6322 37.0534C17.1738 36.5957 17.831 36.296 18.5316 36.187C19.0872 36.1156 19.6509 36.1388 20.1987 36.2556C20.4665 36.2841 20.7314 36.3351 20.9907 36.4081C21.6547 36.597 21.3735 37.498 20.7276 37.4141C20.1991 37.3335 19.4807 37.6193 18.9634 37.7633C18.3653 37.9544 17.735 38.0238 17.1096 37.9676C17.0123 37.962 16.9186 37.9289 16.8394 37.8722C16.7602 37.8154 16.6987 37.7374 16.6621 37.6472C16.6205 37.6105 16.5868 37.5659 16.5627 37.516C16.5387 37.4661 16.5248 37.4119 16.522 37.3566C16.5193 37.3012 16.5276 37.2459 16.5465 37.1938C16.5654 37.1418 16.5945 37.094 16.6322 37.0534Z" fill="#88524C"/>
</g>
<g style="mix-blend-mode:multiply" opacity="0.2">
<path d="M8.14372 41.974C8.73393 41.5828 9.3455 41.2248 9.97558 40.9017C10.6137 40.5282 11.259 40.1505 11.916 39.8092C12.573 39.468 13.219 39.2149 13.8539 38.877C14.4888 38.5391 15.1947 38.3472 15.8493 38.0266C16.0286 37.9217 16.2007 38.2157 16.013 38.3062C15.392 38.6708 14.7981 39.0796 14.2358 39.5295C13.6106 39.958 12.9639 40.3414 12.3093 40.7197C11.0654 41.4479 9.87547 42.3177 8.49093 42.8056C7.96317 42.9894 7.75244 42.2512 8.14372 41.974Z" fill="#88524C"/>
</g>
<g style="mix-blend-mode:multiply" opacity="0.2">
<path d="M32.3104 48.7653C31.5369 47.0641 31.0716 45.239 30.9362 43.3751C30.819 42.4823 30.7955 41.5797 30.8663 40.6821C31.0001 39.7759 31.2634 38.9431 31.4696 38.0619C31.4731 38.0416 31.481 38.0224 31.4927 38.0055C31.5044 37.9886 31.5197 37.9744 31.5375 37.964C31.5552 37.9536 31.575 37.9472 31.5955 37.9453C31.616 37.9434 31.6366 37.9459 31.656 37.9528C31.5035 37.5607 31.4837 37.091 32.0009 37.029C31.9872 36.9393 31.9945 36.8477 32.0223 36.7613C31.9201 36.7494 31.8259 36.6998 31.7581 36.6224C31.3429 36.0198 31.0684 35.3317 30.9549 34.6089C30.7576 33.8195 30.6409 33.0118 30.4379 32.221C30.0301 30.5437 29.4809 28.904 28.7961 27.3195C28.125 25.8111 26.9664 24.6459 25.7636 23.545C25.1966 22.9992 24.573 22.5156 23.9034 22.1021C23.1368 21.7279 22.4916 21.1444 22.0423 20.4191C21.9771 20.2997 21.9455 20.1648 21.9506 20.0288C21.9557 19.8928 21.9974 19.7607 22.0713 19.6465C22.0599 19.5859 22.0577 19.5239 22.0648 19.4626L21.9099 19.4859C21.5031 19.5555 21.1101 20.06 20.7959 20.3209C20.5522 20.5531 20.3567 20.831 20.2207 21.1389C19.9876 21.5374 19.7076 21.9065 19.3866 22.2384C19.2031 22.4155 18.9674 22.5285 18.7145 22.5608C18.4615 22.5931 18.2049 22.5429 17.9828 22.4176C17.7608 22.2923 17.5851 22.0986 17.4819 21.8655C17.3788 21.6323 17.3536 21.372 17.4103 21.1234L17.4525 20.9736C17.2669 21.0047 17.0762 20.9699 16.9136 20.8751C16.7152 20.739 16.5478 20.5624 16.4226 20.357C16.2973 20.1516 16.217 19.9219 16.187 19.6832C16.1518 19.5161 16.1222 19.3505 16.0906 19.1813C16.0764 19.1078 16.0601 19.0306 16.0403 18.9556C16.0204 18.8806 15.9688 18.7183 16.0147 18.8214C15.9365 18.691 15.8873 18.5452 15.8704 18.394C15.8536 18.2429 15.8695 18.0899 15.9171 17.9454C15.9647 17.801 16.0428 17.6685 16.1462 17.5569C16.2495 17.4453 16.3757 17.3573 16.5161 17.2989C16.6566 17.2404 16.8079 17.2129 16.9599 17.2182C17.1119 17.2235 17.261 17.2614 17.397 17.3294C17.533 17.3975 17.6528 17.494 17.7482 17.6125C17.8436 17.7309 17.9124 17.8686 17.9498 18.016C18.0754 18.3823 18.1657 18.7597 18.2197 19.1431L18.2676 19.3894C18.4081 19.1207 18.5891 18.8752 18.8041 18.6614C19.0618 18.4191 19.3064 18.2615 19.5483 18.0333C19.7105 17.8742 19.8815 17.7244 20.0604 17.5843C19.9085 17.4115 19.8037 17.2024 19.7562 16.9772C19.7088 16.7521 19.7202 16.5185 19.7894 16.299C19.8358 16.1234 19.9385 15.9678 20.0818 15.8562C20.225 15.7445 20.4009 15.6828 20.5826 15.6807C20.8059 15.69 21.0245 15.7487 21.2225 15.8525C21.4206 15.9562 21.5932 16.1025 21.7281 16.2808C21.8292 16.4167 21.9151 16.5634 21.9841 16.7182C22.0051 16.754 22.089 16.8974 22.0954 16.9659C22.4604 16.9399 22.8318 16.9247 23.1836 16.868C23.6324 16.7838 24.0681 16.6405 24.4791 16.4417C24.377 16.4686 24.27 16.4719 24.1664 16.4512C24.0627 16.4305 23.9652 16.3864 23.8812 16.3222C23.7973 16.2581 23.7291 16.1756 23.6818 16.0811C23.6346 15.9866 23.6095 15.8825 23.6086 15.7768C23.6332 15.2475 23.8552 14.7467 24.2308 14.373C24.5145 14.0625 24.6892 13.6679 24.7282 13.2492C24.7366 13.0746 24.8118 12.91 24.9383 12.7893C25.0647 12.6687 25.2327 12.6012 25.4074 12.6009C25.5822 12.6006 25.7504 12.6675 25.8772 12.7877C26.0041 12.9079 26.0799 13.0723 26.0889 13.2468C26.1627 13.8253 26.1015 14.4131 25.91 14.964C25.7306 15.4764 25.3864 15.9149 24.9312 16.2108C25.1104 16.1059 25.3128 16.0404 25.5088 15.9641C26.8974 15.4256 27.596 17.8854 26.2352 18.2247L25.6222 18.5835C26.0047 18.6229 26.3805 18.712 26.74 18.8486C28.2534 19.4641 29.5517 20.5123 30.4725 21.862C31.3908 23.2332 32.0324 24.7706 32.3612 26.3878C32.6163 27.3184 32.7912 28.2692 32.884 29.2296C33.1822 29.3091 33.462 29.4462 33.7075 29.6332C34.1878 29.9441 34.6682 30.2549 35.1522 30.5636C35.2251 30.6056 35.2891 30.6616 35.3404 30.7283C35.3917 30.795 35.4294 30.8712 35.4512 30.9525C35.4954 31.1166 35.4726 31.2916 35.3878 31.4389C35.3029 31.5862 35.1631 31.6938 34.9989 31.738C34.8348 31.7822 34.6598 31.7593 34.5125 31.6745C34.0517 31.4629 33.5945 31.2492 33.1471 30.9865C33.022 30.9192 32.9019 30.8432 32.7876 30.7589C32.7635 30.8821 32.7344 31.005 32.7003 31.1277C32.6439 31.3095 32.5267 31.4664 32.3685 31.5722C32.7512 33.1497 32.8333 34.7851 32.6105 36.393L32.621 36.4109L32.6622 36.4156C33.7206 36.6569 34.7454 37.0269 35.7137 37.5173L35.746 37.4984C36.3876 37.0737 37.1163 36.7984 37.8785 36.693C38.2124 36.6467 38.546 36.567 38.8802 36.5542C39.2292 36.5941 39.5813 36.5976 39.9309 36.5649C40.0413 36.5354 40.1589 36.5509 40.2578 36.6081C40.3567 36.6653 40.4289 36.7594 40.4584 36.8698C40.4879 36.9802 40.4723 37.0978 40.4152 37.1967C40.358 37.2956 40.2638 37.3678 40.1535 37.3973C39.5319 37.6263 38.9055 37.839 38.2785 38.0424C37.9324 38.1583 37.5771 38.2749 37.2121 38.3585C37.8122 38.7341 38.392 39.1407 38.9565 39.5707C40.8472 41.0202 42.588 42.6553 44.1528 44.4516C45.7615 46.2871 46.4921 48.4971 47.1396 50.8039C47.7273 52.9098 48.7412 55.4641 47.9079 57.6173C47.8913 57.6591 47.8716 57.6996 47.8488 57.7385C47.9602 58.5758 48.0246 59.4187 48.0416 60.2633C48.036 60.7142 47.8932 61.1443 47.8556 61.5899L48.0087 62.049C48.1657 62.4542 48.2712 62.8776 48.3228 63.3091C48.3622 63.5173 48.339 63.7325 48.2561 63.9275C48.1732 64.1225 48.0344 64.2886 47.8571 64.4047L47.8249 64.4236C47.6736 64.51 47.5024 64.5555 47.3281 64.5554C47.1539 64.5554 46.9827 64.5099 46.8315 64.4234C46.6802 64.3369 46.5542 64.2125 46.4658 64.0624C46.3773 63.9122 46.3296 63.7417 46.3274 63.5674C46.3069 63.179 46.2129 62.7979 46.0503 62.4445C45.8695 61.9054 45.6958 61.362 45.5407 60.8175C45.2602 59.7702 44.9206 58.7397 44.5233 57.7309C43.6405 55.639 42.6309 53.5442 41.5811 51.5451C39.4226 47.4467 36.5577 43.7858 33.543 40.2801C32.9942 39.6387 32.3393 38.9968 31.8461 38.294C31.8251 38.2581 31.8041 38.2223 31.7832 38.1864C31.7503 38.6581 31.7679 39.1318 31.8355 39.5997C31.8547 40.0025 31.8359 40.4226 31.8822 40.8142C31.9894 41.6969 32.1584 42.571 32.3882 43.43C32.7281 45.1503 33.3137 46.8126 34.1272 48.366C34.9281 49.8935 35.8495 51.3548 36.8825 52.736C37.4398 53.4495 38.025 54.1369 38.5966 54.842C39.1682 55.547 39.7582 56.1932 40.028 57.0653C40.2065 57.625 39.588 57.9582 39.1213 57.7693C38.2601 57.3216 37.5101 56.6866 36.9265 55.911C36.3298 55.2206 35.7708 54.4794 35.2165 53.7545C34.0652 52.2048 33.0905 50.5313 32.3104 48.7653ZM24.8492 17.7316C24.8462 17.5457 24.8214 17.5361 24.7753 17.7123L24.8492 17.7316Z" fill="#88524C"/>
</g>
<g style="mix-blend-mode:multiply" opacity="0.2">
<path d="M26.5739 50.814C26.5107 50.5381 26.4168 50.2702 26.294 50.0152C26.206 49.7285 26.1364 49.4365 26.0855 49.1409C25.9814 48.5289 25.9404 47.9077 25.9631 47.2873C25.9384 45.9541 25.925 44.6238 25.8219 43.2883C25.7695 42.6644 25.695 42.0438 25.6633 41.4222C25.5864 40.7308 25.4547 40.0467 25.2694 39.3761C25.1285 38.7078 25.0353 38.0307 24.8944 37.3623C24.7535 36.694 24.8807 35.9986 24.6881 35.3653C24.6805 35.3222 24.688 35.2779 24.7092 35.2397C24.7304 35.2015 24.7641 35.1717 24.8046 35.1553C24.8451 35.1389 24.89 35.1369 24.9318 35.1496C24.9737 35.1623 25.0099 35.189 25.0344 35.2251C25.1918 35.494 25.4274 35.7074 25.6027 35.9658C25.7692 36.243 25.8932 36.5435 25.9707 36.8575C26.1798 37.5437 26.3626 38.226 26.5395 38.9311C26.747 39.6254 26.9142 40.331 27.0402 41.0446C27.1301 41.7573 27.1943 42.4754 27.2749 43.1887C27.4655 44.5843 27.5337 45.9939 27.4786 47.4013C27.4567 47.7174 27.4012 48.0338 27.4014 48.3466C27.4016 48.6593 27.4808 49.0414 27.4649 49.3924C27.4694 49.9402 27.3755 50.4843 27.1874 50.9988C27.036 51.2992 26.6036 51.095 26.5739 50.814Z" fill="#88524C"/>
</g>
<g style="mix-blend-mode:multiply" opacity="0.2">
<path d="M29.8666 65.4922C29.6754 64.9928 29.5056 64.4809 29.338 63.9726C29.0275 63.0473 28.8598 62.0866 28.5585 61.1607C28.2572 60.2349 27.9657 59.26 27.6811 58.3051C27.3965 57.3502 27.4032 56.4654 27.1809 55.5511C27.1201 55.3075 27.504 55.1165 27.6138 55.3699C28.3508 57.114 28.9593 58.8853 29.589 60.6682C29.9118 61.5815 30.0738 62.5407 30.3787 63.4645C30.5463 63.9728 30.7175 64.4791 30.9016 64.9826C31.0718 65.4872 31.212 66.0013 31.3216 66.5224C31.3408 66.6056 31.33 66.6929 31.291 66.7689C31.252 66.8448 31.1874 66.9045 31.1086 66.9374C31.0298 66.9702 30.9419 66.9741 30.8605 66.9484C30.7791 66.9226 30.7095 66.8689 30.6639 66.7967C30.3456 66.3963 30.0778 65.9581 29.8666 65.4922Z" fill="#88524C"/>
</g>
<g style="mix-blend-mode:multiply" opacity="0.2">
<path d="M36.7572 31.5542C38.6883 32.8304 40.7249 33.9004 42.6951 35.1201C44.4768 36.2479 46.308 37.3371 47.8874 38.7278C49.5822 40.203 51.1504 41.8176 52.5756 43.5547C54.0273 45.3522 55.419 47.2281 56.9432 48.9687C57.1184 49.1694 56.8381 49.4634 56.6414 49.2754C53.5406 46.0173 50.4454 42.7031 46.9887 39.8074C45.3353 38.5077 43.5837 37.3381 41.7497 36.3089C39.7819 35.1263 37.7066 34.1463 35.9026 32.709C35.2512 32.2047 36.0739 31.1022 36.7572 31.5542Z" fill="#88524C"/>
</g>
<g style="mix-blend-mode:multiply" opacity="0.2">
<path d="M37.3477 26.9633C37.2082 26.761 37.1433 26.5165 37.1643 26.2717C37.2445 25.9895 37.3688 25.7218 37.5326 25.4785C37.878 24.9009 38.2094 24.1678 38.8162 23.8559C39.3528 23.5803 40.1536 24.0357 39.9292 24.6965C39.7182 25.2358 39.4191 25.7362 39.044 26.1774C38.8725 26.3825 38.6802 26.5693 38.4701 26.7347C38.3127 26.8605 38.0969 26.9194 37.9467 27.041C37.7965 27.1627 37.4569 27.2074 37.3477 26.9633Z" fill="#88524C"/>
</g>
<g style="mix-blend-mode:multiply" opacity="0.2">
<path d="M40.7789 22.9332C41.2904 22.6723 41.6755 22.2448 42.1765 21.9659C42.6775 21.6871 43.1193 21.4141 43.5778 21.112C44.0363 20.8099 44.5918 20.5665 45.1084 20.2979C45.5987 20.0086 46.1216 19.7785 46.6661 19.6123C46.7356 19.5964 46.8083 19.6007 46.8754 19.6247C46.9426 19.6487 47.0015 19.6915 47.0452 19.7479C47.0888 19.8044 47.1154 19.8721 47.1218 19.9432C47.1282 20.0142 47.1142 20.0856 47.0813 20.149C46.4576 21.1638 45.117 21.472 44.1339 22.062C43.1265 22.6136 42.0524 23.0337 40.938 23.3118C40.7171 23.3785 40.5662 23.0385 40.7789 22.9332Z" fill="#88524C"/>
</g>
<g style="mix-blend-mode:multiply" opacity="0.2">
<path d="M57.8319 39.7318C60.2014 40.5974 62.7461 41.1294 64.8825 42.5261C65.2327 42.7543 65.0371 43.3741 64.5926 43.2396C63.3848 42.8685 62.2177 42.3761 61.1091 41.7699C59.9878 41.17 58.8159 40.7056 57.6767 40.1162C57.4706 40.0107 57.607 39.6517 57.8319 39.7318Z" fill="#88524C"/>
</g>
<g style="mix-blend-mode:multiply" opacity="0.2">
<path d="M27.6229 43.7503C27.7337 42.9201 28.5035 42.4262 29.1439 41.9743C29.6349 41.6291 30.2802 42.4354 29.8009 42.8171C29.471 43.0462 29.1775 43.3235 28.9299 43.6398C28.6889 43.9927 28.48 44.269 28.0177 44.2604C27.9559 44.259 27.8952 44.2438 27.8401 44.2159C27.7849 44.1881 27.7366 44.1482 27.6988 44.0994C27.661 44.0505 27.6345 43.9938 27.6214 43.9334C27.6083 43.873 27.6088 43.8105 27.6229 43.7503Z" fill="#88524C"/>
</g>
<g style="mix-blend-mode:multiply" opacity="0.2">
<path d="M29.4962 28.1948C29.2801 27.0531 28.9613 25.9332 28.5436 24.8489C28.1845 23.84 27.6195 22.9169 26.8846 22.138C26.5067 21.772 26.061 21.4793 25.6744 21.1232C25.3528 20.7755 24.9713 20.4886 24.548 20.276C23.6053 19.8989 23.9265 18.392 24.9577 18.6982C25.9888 19.0043 26.8628 19.8067 27.7709 20.4207C28.8464 21.1832 29.7153 22.2013 30.2993 23.3832C30.8828 24.5855 31.325 25.8514 31.617 27.1556C31.9237 28.5018 32.2052 29.805 31.963 31.1838C31.9283 31.3089 31.8617 31.4229 31.7697 31.5147C31.6778 31.6064 31.5637 31.6728 31.4384 31.7073C31.3132 31.7418 31.1812 31.7433 31.0553 31.7116C30.9293 31.68 30.8137 31.6162 30.7197 31.5265C29.9121 30.5168 29.7364 29.4356 29.4962 28.1948Z" fill="#88524C"/>
</g>
<g style="mix-blend-mode:multiply" opacity="0.2">
<path d="M44.968 55.8101C44.6767 54.9506 44.3059 54.128 43.973 53.288C43.3243 51.5801 42.5707 49.9138 41.7167 48.2986C39.8997 44.9726 37.2225 42.2656 35.0554 39.1637C34.6563 38.5887 35.532 37.9221 36.0168 38.4133C36.7074 39.1161 37.5223 39.645 38.2684 40.2864C39.0145 40.9278 39.6494 41.5766 40.3205 42.2379C41.7928 43.6611 43.0823 45.262 44.1594 47.0036C45.1461 48.715 46.0031 50.498 46.7233 52.3375C47.1007 53.1927 47.3725 54.0906 47.5329 55.0115C47.6033 55.4853 47.6877 55.9749 47.7139 56.4554C47.7735 56.9732 47.7342 57.4976 47.5981 58.0008C47.556 58.1472 47.4771 58.2805 47.369 58.3879C47.2608 58.4952 47.127 58.5731 46.9803 58.6142C46.8335 58.6552 46.6787 58.658 46.5305 58.6223C46.3824 58.5866 46.2458 58.5136 46.1339 58.4102C45.4898 57.7621 45.2594 56.6696 44.968 55.8101Z" fill="#88524C"/>
</g>
<path opacity="0.2" d="M20.3922 23.2574C20.944 21.9717 22.8378 22.8799 22.567 24.1359C22.534 24.2851 22.7759 24.6489 22.8329 24.7792C23.0175 25.1782 23.2302 25.5636 23.4694 25.9324C23.9913 26.6574 24.5618 27.3462 25.1768 27.9941C25.7729 28.6753 26.3848 29.3423 26.9333 30.0657C27.1293 30.3264 27.3109 30.5955 27.4838 30.8745C27.6568 31.1535 27.8246 31.6377 27.9002 31.7667C27.9829 31.911 28.0268 32.0743 28.0274 32.2406C28.028 32.4069 27.9854 32.5705 27.9037 32.7154C27.8221 32.8603 27.7041 32.9814 27.5615 33.067C27.4189 33.1525 27.2565 33.1996 27.0903 33.2035C26.1025 33.3003 25.3287 32.7184 24.7072 32.0185C23.9752 31.1956 23.2841 30.3439 22.5873 29.4907C21.3046 27.8831 19.4533 25.4194 20.3922 23.2574Z" fill="white"/>
<path opacity="0.2" d="M35.831 51.3589C34.5182 48.8931 33.3296 46.3631 32.2697 43.7785C32.1202 43.5005 32.0818 43.1761 32.1622 42.8709C32.2426 42.5656 32.4358 42.3022 32.7029 42.134C32.9784 41.9764 33.3048 41.9332 33.6118 42.0135C33.9189 42.0938 34.1822 42.2913 34.3454 42.5635C34.9695 43.8106 35.5864 45.0619 36.2356 46.2943C36.8848 47.5267 37.6395 48.6926 38.3592 49.8645C39.8108 52.254 41.6542 54.4576 42.5577 57.144C42.8779 58.1021 41.6331 58.6479 40.966 58.0757C38.8272 56.2472 37.2008 53.8059 35.831 51.3589Z" fill="white"/>
<path d="M0.589999 43.9362C0.55958 43.9878 0.543704 44.0468 0.544058 44.1067C0.544412 44.1667 0.560979 44.2254 0.592005 44.2767C1.29682 45.3081 3.14407 44.9199 4.14477 44.6807C5.74476 44.2976 7.33197 43.7777 8.892 43.2688C10.3973 42.7698 11.8247 42.0607 13.1317 41.1625C13.7775 40.7363 14.4068 40.315 15.0134 39.83C15.3425 39.57 15.6135 39.2765 15.925 39.0028C16.1669 38.7357 16.4523 38.5116 16.7693 38.3401C16.8181 38.3264 16.8625 38.3004 16.8983 38.2645C17.2952 38.4342 17.7313 38.4904 18.1583 38.4271C19.1801 38.2516 20.1922 38.0238 21.1906 37.7447C21.1873 38.3146 21.1804 38.8866 21.1585 39.4577C21.0602 42.2828 20.9093 45.1003 20.9549 47.9327C20.97 50.3468 21.1125 52.7585 21.3817 55.1577C21.2255 55.4997 21.1019 55.8557 21.0125 56.2209C20.8559 56.8661 20.6368 57.495 20.5314 58.1535C20.3788 59.4201 20.3342 60.6973 20.3981 61.9714C20.429 63.3689 20.309 64.7656 20.0402 66.1373C19.7592 67.5485 19.4611 68.9551 19.1382 70.3523C18.8438 71.6172 18.3412 73.028 18.4652 74.3417C18.5476 75.2224 19.2679 75.6719 19.9228 74.9324C20.6482 74.1324 20.8498 72.8158 21.1826 71.8221C21.6077 70.5336 21.8591 69.1542 22.1663 67.8289C22.5571 66.3202 22.7697 64.771 22.7998 63.2128C22.8006 62.519 22.7399 61.8265 22.6184 61.1434C22.9063 62.0853 23.2496 63.0094 23.6464 63.9109C24.6698 66.2431 26.0495 68.6411 28.1576 70.1458C28.9841 70.7353 30.1138 71.4073 31.1611 71.3381C32.3794 71.2651 32.5972 69.968 32.4947 68.9788C32.2987 67.6914 31.9858 66.4247 31.5597 65.1942C31.1473 63.7991 30.697 62.4214 30.2596 61.0409C29.4439 58.3334 28.8041 55.576 28.3443 52.786C27.9765 50.551 27.7431 48.296 27.6452 46.0331C28.3134 44.941 29.0983 43.9247 29.9863 43.0022L30.0288 43.6175C30.2214 46.066 30.754 48.4758 31.6111 50.7774C32.4997 53.0719 33.7988 55.1853 35.4448 57.0142C37.0734 58.7903 38.8968 60.3773 40.8807 61.7452C42.7293 63.0697 45.0364 64.429 47.4048 64.4625C47.4998 64.5098 47.6061 64.5296 47.7117 64.5196C47.8173 64.5097 47.918 64.4704 48.0025 64.4063C48.0999 64.3632 48.1836 64.2942 48.2445 64.2068C48.3053 64.1194 48.341 64.0169 48.3476 63.9106C49.4744 61.8312 49.4235 59.1704 49.1689 56.8936C48.9474 54.4941 48.4564 52.1271 47.705 49.8375C46.9156 47.5073 45.7103 45.3394 44.1474 43.4392C42.5602 41.5641 40.7184 39.9204 38.6754 38.556L38.1598 38.2178C39.3988 37.8952 40.6693 37.7083 41.9488 37.6604C43.8751 38.8529 45.7282 40.1598 47.4982 41.574C49.6989 43.3457 51.7828 45.2578 53.7369 47.2983C54.7264 48.3555 55.7108 49.4206 56.7218 50.4653C57.586 51.44 58.5386 52.3325 59.5676 53.1314C60.3835 53.703 61.6104 54.1544 62.2742 53.1258C62.8409 52.2357 62.818 50.9303 62.7085 49.921C62.4251 47.3482 61.0132 44.9691 59.4807 42.9349C58.8861 42.1494 58.2473 41.3985 57.5673 40.6857C58.1068 41.1257 58.6821 41.5199 59.2871 41.8642C60.6691 42.5976 62.1326 43.1658 63.6474 43.5571C64.9534 43.9381 66.2793 44.3942 67.6144 44.6523C68.6403 44.8508 69.8905 45.3175 70.9397 45.0788C71.8988 44.859 71.8596 44.0108 71.1382 43.5186C70.0571 42.7652 68.5772 42.5148 67.3302 42.1522C65.9467 41.7539 64.5742 41.3251 63.2133 40.8751C61.8856 40.4379 60.609 39.8587 59.4056 39.1475C58.317 38.4672 57.1721 37.8814 55.9836 37.3964C55.3649 37.1617 54.7021 37.0491 54.0629 36.8697C53.701 36.7675 53.3299 36.701 52.9551 36.6711C50.9962 35.261 48.9642 33.9553 46.8677 32.7594C44.4203 31.333 41.8862 30.0873 39.3747 28.7899C38.8696 28.5272 38.3674 28.2532 37.8689 27.977C38.6003 27.2423 39.2943 26.4713 39.9486 25.6671C40.2106 25.3257 40.3737 24.9189 40.4201 24.491C40.4688 24.4772 40.5132 24.4512 40.5492 24.4155C40.8551 24.2226 41.1914 24.0827 41.5439 24.0016C41.9423 23.8599 42.3272 23.7693 42.7115 23.6118C43.4278 23.3224 44.1069 22.9779 44.7911 22.6255C46.2142 21.9256 47.5313 21.0282 48.7034 19.9599C49.9004 18.8309 51.1414 17.7194 52.2587 16.5118C52.9572 15.7564 54.1918 14.3214 53.6459 13.2162C53.6164 13.1641 53.5732 13.1209 53.5211 13.0912C53.469 13.0615 53.4099 13.0465 53.3499 13.0477C52.7956 13.1231 52.2787 13.3701 51.8718 13.7541C51.3104 14.2175 50.7511 14.6845 50.2136 15.1724C49.1214 16.168 48.262 17.3641 47.1126 18.3113C45.8531 19.2627 44.4738 20.0442 43.0102 20.6356C41.8461 21.163 40.4777 21.6704 39.5795 22.6438C38.923 22.3446 38.1474 22.919 37.568 23.3929C36.5912 24.1909 35.6509 25.2323 35.3601 26.4951C35.3606 26.5067 35.3639 26.518 35.3697 26.528C35.3756 26.538 35.3838 26.5464 35.3937 26.5524C34.8888 26.2656 34.387 25.9673 33.877 25.6882C33.4459 25.4758 33.0275 25.2386 32.6237 24.9779C32.4925 24.0324 32.1867 23.1195 31.7218 22.2858C31.3581 21.6891 30.9358 21.1301 30.461 20.6172C31.5972 19.6288 32.4948 18.3958 33.0862 17.0109C33.3169 16.4749 33.367 15.8785 33.2288 15.3116C33.0906 14.7447 32.7717 14.2382 32.3202 13.8686C31.8297 12.9107 31.4289 11.9095 31.123 10.8777C30.7325 9.82193 30.4778 8.72084 30.3648 7.60087C30.288 6.01417 31.1486 4.10494 30.325 2.5992C30.0669 2.15827 29.5146 1.77398 29.0347 2.14637C28.5547 2.51876 28.2602 3.47093 28.1827 4.04573C27.9575 5.84919 28.0612 7.67854 28.489 9.44496C28.7973 10.8601 29.3554 12.2089 30.1371 13.4282C29.9379 13.5698 29.7701 13.751 29.6443 13.9605C29.5184 14.17 29.4372 14.4033 29.4058 14.6456C29.2755 15.2947 29.3659 15.9589 29.2542 16.6067C29.1806 17.0288 29.043 17.4371 28.8464 17.8177C28.697 18.1778 28.488 18.5101 28.228 18.8006C28.0963 18.7236 27.9632 18.6524 27.8279 18.5775C27.5069 18.4063 27.1748 18.2565 26.834 18.1293C26.9851 17.9092 27.082 17.6565 27.117 17.3918C27.1519 17.1272 27.1238 16.858 27.035 16.6062C26.8844 16.1171 26.5667 15.6966 26.1374 15.4181C26.2676 15.2058 26.3762 14.9809 26.4617 14.747C26.6541 14.4266 26.718 14.0452 26.6406 13.6795C26.6038 13.3727 26.501 13.0774 26.3393 12.8139C26.1776 12.5505 25.9609 12.3252 25.704 12.1534C25.4515 11.975 25.1597 11.8602 24.8534 11.8186C24.6375 11.7428 24.4144 11.6895 24.1876 11.6596C23.7965 11.6113 23.3997 11.6774 23.0454 11.8498C22.691 12.0222 22.3942 12.2936 22.1908 12.6311C22.0564 12.8373 21.9509 13.061 21.8773 13.296C21.6626 13.2119 21.4364 13.1609 21.2064 13.1448C21.2772 13.0003 21.3555 12.8597 21.441 12.7234C21.8316 12.1819 22.1797 11.6172 22.5915 11.0873C23.1427 10.3844 23.7243 9.37981 23.5249 8.44722C23.2643 7.17984 22.26 6.1794 21.8751 4.9463C21.6453 4.2404 21.5165 3.50553 21.4927 2.76355C21.5381 2.17541 21.622 1.59087 21.7439 1.0137C21.7474 0.97948 21.7375 0.945242 21.7162 0.918175C21.695 0.891107 21.6641 0.873318 21.63 0.868557C21.609 0.832708 21.548 0.810681 21.529 0.860344C21.5078 0.869481 21.489 0.883532 21.4744 0.901336C21.4597 0.91914 21.4494 0.94018 21.4445 0.962725L21.4109 1.10271C21.2684 1.36904 21.0912 1.61718 20.9663 1.89724C20.8504 2.18921 20.7539 2.48852 20.6773 2.79319C20.4351 3.55987 20.3448 4.36642 20.4115 5.16767C20.5098 5.99723 20.8088 6.79033 21.2827 7.47825C21.5141 7.82415 21.8341 8.07482 22.0648 8.41145C22.1866 8.599 22.2815 8.80266 22.3468 9.01651C22.2933 9.03339 22.2412 9.05426 22.1908 9.07894C21.9674 9.22807 21.7598 9.3996 21.5712 9.59087C21.1802 9.98365 20.824 10.4096 20.5065 10.8638C19.9987 11.575 19.5488 12.6566 19.7165 13.5596C19.3594 13.8358 19.0476 14.1661 18.7925 14.5385C18.3428 14.578 17.9021 14.6882 17.4867 14.8649C16.7813 14.2766 15.618 14.1393 14.7492 14.2339C14.199 14.2876 13.6544 14.389 13.1216 14.5369C12.8614 14.6087 12.609 14.7065 12.3683 14.8287C12.3223 14.8607 12.2786 14.896 12.2375 14.9341C12.083 14.7725 11.9519 14.59 11.848 14.392C11.6632 14.0188 11.6013 13.6171 11.4208 13.2511C11.0511 12.5022 10.5063 11.8536 9.83258 11.3602C9.16796 10.9091 8.42167 10.5923 7.63559 10.4273C7.33152 10.3442 7.022 10.2825 6.7093 10.2427C6.40756 10.2124 6.10083 10.2475 5.79883 10.2414C5.75336 10.2295 5.70938 10.2119 5.66033 10.2022C5.63898 10.1954 5.61631 10.1938 5.59422 10.1975C5.57213 10.2013 5.55125 10.2102 5.53329 10.2236C5.48066 10.2159 5.45801 10.2676 5.49097 10.3157C5.48661 10.3322 5.48555 10.3493 5.48783 10.3661C5.49012 10.3829 5.49572 10.3992 5.5043 10.4138C5.51288 10.4285 5.52428 10.4413 5.53784 10.4515C5.5514 10.4618 5.56685 10.4692 5.5833 10.4735C6.14515 10.6529 6.69573 10.8658 7.23207 11.1111C7.86745 11.4944 8.4442 11.9674 8.9445 12.5154C9.82497 13.4439 10.2226 14.814 11.1894 15.668C11.905 16.2984 13.0621 16.2853 13.9484 16.1467C14.61 16.0434 15.2728 16.0164 15.9383 15.9445C16.099 15.9367 16.2599 15.9372 16.4206 15.9462C16.3218 16.1535 16.2566 16.3753 16.2275 16.6031C15.9853 16.553 15.7374 16.5361 15.4907 16.5531C15.0968 16.5652 14.7148 16.6911 14.391 16.9157C14.0672 17.1403 13.8154 17.4539 13.666 17.8185C13.581 18.0309 13.5182 18.2516 13.4786 18.4769C13.3537 18.7667 13.3023 19.0828 13.329 19.3972C13.3531 19.7052 13.4431 20.0045 13.593 20.2746C13.7429 20.5448 13.949 20.7797 14.1976 20.9632C14.4802 21.2091 14.8451 21.3392 15.2195 21.3277C15.464 21.3696 15.7121 21.3856 15.9599 21.3756C15.994 21.886 16.2064 22.3682 16.56 22.7378C16.7337 22.9406 16.9538 23.0984 17.2014 23.1981C17.4491 23.2978 17.7172 23.3363 17.9829 23.3104C17.9281 23.6693 17.8973 24.0314 17.8907 24.3944C17.8861 24.5511 17.8867 24.7 17.8893 24.8525C17.5077 24.9386 17.1143 24.9589 16.7259 24.9125C16.3097 24.8801 15.9003 24.7873 15.5107 24.6372C14.8983 24.4133 14.3562 24.0134 13.7301 23.8072C13.5031 23.7169 13.2601 23.674 13.0159 23.6812C12.7718 23.6883 12.5317 23.7454 12.3105 23.8488C11.6296 22.5709 10.7282 21.4234 9.64779 20.4594C8.32052 19.2207 6.77996 18.2325 5.10063 17.5426C4.56151 17.3288 3.58703 17.1194 3.02736 17.3556C2.46768 17.5918 2.52163 18.2677 2.79049 18.7024C3.693 20.1619 5.76863 20.3283 7.13218 21.1859C8.0558 21.8303 8.89257 22.591 9.62182 23.4492C10.369 24.2233 11.0444 25.0635 11.64 25.9595C11.7412 26.5346 12.0272 27.061 12.4546 27.4588C12.8821 27.8566 13.4276 28.1041 14.0084 28.1638C15.5043 28.3275 17.0178 28.1492 18.4347 27.6425C18.6513 28.3069 18.9318 28.9486 19.2724 29.5588C19.7731 30.3718 20.4205 31.0847 21.1817 31.6612C21.2103 32.1416 21.211 32.6233 21.1839 33.1039C21.1812 33.683 21.1919 34.2688 21.1985 34.8473C21.1947 34.8357 21.188 34.8253 21.1789 34.8171C21.1699 34.8089 21.1589 34.8031 21.147 34.8004C19.8999 34.4378 18.5423 34.7416 17.3575 35.2089C16.6642 35.48 15.7908 35.8709 15.7195 36.5961C14.4373 36.9135 13.3285 37.8561 12.2888 38.6043C11.0555 39.594 9.69699 40.4168 8.24849 41.0512C6.86342 41.5876 5.39826 41.7569 3.99693 42.2162C3.30838 42.446 2.62375 42.7072 1.9484 42.9677C1.40433 43.1383 0.92861 43.4774 0.589999 43.9362ZM19.5279 74.5619C19.0834 74.8221 19.0921 74.4753 19.0768 74.2436C19.0651 73.861 19.0979 73.4783 19.1747 73.1033C19.3878 71.9052 19.7305 70.7227 19.9984 69.5359C20.5238 67.202 21.0391 64.8836 20.9768 62.4749C20.8951 61.223 20.8849 59.9675 20.9463 58.7144C21.0268 58.0751 21.1478 57.4415 21.3089 56.8176L21.4794 55.9332C21.6025 56.8013 21.7533 57.6645 21.9316 58.5228C21.9128 58.5629 21.9005 58.6059 21.8953 58.6499C21.6435 60.9825 22.2264 63.2693 21.9964 65.6228C21.8362 66.9063 21.5879 68.1774 21.2535 69.4269C20.9884 70.5447 20.7521 71.6457 20.3686 72.7173C20.2202 73.2257 20.026 73.7195 19.7884 74.1929C19.7248 74.3307 19.6365 74.4558 19.5279 74.5619ZM1.36292 44.1383C1.85776 43.834 2.39792 43.6104 2.96309 43.476C3.61308 43.2543 4.26457 43.027 4.9338 42.8711C6.31791 42.6236 7.67498 42.2435 8.98626 41.736C10.277 41.1058 11.4901 40.3278 12.6013 39.4177C13.1989 38.9668 13.7777 38.4836 14.39 38.0578C14.6498 37.8768 14.9181 37.7102 15.1827 37.5456C15.2329 37.5163 15.5412 37.3358 15.7958 37.1868C15.9161 37.4837 16.1117 37.7441 16.3632 37.9424C16.0134 38.1803 15.6902 38.4551 15.399 38.762C14.834 39.3028 14.2289 39.8002 13.589 40.2498C12.4144 41.0649 11.1787 41.7882 9.89297 42.4133C8.47479 43.0245 7.01056 43.5227 5.51393 43.9033C4.82247 44.1299 4.1114 44.2915 3.38995 44.3861C2.88352 44.4419 1.8509 44.5361 1.36292 44.1383ZM29.1448 69.6449C27.0234 68.3068 25.7078 65.9195 24.7311 63.6754C22.6017 58.8043 22.195 53.4061 22.0624 48.1555C21.991 45.2132 22.1304 42.2773 22.1409 39.3351C22.1485 37.8434 22.0748 36.3607 21.9783 34.8721C21.9327 34.1528 21.8814 33.432 21.8193 32.7175L21.7724 32.1769C22.9556 33.2228 24.2142 34.1801 25.5379 35.0411C25.5635 35.4308 25.6283 35.817 25.7313 36.1937C25.8833 36.7934 25.9969 37.4021 26.0714 38.0163C26.2028 39.3015 26.4669 40.5668 26.6019 41.8499C26.883 44.4433 26.8953 47.0545 27.1671 49.6485C27.4185 52.2317 27.8359 54.7961 28.4169 57.3256C29.0527 59.9906 29.9109 62.5831 30.6839 65.2111C31.1095 66.4436 31.4178 67.7136 31.6046 69.004C31.6624 69.6537 31.6491 70.5519 30.7689 70.3885C30.1856 70.245 29.6346 69.9927 29.1448 69.6449ZM4.43891 19.7012C4.03942 19.4875 2.74031 18.7317 3.11077 18.1395C3.33837 17.78 4.24857 18.0029 4.63355 18.1097C5.13148 18.2817 5.60727 18.5121 6.05096 18.7961C6.96942 19.2984 7.83156 19.8974 8.6227 20.583C9.37813 21.2659 10.0701 22.016 10.6901 22.8238C11.0766 23.3196 11.3965 23.9073 11.8239 24.3743C11.7261 24.5627 11.6579 24.765 11.6215 24.9741C11.2436 24.5009 10.8384 24.0502 10.4079 23.6244C9.6886 22.8837 8.91834 22.1942 8.10272 21.5612C7.39771 21.0613 6.63262 20.6521 5.82547 20.3432C5.34737 20.1514 4.87224 19.9482 4.43891 19.7012ZM16.768 37.4745C16.4059 37.0944 16.3178 36.6068 16.7844 36.2856C17.2341 35.992 17.7199 35.7578 18.2296 35.5888C19.1451 35.2306 20.1136 35.0264 21.0959 34.9844C21.112 34.9848 21.1279 34.9806 21.1418 34.9725C21.1557 34.9643 21.1671 34.9525 21.1747 34.9382C21.1773 35.033 21.1798 35.1278 21.1787 35.2247C21.1885 35.8608 21.1905 36.4837 21.1848 37.0934C20.616 37.2185 20.057 37.3848 19.5124 37.5911C18.6573 37.8654 17.4987 38.2212 16.768 37.4745ZM14.3166 27.5309C13.9708 27.5294 13.6308 27.4415 13.3276 27.2752C13.0243 27.1089 12.7674 26.8696 12.5801 26.5789C12.2968 26.0949 12.1073 25.1133 12.6062 24.6912C12.95 24.3986 13.6054 24.7947 13.9456 24.9565C14.4 25.1991 14.873 25.405 15.3602 25.5724C16.1864 25.8519 17.0852 25.8276 17.895 25.5037C17.9271 25.978 18.0099 26.4475 18.142 26.9041C16.9477 27.4273 15.6399 27.6379 14.3417 27.5163L14.3166 27.5309ZM8.63148 11.7504C8.04836 11.2402 7.38021 10.8363 6.65745 10.5571C6.9585 10.5952 7.2566 10.6539 7.54964 10.7327C8.42475 10.9573 9.23444 11.3855 9.91276 11.9823C10.2628 12.3148 10.5552 12.7032 10.778 13.1315C10.9666 13.5596 11.1156 14.0041 11.2231 14.4593C11.2625 14.5759 11.3081 14.7032 11.3595 14.832C11.2167 14.7132 11.0831 14.5839 10.9597 14.4451C10.559 14.0154 10.2682 13.5022 9.89194 13.0485C9.51352 12.5807 9.10057 12.1418 8.65657 11.7357L8.63148 11.7504ZM27.5717 45.1183L27.5026 43.479L27.4542 42.7468C27.5357 42.6558 27.6058 42.5618 27.6802 42.475C27.9853 42.0877 28.3241 41.7283 28.6928 41.4009C29.0418 41.0908 29.4335 40.8323 29.8559 40.6334L29.9169 40.5977C29.9033 41.1255 29.9089 41.6613 29.9309 42.1923C29.3297 42.6884 28.8014 43.2667 28.3614 43.91C28.0831 44.2924 27.8278 44.691 27.5968 45.1036L27.5717 45.1183ZM14.8385 20.6603C14.4858 20.5693 14.182 20.3451 13.9911 20.0348C14.0757 19.6532 13.9223 19.2761 13.9621 18.8918C13.9926 18.6048 14.0953 18.3301 14.2607 18.0936C14.4261 17.857 14.6488 17.6663 14.9079 17.5392C15.1798 17.425 15.4753 17.3784 15.7691 17.4034C16.0629 17.4284 16.3462 17.5243 16.5948 17.6828C17.2565 18.0897 17.3853 18.6304 17.3048 19.3562C17.2422 19.8741 17.1693 20.35 16.6348 20.5714C16.067 20.7824 15.447 20.8084 14.8636 20.6456L14.8385 20.6603ZM35.7549 55.6198C34.7813 54.4032 33.9545 53.0762 33.2914 51.6662C33.7125 51.7279 34.1371 51.7639 34.5626 51.774C35.1826 51.7337 35.7966 51.6277 36.3941 51.4576C37.6268 51.1655 38.8085 50.6896 39.8996 50.0458C41.0129 49.4336 42.0081 48.6277 42.8385 47.6661C43.214 47.2349 43.5287 46.7544 43.7737 46.2378C43.8841 45.9761 43.9758 45.7068 44.0482 45.4322C44.965 46.7284 45.7238 48.1296 46.3084 49.6058C46.2242 49.9274 46.1022 50.238 45.945 50.5309C45.6332 51.056 45.2567 51.54 44.8244 51.9714C44.0357 52.8144 43.1478 53.5588 42.1801 54.1883C40.3528 55.359 37.9868 55.7572 35.78 55.6051L35.7549 55.6198ZM22.0538 31.3913C21.1031 30.465 20.3438 29.3607 19.8192 28.1413C19.8611 28.1249 19.8968 28.0958 19.9213 28.0581C19.9459 28.0205 19.958 27.9761 19.9562 27.9312C19.8948 26.9865 20.1353 26.0468 20.6428 25.2478C21.2378 24.447 22.7648 23.635 22.7173 25.256C22.6988 26.0466 22.5716 26.6023 23.3977 26.9611C23.7238 27.1071 24.0969 27.062 24.4126 27.1901C24.8126 27.3554 24.7197 28.2328 24.7244 28.5862C24.7409 29.3708 24.6493 30.3245 25.2124 30.9575C25.7219 31.5401 26.5219 31.6734 27.246 31.7839C27.6279 31.8443 28.0115 31.8171 28.398 31.9182C28.5891 31.9651 28.8927 32.0233 29.0334 32.1815C29.2183 32.4151 29.0863 32.9544 29.0451 33.2047C28.991 33.6458 28.88 34.078 28.7149 34.4906C28.6967 34.5253 28.2434 35.3297 28.111 35.3254C28.0623 35.3241 28.0144 35.3383 27.9744 35.3661C27.9344 35.3938 27.9042 35.4337 27.8885 35.4798C25.7496 34.4284 23.794 33.0394 22.0968 31.3662L22.0538 31.3913ZM36.9611 57.0556C36.7428 56.8224 36.5316 56.585 36.322 56.3419C37.2145 56.3482 38.1049 56.2563 38.9773 56.0679C40.2585 55.8327 41.4808 55.3477 42.5748 54.6407C43.6369 53.9299 44.5937 53.0733 45.4172 52.0961C45.7924 51.6764 46.0961 51.1978 46.316 50.6795C46.3897 50.4747 46.4468 50.2642 46.4866 50.0502C46.6391 50.4422 46.7773 50.8427 46.9118 51.2452C47.2847 52.4172 47.5722 53.6146 47.7721 54.8281C47.578 55.277 47.3324 55.7018 47.0403 56.094C46.3935 56.9294 45.5846 57.6256 44.6621 58.1407C42.9919 59.091 41.0401 59.4223 39.1499 59.0762L39.0715 59.0739C38.3421 58.4347 37.6517 57.7523 37.0041 57.0304L36.9611 57.0556ZM19.4867 27.3348C19.4174 27.1587 19.3495 26.9771 19.2853 26.7933C18.9875 25.9585 18.8192 25.0831 18.7862 24.1975C18.7952 23.7752 18.8264 23.3537 18.8797 22.9347C19.267 22.598 19.5944 22.1981 19.8478 21.7518L20.0784 21.381C20.4855 22.0765 21.0033 22.813 21.8598 22.9278C22.2557 22.9457 22.6508 22.8794 23.0192 22.7335C23.3876 22.5875 23.7208 22.3652 23.997 22.081C24.4801 21.6154 24.906 20.904 24.5812 20.2422C24.4163 19.9531 24.1909 19.703 23.9204 19.5091C23.6499 19.3152 23.3406 19.1821 23.0139 19.1188C23.5102 19.0786 24.0113 19.0548 24.4938 19.0322C25.0069 19.029 25.5159 18.9394 25.9992 18.7671C26.3891 18.9481 26.8028 19.0957 27.1497 19.3018C27.9047 19.7651 28.5844 20.3411 29.1651 21.01C29.8946 21.8118 30.5239 22.6992 31.0394 23.6527C30.7986 23.4872 30.541 23.3476 30.2709 23.2362C29.3467 22.8578 28.4051 22.5812 27.4925 22.1816C26.5027 21.7406 24.6752 21.5541 24.5325 23.0287C24.3897 24.5033 26.0259 24.9798 27.0857 25.4665C27.3796 25.5498 27.6409 25.7209 27.8349 25.9569C28.0279 26.229 27.9874 26.349 27.8894 26.6421C27.7545 26.9607 27.6442 27.2891 27.5596 27.6246C27.5021 27.9074 27.5473 28.2015 27.6872 28.454C27.8271 28.7065 28.0524 28.9008 28.3227 29.0021C29.0745 29.308 29.9493 29.2484 30.7262 29.482C31.5031 29.7155 32.4725 30.385 32.5302 31.3139C32.2706 31.2981 32.0108 31.34 31.7694 31.4368C31.5324 31.5481 31.3302 31.7218 31.1845 31.9394C31.0388 32.157 30.9551 32.4102 30.9424 32.6717C30.7647 34.0127 31.4066 35.3312 32.2848 36.3381C32.1968 36.6075 32.0141 36.8359 31.7706 36.9809C31.2293 37.2977 30.7011 36.7983 30.21 36.5515C29.719 36.3046 29.0958 36.0293 28.5371 35.7739C28.9523 35.5174 29.2831 35.1447 29.4884 34.702C29.6832 34.2572 29.8078 33.7849 29.8577 33.3018C29.9554 32.9079 29.9632 32.4969 29.8807 32.0995C29.6677 31.4396 28.8496 31.2591 28.2357 31.1805C27.3319 31.0838 25.7944 31.2281 25.4773 30.119C25.2025 29.1728 25.595 28.1248 25.3439 27.1695C25.125 26.335 24.2892 26.6751 23.7211 26.3049C23.0229 25.852 23.666 24.6237 22.9914 24.0222C22.7568 23.8516 22.4761 23.7559 22.1862 23.7478C21.8962 23.7397 21.6106 23.8196 21.3669 23.9768C20.0974 24.6285 19.6282 25.9813 19.5339 27.3168L19.4867 27.3348ZM32.9458 50.9443C32.5177 49.8928 32.1663 48.8115 31.8944 47.7092C33.8182 47.8875 35.9392 47.0214 37.5777 46.1778C38.6433 45.633 39.6058 44.9067 40.4221 44.0314C40.8631 43.5894 41.2357 43.0842 41.5277 42.5324C42.3002 43.2806 43.02 44.0816 43.6817 44.9295C43.4458 45.9394 42.9195 46.8582 42.1677 47.5726C41.365 48.4017 40.4331 49.0951 39.4083 49.6258C38.3388 50.2198 37.1848 50.6469 35.9863 50.8925C35.36 51.0576 34.7097 51.1126 34.0646 51.0548C33.744 50.9922 33.3716 50.9646 32.9931 50.9263L32.9458 50.9443ZM17.2617 22.2838C16.9146 22.0525 16.6426 21.7249 16.479 21.3413C16.6075 21.3182 16.7348 21.2887 16.8603 21.2528C17.1948 21.1456 17.4897 20.9411 17.7073 20.6654C17.9249 20.3897 18.0553 20.0553 18.0818 19.7051C18.2225 18.819 18.2303 18.0347 17.5529 17.3627C17.3162 17.1281 17.0409 16.9359 16.7391 16.7946C16.9519 16.4541 17.2006 16.1375 17.481 15.8501C17.6362 15.6933 17.8447 15.6004 18.0651 15.59C18.305 15.618 18.5481 15.5924 18.777 15.5151C19.0426 15.4001 19.2813 15.2309 19.4777 15.0182C19.5831 14.9324 19.6773 14.8336 19.758 14.7242C19.7929 14.6605 19.7993 14.5893 19.8342 14.5255C19.9076 14.4277 20.0042 14.3496 20.1153 14.2985C20.2426 14.2095 20.3769 14.1309 20.5168 14.0635C20.9046 13.9597 21.3025 13.8978 21.7035 13.879C21.6785 14.2113 21.7112 14.5455 21.8004 14.8667C22.0512 15.7885 22.7388 16.1657 23.5804 16.4769C23.8988 16.6252 24.2541 16.6752 24.6011 16.6204C24.948 16.5657 25.2707 16.4087 25.5279 16.1695C25.6187 16.0779 25.7109 15.9806 25.7954 15.8782C26.0487 16.2098 26.1998 16.6081 26.2304 17.0242C26.2218 17.1647 26.1843 17.302 26.1201 17.4273C26.056 17.5526 25.9667 17.6634 25.8577 17.7525C25.5946 17.9691 25.1209 17.8999 24.8086 17.9912C24.6992 18.0264 24.5988 18.0852 24.4937 18.1275C24.3359 18.1834 24.1722 18.221 24.0059 18.2397C23.2166 18.3266 22.4419 18.5148 21.7008 18.7997L21.6398 18.8353C21.6197 18.8416 21.6013 18.8523 21.5861 18.8668L21.1487 19.1228C21.1291 19.13 21.1108 19.1407 21.0949 19.1543C20.2644 19.7993 18.5268 22.8909 17.3089 22.2658L17.2617 22.2838ZM12.5385 15.2921C12.7044 15.2384 12.8732 15.1732 13.0325 15.1329C13.4833 15.0231 13.9419 14.9761 14.3992 14.9105C15.1463 14.8053 16.2008 14.7897 16.8761 15.2608L16.8331 15.286C16.0506 14.9113 14.8743 15.056 14.0901 15.1636C13.593 15.2453 13.0895 15.2823 12.5857 15.2741L12.5385 15.2921ZM28.2592 40.9809C27.9302 41.2614 27.629 41.5731 27.36 41.9115C27.2828 40.8834 27.1799 39.8606 27.0327 38.8445C26.9396 38.1674 26.9613 37.4809 26.8425 36.8092C26.7861 36.4909 26.689 36.1771 26.6141 35.8599C26.5784 35.799 26.5729 35.7156 26.5474 35.6391C27.7922 36.2773 29.0966 36.8037 30.3414 37.442C30.2673 37.6793 30.2167 37.9234 30.1904 38.1706C30.0958 38.7409 29.9744 39.2982 29.9304 39.8726C29.3252 40.1304 28.7741 40.5003 28.3064 40.9628L28.2592 40.9809ZM31.7271 46.9793C31.5805 46.3095 31.4581 45.6399 31.3569 44.9819C31.2956 44.5894 31.2493 44.1978 31.2122 43.8056C31.7044 43.7648 32.1922 43.6821 32.6704 43.5585C33.5037 43.3429 34.3075 43.026 35.0636 42.6148C35.851 42.1803 36.5618 41.6195 37.1676 40.9548C37.4256 40.6727 37.6634 40.3727 37.8791 40.057C37.9642 39.9422 38.033 39.8161 38.0833 39.6824C38.4326 39.9256 38.7769 40.1765 39.1145 40.4409C39.8408 41.0073 40.5587 41.6171 41.2435 42.2607C41.0754 42.5401 40.8905 42.8091 40.6898 43.0661C40.3547 43.5084 39.9703 43.9111 39.544 44.2663C38.7821 44.9207 37.9264 45.4573 37.0055 45.8581C36.1078 46.2812 35.1654 46.602 34.196 46.8144C33.6888 46.9372 33.1723 47.0174 32.6517 47.0541C32.3963 47.0207 32.0868 46.9853 31.7743 46.9613L31.7271 46.9793ZM42.0144 61.2645C41.3933 60.8531 40.7782 60.419 40.1819 59.9594C41.8244 60.052 43.6148 59.3939 44.9412 58.6174C45.9099 58.0426 46.7523 57.2777 47.4177 56.3688C47.5941 56.129 47.7517 55.8758 47.889 55.6116C47.9802 56.3155 48.055 57.0162 48.1134 57.7136C48.256 59.6757 48.1431 61.5467 47.3011 63.3151C45.3843 63.1568 43.6955 62.3356 42.058 61.2485L42.0144 61.2645ZM32.7025 42.8899C32.1974 43.0314 31.6799 43.1248 31.1571 43.1688C31.1088 42.4943 31.077 41.815 31.0509 41.1372C31.0267 40.5449 31.001 39.9583 31.0324 39.3623C31.0501 39.0391 31.0643 38.7179 31.0572 38.3852C31.0591 38.2733 31.0386 38.1313 31.0351 37.9938C31.5991 37.9172 32.126 37.6693 32.5446 37.2835C32.7344 37.1393 32.8693 36.9347 32.927 36.7034L32.9442 36.626C33.1386 36.7204 33.3251 36.8301 33.5021 36.954C33.7825 37.1124 34.0694 37.2573 34.3663 37.4108C34.9013 37.6752 35.4002 37.9848 35.9084 38.2938C36.5198 38.6723 37.1151 39.0314 37.7233 39.4455C37.6655 39.5694 37.596 39.6875 37.5157 39.7981C37.2915 40.0806 37.0499 40.349 36.7924 40.6017C36.2558 41.1564 35.6419 41.6309 34.9697 42.0103C34.2657 42.3826 33.5207 42.6717 32.7498 42.8718L32.7025 42.8899ZM21.6682 22.3949C21.0558 22.171 20.7125 21.5104 20.4196 20.9936C20.4094 20.9631 20.3929 20.935 20.3713 20.9111C20.7179 20.3518 21.1094 19.8217 21.5419 19.3259C21.8586 19.2551 22.1788 19.201 22.5012 19.1638C23.1673 19.3278 23.7483 19.7342 24.131 20.3036C24.4814 20.9022 23.9558 21.542 23.4896 21.8967C23.0234 22.2514 22.3655 22.6077 21.7418 22.3808L21.6682 22.3949ZM25.3198 24.0695C24.9054 23.6575 24.734 22.8385 25.315 22.4743C25.7022 22.2477 26.283 22.3601 26.6835 22.477C27.122 22.6568 27.5501 22.861 27.9657 23.0887C28.4019 23.2665 28.8545 23.3818 29.3017 23.5292C29.7953 23.6591 30.274 23.8403 30.73 24.0697C30.9873 24.226 31.2287 24.4071 31.4508 24.6104C31.5854 24.957 31.6996 25.3113 31.7927 25.6713C32.177 27.1502 32.6558 28.7904 32.6973 30.3497C32.5308 30.0543 32.3095 29.7935 32.0452 29.581C31.3091 29.006 30.3697 28.8483 29.4749 28.7175C29.0332 28.6536 28.2887 28.6562 28.0506 28.2084C27.8125 27.7605 28.1421 27.2547 28.2833 26.8544C28.3572 26.7097 28.3996 26.5509 28.4078 26.3886C28.416 26.2263 28.3896 26.0641 28.3306 25.9127C28.2715 25.7613 28.181 25.6241 28.0651 25.5102C27.9492 25.3963 27.8104 25.3082 27.658 25.2518C26.9649 24.8489 26.0171 24.6769 25.3933 24.0553L25.3198 24.0695ZM32.3253 35.6261C31.7909 34.9763 31.2167 34.3161 31.2118 33.4526C31.1748 32.9995 31.2591 32.5448 31.4562 32.1351C31.7046 31.8432 32.0504 31.651 32.4295 31.5942C32.4333 31.6445 32.4543 31.692 32.4889 31.7287C32.5235 31.7654 32.5697 31.7891 32.6197 31.7958C32.5404 32.7375 32.4389 33.6824 32.3546 34.6319C32.4193 34.9069 32.4261 35.2639 32.3988 35.612L32.3253 35.6261ZM20.3854 13.2306L20.3388 13.2579C20.2622 12.4364 20.7743 11.535 21.2461 10.9267C21.5164 10.5663 21.7784 10.1915 22.1091 9.84391C22.2259 9.72263 22.3617 9.60941 22.4898 9.49111C22.2422 9.95053 21.9525 10.386 21.6244 10.7919C21.1439 11.4101 20.4418 12.3649 20.3854 13.2306ZM33.8009 36.0667C33.5719 35.9701 33.3345 35.8948 33.0917 35.8418C33.1446 34.4438 33.3207 33.0508 33.3736 31.6529C33.4134 31.721 33.4835 31.7667 33.5371 31.8171C33.7733 32.0398 33.9994 32.2781 34.253 32.481C34.7805 32.9135 35.3897 33.2307 35.931 33.6455C36.7449 34.2713 37.6006 34.8533 38.4271 35.4429C38.0001 35.5114 37.5809 35.6214 37.1753 35.7713C36.531 35.9569 35.9287 36.2654 35.4015 36.6797C34.8898 36.4305 34.3481 36.2615 33.8045 36.0646L33.8009 36.0667ZM23.7038 15.6105C23.0494 15.3148 22.6231 14.9483 22.5923 14.1721C22.5758 13.8777 22.6309 13.5837 22.7529 13.3153C22.8749 13.0469 23.0602 12.812 23.2929 12.6309C23.5313 12.4673 23.8072 12.3665 24.0949 12.3377C24.3826 12.309 24.6729 12.3532 24.939 12.4664C25.2935 12.6198 25.5437 12.9403 25.9179 13.0533C26.0954 13.3716 26.1421 13.7463 26.0484 14.0984C25.8967 14.6981 25.5577 15.2337 25.0807 15.6275C24.6366 15.9789 24.1945 15.8238 23.7038 15.6105ZM36.084 37.0069L36.1486 36.9692C36.5277 36.699 36.9436 36.4847 37.3837 36.3328C37.8495 36.1711 38.3288 36.0516 38.816 35.9757L39.1636 35.9118C39.368 36.0473 39.576 36.1806 39.782 36.3104C40.2371 36.6055 40.6977 36.899 41.1638 37.1909C40.6922 37.1916 40.221 37.2184 39.7523 37.2711C38.9748 37.3414 38.2108 37.5196 37.4825 37.8008C37.0117 37.5228 36.5509 37.2535 36.0861 37.0105L36.084 37.0069ZM34.2705 31.1953C33.9924 30.921 33.6874 30.6754 33.3601 30.4623C33.2543 28.8873 33.0346 27.322 32.7027 25.7788C32.8568 25.8859 33.0125 25.9873 33.1511 26.0843C33.7437 26.4883 34.3471 26.8859 34.952 27.2779C36.2027 28.0908 37.463 28.8789 38.7639 29.6047C41.3381 31.0339 43.9563 32.3411 46.4933 33.8547C51.0066 36.541 55.5144 39.5385 58.7228 43.778C60.1978 45.7304 61.6389 48.0443 61.767 50.5491C61.8232 51.1452 61.7689 51.7465 61.6068 52.3228C61.3219 53.1682 60.5286 52.7421 59.994 52.3715C58.961 51.5785 58.0064 50.6884 57.1432 49.7132C55.2302 47.7526 53.3754 45.7434 51.3774 43.8758C49.4574 42.1301 47.427 40.51 45.2988 39.0253C43.1664 37.5204 40.8992 36.2291 38.7719 34.7164C37.7228 33.9684 36.7452 33.1207 35.6889 32.3769C35.1916 32.0135 34.7178 31.6188 34.2705 31.1953ZM21.4752 6.86978C21.2127 6.46478 21.0174 6.02001 20.8968 5.55266C20.7104 4.66884 20.7335 3.75366 20.9642 2.88037C21.0402 2.5855 21.1361 2.29615 21.2514 2.01432C21.1374 2.78102 21.1625 3.56201 21.3255 4.31982C21.4565 4.90816 21.6334 5.48534 21.8546 6.04605C22.0624 6.5983 22.3675 7.10315 22.5496 7.66082C22.6072 7.83769 22.6533 8.0181 22.6876 8.20091C22.6184 8.08261 22.5118 7.99098 22.4294 7.89961C22.0805 7.58628 21.7611 7.24155 21.4752 6.86978ZM29.8705 20.0195C29.537 19.6807 29.1682 19.3786 28.7703 19.1185C29.4511 18.5708 29.9154 17.7993 30.0805 16.9413C30.1702 16.4349 30.221 15.9224 30.2325 15.4083C30.2579 15.0324 30.2335 14.267 30.6569 14.1106C31.2692 13.8822 32.0288 14.5301 32.3156 15.012C32.4776 15.3171 32.561 15.6578 32.5581 16.0032C32.5552 16.3486 32.4662 16.6879 32.2992 16.9902C31.7617 18.1893 30.927 19.2313 29.8741 20.0174L29.8705 20.0195ZM35.661 26.7377C35.5796 26.6891 35.4982 26.6405 35.4132 26.594C35.4293 26.5943 35.4452 26.5902 35.4591 26.582C35.4731 26.5739 35.4845 26.5621 35.4921 26.5478C36.0101 25.7123 36.6623 24.9679 37.4224 24.3445C37.8196 23.9832 38.2616 23.6743 38.7375 23.4255C39.246 23.176 39.6316 23.4893 39.7822 23.9932C40.0827 24.9917 39.2052 25.8279 38.5381 26.4398C38.0919 26.814 37.6732 27.22 37.2853 27.6544C36.7467 27.3536 36.2064 27.0474 35.6646 26.7356L35.661 26.7377ZM30.8057 13.263C30.6078 12.6617 30.252 12.0951 30.0125 11.5133C29.6105 10.5779 29.2941 9.60804 29.0672 8.61555C28.8587 7.58979 28.7585 6.54498 28.7682 5.4983C28.7378 4.97237 28.7699 4.44469 28.8636 3.9263C28.959 3.53835 29.2103 2.63558 29.6352 2.61311C30.333 2.58006 30.3559 4.08281 30.3467 4.53581C30.3375 4.98881 30.2753 5.54027 30.2234 6.05194C30.0976 6.90698 30.0798 7.77445 30.1705 8.63392C30.3288 9.66137 30.5595 10.6764 30.8607 11.6713C31.02 12.2558 31.2134 12.8305 31.4398 13.3924C31.2382 13.3144 31.0253 13.27 30.8093 13.2609L30.8057 13.263ZM41.5736 23.4356C41.1633 23.5389 40.7654 23.6862 40.3869 23.8751C40.3371 23.5587 40.2058 23.2606 40.0058 23.0104C40.2496 22.8677 40.5722 22.6788 40.6188 22.6515C40.8913 22.492 41.1602 22.3347 41.4536 22.211C42.1247 21.8856 42.8293 21.6175 43.5151 21.3172C44.8526 20.7938 46.1249 20.1169 47.3064 19.3001C48.3921 18.4045 49.3891 17.4066 50.2838 16.3202C50.7558 15.822 51.2526 15.348 51.7725 14.9001C52.1664 14.4731 52.6258 14.1115 53.1334 13.8291C53.2351 14.4386 52.6537 15.3036 52.3613 15.725C51.9256 16.3078 51.4365 16.8486 50.9004 17.3406C49.8358 18.4593 48.6845 19.4921 47.4573 20.4295C46.2827 21.2445 45.047 21.9678 43.7613 22.593C43.0586 22.9248 42.3321 23.2036 41.5879 23.4272L41.5736 23.4356ZM53.5855 37.1396L54.4402 37.4238C55.0635 37.5874 55.6753 37.792 56.2716 38.0364C57.3946 38.5972 58.4855 39.22 59.5392 39.902C61.6054 41.1377 63.8792 41.8234 66.1715 42.508C67.3375 42.8554 68.5399 43.1335 69.6675 43.5468C70.0337 43.6612 70.3848 43.8192 70.7132 44.0177C70.9077 44.1444 71.2088 44.3051 70.7699 44.5668C70.6216 44.6096 70.4664 44.6236 70.3128 44.6082C69.7838 44.5836 69.2581 44.5112 68.7421 44.3917C67.6152 44.185 66.5422 43.8649 65.4399 43.5523C64.187 43.2307 62.9573 42.8249 61.7591 42.3376C59.5986 41.3931 57.8858 39.758 55.7286 38.8355C55.6876 38.8185 55.6442 38.8082 55.6 38.8049C54.9658 38.2231 54.2815 37.6707 53.5855 37.1396Z" fill="black"/>
</svg>
